<?xml version="1.0" encoding="utf-8"?>
<!-- Generator: Adobe Illustrator 21.0.0, SVG Export Plug-In . SVG Version: 6.00 Build 0)  -->
<svg version="1.1" id="图层_1" xmlns="http://www.w3.org/2000/svg" xmlns:xlink="http://www.w3.org/1999/xlink" x="0px" y="0px"
	 viewBox="0 0 24 24" style="enable-background:new 0 0 24 24;" xml:space="preserve">
<style type="text/css">
	.st0{fill:#2D374B;}
	.st1{fill:#28A0F0;}
	.st2{fill:#FFFFFF;}
	.st3{fill:#96BEDC;}
</style>
<path class="st0" d="M14.3,11.2l1.5-2.5l4,6.2l0,1.2l0-8.2c0-0.2-0.1-0.4-0.3-0.5l-7.2-4.1c-0.2-0.1-0.4-0.1-0.6,0c0,0,0,0-0.1,0
	l0,0l-7,4.1l0,0c0,0-0.1,0-0.1,0.1C4.4,7.5,4.3,7.6,4.3,7.8c0,0,0,0,0,0.1l0,6.7L8,8.8c0.5-0.8,1.5-1,2.4-1l1.1,0L5,18.3l0.8,0.4
	l6.6-11l2.9,0L8.7,19l2.8,1.6l0.3,0.2c0.1,0.1,0.3,0.1,0.4,0l7.3-4.2l-1.4,0.8L14.3,11.2z M14.8,19.3l-2.8-4.4l1.7-2.9l3.7,5.8
	L14.8,19.3z"/>
<path class="st1" d="M12.1,14.9l2.8,4.4l2.6-1.5L13.8,12L12.1,14.9z"/>
<path class="st1" d="M19.8,16.1l0-1.2l-4-6.2l-1.5,2.5l3.9,6.2l1.4-0.8C19.7,16.5,19.8,16.3,19.8,16.1L19.8,16.1z"/>
<path class="st2" d="M3,17.2l2,1.1l6.6-10.5l-1.1,0c-0.9,0-2,0.2-2.4,1l-3.7,5.8L3,16.5L3,17.2L3,17.2z"/>
<path class="st2" d="M15.3,7.8l-2.9,0l-6.6,11l2.3,1.3L8.7,19L15.3,7.8z"/>
<path class="st3" d="M21,7.8c0-0.6-0.4-1.2-0.9-1.5l-7.3-4.2c-0.5-0.3-1.2-0.3-1.7,0c-0.1,0-7.1,4.1-7.1,4.1C4,6.2,3.9,6.3,3.8,6.4
	C3.3,6.7,3,7.2,3,7.8v8.7l1.3-1.9l0-6.7c0,0,0,0,0-0.1c0-0.2,0.1-0.3,0.2-0.4c0,0,7.2-4.2,7.2-4.2c0.2-0.1,0.4-0.1,0.6,0l7.2,4.1
	c0.2,0.1,0.3,0.3,0.3,0.5v8.3c0,0.2-0.1,0.3-0.2,0.5l-1.4,0.8l-0.7,0.4l-2.6,1.5l-2.6,1.5c-0.1,0.1-0.3,0-0.4,0L8.7,19l-0.6,1.1
	l2.8,1.6c0.1,0.1,0.2,0.1,0.2,0.1c0.1,0.1,0.2,0.1,0.2,0.1c0.2,0.1,0.5,0.2,0.7,0.2c0.2,0,0.5,0,0.7-0.1l7.6-4.4
	c0.4-0.3,0.7-0.8,0.7-1.4V7.8z"/>
</svg>
