<svg width="18" height="20" viewBox="0 0 18 20" fill="none" xmlns="http://www.w3.org/2000/svg">
<path d="M11.1603 9.16398L12.6291 6.67175L16.588 12.838L16.5899 14.0213L16.577 5.87828C16.5676 5.67924 16.4619 5.49713 16.2933 5.38976L9.16572 1.28987C8.99901 1.20795 8.78755 1.20881 8.62115 1.29242C8.59868 1.30371 8.57751 1.31594 8.55734 1.32929L8.53252 1.34493L1.61405 5.35413L1.58718 5.3663C1.55267 5.38219 1.51779 5.40236 1.48502 5.42582C1.35387 5.51991 1.26673 5.659 1.23855 5.81504C1.23433 5.83869 1.23123 5.86277 1.22974 5.88704L1.2406 12.5228L4.92817 6.80724C5.39243 6.04934 6.404 5.80523 7.343 5.81851L8.44513 5.84762L1.95145 16.2616L2.71692 16.7024L9.28843 5.85818L12.193 5.84762L5.63847 16.9655L8.3699 18.5365L8.69625 18.7242C8.83428 18.7803 8.99702 18.7831 9.13624 18.7329L16.364 14.5443L14.9821 15.345L11.1603 9.16398ZM11.7207 17.2351L8.96189 12.9052L10.646 10.0475L14.2691 15.7582L11.7207 17.2351Z" fill="#2D374B"/>
<path d="M8.96143 12.9049L11.7202 17.2348L14.2687 15.7579L10.6455 10.0472L8.96143 12.9049Z" fill="#28A0F0"/>
<path d="M16.5902 14.0209L16.5884 12.8376L12.6295 6.67139L11.1606 9.16362L14.9825 15.3447L16.3643 14.5439C16.4999 14.4339 16.5819 14.2723 16.5905 14.098L16.5902 14.0209Z" fill="#28A0F0"/>
<path d="M6.25062e-05 15.137L1.95144 16.2614L8.44512 5.84737L7.343 5.81826C6.40399 5.80498 5.39249 6.04909 4.92817 6.80698L1.24059 12.5225L0 14.4287V15.137H6.25062e-05Z" fill="white"/>
<path d="M12.1926 5.84735L9.28806 5.8579L2.71655 16.7021L5.01346 18.0246L5.6381 16.9652L12.1926 5.84735Z" fill="white"/>
<path d="M17.8149 5.83251C17.7906 5.22506 17.4617 4.66894 16.9465 4.3452L9.72554 0.192624C9.21591 -0.0640218 8.57923 -0.0643322 8.06879 0.192438C8.00846 0.222851 1.04649 4.26054 1.04649 4.26054C0.950164 4.30672 0.857374 4.36177 0.770046 4.42421C0.310131 4.75385 0.0297756 5.26603 0.000976562 5.82879V14.4288L1.24157 12.5227L1.23071 5.88694C1.23219 5.86267 1.23524 5.83884 1.23952 5.81525C1.26751 5.65909 1.35471 5.51982 1.48599 5.42572C1.51876 5.40226 8.59959 1.30362 8.62212 1.29232C8.78858 1.20872 9.00004 1.20785 9.16669 1.28978L16.2943 5.38966C16.4629 5.49704 16.5686 5.67914 16.578 5.87819V14.0983C16.5693 14.2726 16.5004 14.4341 16.3649 14.5442L14.983 15.3449L14.2701 15.7581L11.7216 17.235L9.13715 18.7328C8.99793 18.7831 8.83519 18.7803 8.69715 18.7241L5.63937 16.9654L5.01473 18.0247L7.76268 19.6069C7.85354 19.6585 7.93454 19.7043 8.00095 19.7417C8.10386 19.7994 8.17393 19.8379 8.1987 19.8499C8.39402 19.9448 8.675 20 8.92823 20C9.16042 20 9.38678 19.9574 9.60103 19.8734L17.1077 15.5261C17.5386 15.1923 17.792 14.6889 17.8149 14.1435V5.83251Z" fill="#96BEDC"/>
</svg>
