<?xml version="1.0" encoding="utf-8"?>
<!-- Generator: Adobe Illustrator 21.0.0, SVG Export Plug-In . SVG Version: 6.00 Build 0)  -->
<svg version="1.1" id="图层_1" xmlns="http://www.w3.org/2000/svg" xmlns:xlink="http://www.w3.org/1999/xlink" x="0px" y="0px"
	 viewBox="0 0 24 24" style="enable-background:new 0 0 24 24;" xml:space="preserve">
<style type="text/css">
	.st0{fill:#FFC100;}
</style>
<path class="st0" d="M12,14.5L9.5,12L12,9.5l2.5,2.5L12,14.5z"/>
<path class="st0" d="M17.6,12L17.6,12l2.3,2.3l2.3-2.3l-2.3-2.3L17.6,12L17.6,12z"/>
<path class="st0" d="M8.1,10.4L12,6.4l4,4l2.3-2.3L12,1.9L5.8,8.1L8.1,10.4z"/>
<path class="st0" d="M16,13.6l-4,4l-4-4l-2.3,2.3l6.3,6.3l6.3-6.3L16,13.6z"/>
<path class="st0" d="M6.4,12L6.4,12L4.2,9.6L1.9,12l2.3,2.3L6.4,12L6.4,12z"/>
</svg>
