<svg width="28" height="28" viewBox="0 0 28 28" fill="none" xmlns="http://www.w3.org/2000/svg">
<path fill-rule="evenodd" clip-rule="evenodd" d="M14.0008 17.2708L10.73 14.0001L14.0008 10.7292L17.2717 14.0001L14.0008 17.2708Z" fill="#FFC100"/>
<path fill-rule="evenodd" clip-rule="evenodd" d="M21.4325 13.9993L21.4187 14.0129L24.4524 17.0464L27.4996 13.9993L24.4314 10.9309L21.3977 13.9644L21.4325 13.9993Z" fill="#FFC100"/>
<path fill-rule="evenodd" clip-rule="evenodd" d="M8.74274 11.8242L13.9999 6.56703L19.3345 11.9015L22.368 8.86804L13.9999 0.5L5.70923 8.7907L8.74274 11.8242Z" fill="#FFC100"/>
<path fill-rule="evenodd" clip-rule="evenodd" d="M19.3561 16.0774L14.0006 21.4329L8.69257 16.1247L5.65906 19.1582L14.0006 27.4999L22.3896 19.1109L19.3561 16.0774Z" fill="#FFC100"/>
<path fill-rule="evenodd" clip-rule="evenodd" d="M6.56751 14.0002L6.67952 13.8882L3.646 10.8545L0.500488 14.0002L3.59517 17.0949L6.62868 14.0613L6.56751 14.0002Z" fill="#FFC100"/>
</svg>
