<?xml version="1.0" encoding="utf-8"?>
<!-- Generator: Adobe Illustrator 21.0.0, SVG Export Plug-In . SVG Version: 6.00 Build 0)  -->
<svg version="1.1" id="图层_1" xmlns="http://www.w3.org/2000/svg" xmlns:xlink="http://www.w3.org/1999/xlink" x="0px" y="0px"
	 viewBox="0 0 24 24" style="enable-background:new 0 0 24 24;" xml:space="preserve">
<style type="text/css">
	.st0{fill:#27A577;}
</style>
<path class="st0" d="M7.5,12c2.1,0,3.9-1.4,4.5-3.3c0.6,1.9,2.4,3.3,4.5,3.3c2.6,0,4.7-2.1,4.7-4.7c0-2.6-2.1-4.7-4.7-4.7
	c-2.1,0-3.9,1.4-4.5,3.3C11.4,4,9.6,2.6,7.5,2.6c-2.6,0-4.7,2.1-4.7,4.7C2.8,9.9,4.9,12,7.5,12z M12,18.1c-0.6,1.9-2.4,3.3-4.5,3.3
	c-2.6,0-4.7-2.1-4.7-4.7S4.9,12,7.5,12c2.1,0,3.9,1.4,4.5,3.3c0.6-1.9,2.4-3.3,4.5-3.3c2.6,0,4.7,2.1,4.7,4.7s-2.1,4.7-4.7,4.7
	C14.4,21.4,12.6,20,12,18.1z"/>
</svg>
