<svg width="160" height="130" viewBox="0 0 160 130" fill="none" xmlns="http://www.w3.org/2000/svg">
<path d="M50.7538 90.2781H120.938C123.278 90.2781 125.143 92.1749 125.143 94.4828V97.4546C125.143 99.7941 123.246 101.659 120.938 101.659H50.7538C48.4143 101.659 46.5491 99.7625 46.5491 97.4546V94.4828C46.5491 92.1433 48.4143 90.2781 50.7538 90.2781Z" fill="#008A51"/>
<path d="M120.938 102.544H50.7537C47.94 102.544 45.6321 100.268 45.6321 97.4229V94.4511C45.6321 91.6375 47.9083 89.3296 50.7537 89.3296H120.938C123.752 89.3296 126.06 91.6058 126.06 94.4511V97.4229C126.028 100.268 123.752 102.544 120.938 102.544ZM50.7537 91.1632C48.92 91.1632 47.4341 92.6491 47.4341 94.4828V97.4545C47.4341 99.2882 48.92 100.774 50.7537 100.774H120.938C122.772 100.774 124.258 99.2882 124.258 97.4545V94.4828C124.258 92.6491 122.772 91.1632 120.938 91.1632H50.7537Z" fill="#003620"/>
<path d="M48.9518 94.5142H123.878C125.712 94.5142 127.23 96 127.23 97.8653V100.837C127.23 103.619 124.953 105.895 122.171 105.895H48.9518C47.624 105.895 46.5491 104.821 46.5491 103.493V96.9169C46.5491 95.5891 47.624 94.5458 48.9518 94.5142Z" fill="#904410"/>
<path d="M122.139 106.781H48.9512C47.1492 106.781 45.6633 105.295 45.6633 103.493V96.9168C45.6633 95.1148 47.1492 93.6289 48.9512 93.6289H123.878C126.217 93.6289 128.114 95.5258 128.114 97.8653V100.837C128.114 104.125 125.427 106.781 122.139 106.781ZM48.9512 95.4309C48.1293 95.4309 47.4654 96.0949 47.4654 96.9168V103.493C47.4654 104.315 48.1293 104.979 48.9512 104.979H122.171C124.479 104.979 126.344 103.113 126.344 100.805V97.8337C126.344 96.4742 125.237 95.3993 123.91 95.3993H48.9512V95.4309Z" fill="#331805"/>
<path d="M129.569 95.9054L100.262 40.5166C99.6617 39.3785 99.9779 37.9875 100.99 37.2287C102.001 36.5332 103.297 36.9126 103.898 38.0507L133.205 93.4079C133.806 94.546 133.489 95.9371 132.478 96.6958C131.466 97.423 130.17 97.0436 129.569 95.9054Z" fill="#008A51"/>
<path d="M131.402 97.9603C131.181 97.9603 130.96 97.9287 130.707 97.8655C129.885 97.6758 129.189 97.1067 128.778 96.3164L99.4717 40.9275C98.6497 39.41 99.0607 37.5448 100.452 36.5015L100.483 36.4699C101.179 35.9957 101.969 35.8692 102.76 36.0589C103.582 36.2486 104.277 36.8493 104.688 37.6396L133.995 92.9968C134.817 94.5143 134.406 96.3796 133.015 97.4229L132.983 97.4545C132.509 97.8022 131.94 97.9603 131.402 97.9603ZM130.359 95.4944C130.549 95.8421 130.833 96.0634 131.15 96.1583C131.434 96.2215 131.719 96.1899 131.971 96.0002C132.635 95.4944 132.825 94.6092 132.414 93.8504L103.107 38.4932C102.918 38.1455 102.633 37.9242 102.317 37.8293C102.032 37.7661 101.748 37.7977 101.495 37.9874C100.831 38.4932 100.641 39.3784 101.021 40.1372L130.359 95.4944Z" fill="#003620"/>
<path d="M135.355 98.0234L106.048 42.6662C105.447 41.5281 105.763 40.137 106.775 39.3783C109.178 37.766 112.276 38.6512 113.73 41.3384L140.002 91.0049C141.425 93.7238 140.666 97.233 138.263 98.877C137.251 99.5409 135.955 99.1615 135.355 98.0234Z" fill="#904410"/>
<path d="M137.188 100.078C136.967 100.078 136.714 100.047 136.493 99.9834C135.671 99.7621 134.975 99.193 134.564 98.4343L105.257 43.0771C104.435 41.5596 104.846 39.6943 106.237 38.651L106.269 38.6194C107.597 37.7342 109.178 37.4497 110.663 37.7974C112.276 38.2084 113.667 39.3149 114.52 40.8957L140.792 90.5622C142.436 93.6605 141.519 97.7071 138.769 99.604C138.295 99.9202 137.726 100.078 137.188 100.078ZM107.312 40.0737C106.648 40.5795 106.459 41.4647 106.838 42.2235L136.145 97.6123C136.334 97.9601 136.619 98.1814 136.935 98.2762C137.22 98.3394 137.504 98.3078 137.789 98.1181C139.812 96.7587 140.476 93.7553 139.243 91.4158L112.971 41.7493C112.371 40.6111 111.422 39.8208 110.284 39.5362C109.241 39.2833 108.197 39.5046 107.312 40.0737Z" fill="#331805"/>
<path d="M147.241 105.326L108.355 31.8538C107.755 30.7157 107.913 29.3562 108.735 28.7872L109.494 28.2813C117.334 22.9701 128.304 26.9219 134.817 37.3864C143.132 50.7277 150.434 64.6698 156.694 79.1177C160.994 89.0446 159.129 100.078 152.363 104.631L149.802 106.369C148.98 106.939 147.842 106.464 147.241 105.326Z" fill="#23CBC5"/>
<path d="M149.075 107.603C148.885 107.603 148.664 107.571 148.474 107.539C147.621 107.318 146.862 106.686 146.388 105.801L107.502 32.3283C106.648 30.7476 106.964 28.8507 108.197 27.9971L108.956 27.4913C112.339 25.1834 116.385 24.4563 120.59 25.3415C126.344 26.5744 131.845 30.7792 135.67 36.9124C143.985 50.2538 151.383 64.3539 157.611 78.7702C162.1 89.1398 160.108 100.647 152.932 105.485L150.371 107.223C149.96 107.445 149.518 107.603 149.075 107.603ZM148.095 104.852C148.348 105.326 148.696 105.548 148.917 105.611C149.075 105.643 149.17 105.611 149.233 105.579L151.794 103.841C158.18 99.5094 159.887 89.0449 155.777 79.5289C149.581 65.1759 142.215 51.2022 133.963 37.9241C130.422 32.2335 125.396 28.3449 120.148 27.2384C116.48 26.448 112.971 27.1119 110.031 29.1036L109.272 29.6094C108.924 29.8307 108.83 30.6843 109.209 31.3799L148.095 104.852Z" fill="#284F4E"/>
<path d="M108.071 58.4419C112.37 58.7897 114.71 57.6199 117.46 55.3753C118.092 54.8695 119.009 55.3437 119.231 56.1657C119.768 58.2839 118.693 60.4653 116.67 61.2872C114.077 62.4254 111.074 62.3305 108.576 61.0027" fill="#23CBC5"/>
<path d="M112.908 63.0575C111.264 63.0575 109.62 62.6465 108.102 61.8561L109.019 60.1173C111.295 61.3187 113.919 61.4135 116.259 60.3702C117.84 59.7063 118.693 57.9991 118.251 56.3868C118.219 56.2287 118.092 56.1339 118.029 56.1339C115.152 58.4733 112.56 59.7696 107.976 59.4218L108.134 57.4617C112.149 57.7778 114.204 56.7345 116.828 54.6164C117.334 54.2054 117.998 54.0789 118.662 54.2686C119.389 54.4899 119.958 55.1222 120.179 55.9126C120.843 58.4734 119.515 61.1922 117.049 62.2039C115.721 62.7729 114.299 63.0575 112.908 63.0575Z" fill="#284F4E"/>
<path d="M12.5001 100.837C9.65479 106.021 6.87271 107.824 2.85765 109.309C1.94083 109.657 1.68791 111.048 2.25697 111.902C3.01572 113.135 4.40677 113.862 5.86104 113.799C6.90432 113.767 7.88437 113.388 8.70635 112.724C11.8046 110.384 13.6382 107.16 14.397 103.239" fill="#23CBC5"/>
<path d="M5.73459 114.779C4.0274 114.779 2.41506 113.894 1.46662 112.44C0.992398 111.713 0.865939 110.764 1.15047 109.911C1.37177 109.184 1.90922 108.614 2.54151 108.393C6.36688 106.97 8.92767 105.295 11.6465 100.363L13.3537 101.311C10.3503 106.749 7.37855 108.709 3.20542 110.227C3.11058 110.258 3.04735 110.353 2.98412 110.511C2.88927 110.796 2.92089 111.112 3.07896 111.333L3.11058 111.365C3.67964 112.282 4.75454 112.851 5.82943 112.788C6.65141 112.756 7.47339 112.471 8.10569 111.934C10.951 109.784 12.6898 106.876 13.4486 103.019L15.377 103.398C14.5235 107.698 12.5001 111.08 9.30704 113.483C8.3586 114.242 7.15725 114.684 5.89266 114.748C5.86105 114.779 5.79782 114.779 5.73459 114.779Z" fill="#284F4E"/>
<path d="M12.2151 100.205C7.66264 83.4173 15.1869 65.7448 33.8395 50.222C43.4504 42.2235 54.8316 37.3864 66.7187 36.3432C85.403 34.7308 98.9973 40.8324 106.711 55.881C107.154 56.703 107.47 57.5566 107.691 58.4734C110.695 70.3605 95.3616 83.449 71.8719 97.0749C68.7737 98.8769 65.549 100.521 62.2927 102.007C41.9645 111.175 23.628 116.739 14.7127 105.263C13.543 103.777 12.6894 102.038 12.2151 100.205Z" fill="#23CBC5"/>
<path d="M29.4453 112.724C23.1224 112.724 17.7479 110.796 13.9225 105.864C12.6896 104.252 11.8044 102.418 11.2669 100.458C6.58796 83.228 14.3968 65.1444 33.2075 49.4636C43.0396 41.2754 54.6106 36.4068 66.6241 35.3635C86.1303 33.6879 99.9143 40.4534 107.565 55.4071C108.008 56.2923 108.387 57.2092 108.64 58.1892C111.454 69.2859 99.9143 81.9002 72.3463 97.8972C69.2165 99.6992 65.9602 101.406 62.6723 102.892C50.8168 108.267 39.0245 112.724 29.4453 112.724ZM72.2831 37.1023C70.5127 37.1023 68.6791 37.1971 66.7822 37.3552C55.148 38.3352 43.988 43.0774 34.4404 51.0127C16.262 66.1561 8.67452 83.5441 13.1322 99.9837C13.5748 101.691 14.3652 103.303 15.4401 104.726C19.3286 109.753 25.3987 111.618 34.0294 110.48C41.1111 109.531 49.6787 106.654 61.8187 101.185C65.0434 99.7308 68.2365 98.0869 71.3347 96.2848C84.0754 88.887 93.1172 82.406 98.9975 76.4625C105.542 69.855 108.071 64.0695 106.711 58.7583C106.49 57.9363 106.174 57.1459 105.795 56.3872C102.127 49.1791 96.9425 43.9626 90.3667 40.8328C85.2767 38.3352 79.2067 37.1023 72.2831 37.1023Z" fill="#284F4E"/>
<path d="M82.0204 87.7805C81.8623 89.4244 81.9888 91.1 82.3682 92.744C82.5262 93.6608 83.3482 94.3247 84.2967 94.2931C85.3716 94.2298 86.4148 93.9137 87.3633 93.4079C88.122 92.9336 88.5014 92.08 88.3749 91.1948C88.122 89.6141 87.6162 88.0966 86.8258 86.7056C86.5413 86.1681 86.0354 85.8204 85.4348 85.7255C84.7076 85.6623 83.9805 85.7571 83.3166 86.01C82.5579 86.2946 82.052 86.9901 82.0204 87.7805Z" fill="#FFF3CF"/>
<path d="M84.2335 94.8624C83.0321 94.8624 82.0205 94.0404 81.7992 92.839C81.3882 91.1951 81.2934 89.4563 81.4514 87.7491C81.5147 86.7374 82.1469 85.8522 83.0954 85.4728C83.8541 85.1883 84.6761 85.0934 85.4665 85.1567C86.2568 85.2515 86.9524 85.7257 87.3317 86.4212C88.1221 87.8439 88.6595 89.4246 88.9125 91.0686C89.1021 92.1751 88.5963 93.2816 87.6479 93.8507C86.6046 94.4198 85.4665 94.7675 84.3283 94.8308C84.2967 94.8624 84.2651 94.8624 84.2335 94.8624ZM84.9606 86.2632C84.4548 86.2632 83.949 86.358 83.4748 86.5161C82.9689 86.7374 82.5895 87.2432 82.5579 87.8123V87.8439C82.3999 89.4563 82.5263 91.037 82.9057 92.6177C83.0321 93.2816 83.6012 93.7559 84.2651 93.7242C85.2136 93.661 86.1936 93.3765 87.0788 92.9023C87.6163 92.5861 87.9008 91.9222 87.7743 91.2899C87.553 89.7724 87.0472 88.3181 86.2885 86.9903C86.0988 86.6109 85.7194 86.358 85.34 86.2948C85.2136 86.2948 85.0871 86.2632 84.9606 86.2632Z" fill="#331805"/>
<path d="M21.9845 37.7977C32.3225 34.5414 45.0316 40.7378 47.9085 52.4036C50.7854 64.0694 44.747 76.2094 34.4407 79.4657C24.1343 82.722 13.4169 75.8933 10.54 64.2275C7.66309 52.5617 11.6781 41.054 21.9845 37.7977Z" fill="#E3E1D6"/>
<path d="M29.2243 81.2678C26.0944 81.2678 22.9646 80.4458 20.1193 78.8334C14.9661 75.9249 11.1091 70.6769 9.55998 64.4172C8.07409 58.4104 8.35862 52.372 10.382 47.4401C12.5318 42.1289 16.452 38.4616 21.6684 36.8176C27.1061 35.1104 33.2393 35.8376 38.5506 38.7777C43.7986 41.7179 47.4659 46.4601 48.8886 52.1507C51.8919 64.3223 45.5374 76.9682 34.7252 80.3826C32.9232 80.9832 31.0579 81.2678 29.2243 81.2678ZM22.3007 38.7461C13.006 41.6863 8.57992 52.0559 11.5201 63.9746C12.9427 69.6968 16.4203 74.4706 21.0993 77.1263C25.146 79.4025 29.7933 79.9083 34.1561 78.5173C43.9883 75.4191 49.7105 63.8165 46.9601 52.6565C45.6955 47.535 42.3759 43.2354 37.6021 40.5482C32.7651 37.8609 27.2009 37.197 22.3007 38.7461Z" fill="#284F4E"/>
<path d="M10.5081 64.2273C11.5514 68.7165 14.0173 72.7948 17.4949 75.8298C21.1938 77.3157 25.3037 77.4738 29.0975 76.2408C39.4355 72.9845 45.4739 60.8761 42.5653 49.1787C41.522 45.0372 39.1825 41.3067 35.8946 38.6194C31.4686 36.7542 26.5051 36.3748 21.9842 37.7975C11.6778 41.0538 7.63116 52.5299 10.5081 64.2273Z" fill="#FFFACF"/>
<path d="M29.2243 81.2678C26.0944 81.2678 22.9646 80.4458 20.1193 78.8334C14.9661 75.9249 11.1091 70.6769 9.55998 64.4172C8.07409 58.4104 8.35862 52.372 10.382 47.4401C12.5318 42.1289 16.452 38.4616 21.6684 36.8176C27.1061 35.1104 33.2393 35.8376 38.5506 38.7777C43.7986 41.7179 47.4659 46.4601 48.8886 52.1507C51.8919 64.3223 45.5374 76.9682 34.7252 80.3826C32.9232 80.9832 31.0579 81.2678 29.2243 81.2678ZM22.3007 38.7461C13.006 41.6863 8.57992 52.0559 11.5201 63.9746C12.9427 69.6968 16.4203 74.4706 21.0993 77.1263C25.146 79.4025 29.7933 79.9083 34.1561 78.5173C43.9883 75.4191 49.7105 63.8165 46.9601 52.6565C45.6955 47.535 42.3759 43.2354 37.6021 40.5482C32.7651 37.8609 27.2009 37.197 22.3007 38.7461Z" fill="#284F4E"/>
<g opacity="0.95">
<path opacity="0.95" d="M21.7942 58.5997C25.3667 75.0393 25.5564 91.8583 22.4581 106.812C21.6678 110.669 19.2651 113.799 15.7558 113.799H12.7208C11.6143 113.799 10.7923 114.905 10.9504 116.107V116.17C11.0453 117.055 11.804 117.751 12.6892 117.782H44.1774C45.4736 117.782 46.5168 116.613 46.5168 115.158C46.5168 113.609 45.4103 112.345 44.0193 112.345C42.2805 112.345 40.9843 110.922 40.4468 109.057C36.6531 95.9366 36.6531 70.3287 39.1506 46.2068L20.8142 55.9757L21.7942 58.5997Z" fill="#3378FF"/>
<path opacity="0.95" d="M44.209 118.794H12.6577C11.2666 118.731 10.1285 117.688 9.97041 116.297V116.17C9.87556 115.285 10.1285 114.4 10.6975 113.768C11.2034 113.167 11.9621 112.819 12.7209 112.819H15.7559C17.8108 112.819 20.5613 111.207 21.5097 106.591C24.608 91.6057 24.3867 75.1028 20.8458 58.8529L19.6445 55.5018L40.3521 44.4683L40.1624 46.3019C37.4751 72.3207 37.981 96.8221 41.427 108.772C41.7747 110.005 42.6599 111.365 44.051 111.365C45.9795 111.365 47.5286 113.072 47.5286 115.159C47.5286 117.182 46.0427 118.794 44.209 118.794ZM12.7209 116.834H44.209C44.9678 116.834 45.5685 116.075 45.5685 115.19C45.5685 114.178 44.8729 113.357 44.051 113.357C41.996 113.357 40.2572 111.839 39.5617 109.373C36.0841 97.2963 35.515 73.9015 38.0442 47.9775L22.0788 56.4818L22.7743 58.4419C26.3784 75.008 26.5997 91.7953 23.4382 107.065C22.4582 111.776 19.4548 114.842 15.7559 114.842H12.7209C12.468 114.842 12.2783 115 12.1834 115.127C11.9621 115.38 11.8673 115.728 11.9305 116.044V116.17C11.9937 116.518 12.3415 116.803 12.7209 116.834Z" fill="#2557B8"/>
</g>
<path d="M10.7925 65.1759C10.8557 65.4289 10.9505 65.6818 11.0138 65.9347L11.0454 66.0612C11.1402 66.3141 11.2035 66.567 11.2983 66.8199V66.8515C11.3931 67.1044 11.488 67.3574 11.5828 67.6103L11.6461 67.7367C11.7409 67.9896 11.8674 68.2109 11.9622 68.4639L11.9938 68.5587C12.057 68.6852 12.1203 68.8432 12.1835 68.9697C20.0872 56.7032 31.0574 49.1157 45.1892 46.3336C45.1259 44.6581 48.2874 54.1424 47.8448 52.4353C46.2008 45.7962 41.3954 40.9275 35.6416 38.5564L35.3886 38.4616L35.1673 38.3668L34.946 38.2719L34.7247 38.1771L34.5034 38.1138L34.2821 38.0506L34.0608 37.9874L33.8395 37.9241L33.5866 37.8609L33.3653 37.7977L33.1124 37.7345L32.8911 37.6712L32.4801 37.5764L32.2588 37.5132L31.9743 37.4499L31.753 37.4183L31.5 37.3551L31.2787 37.3235L31.0258 37.2919L30.8045 37.2602L30.5516 37.2286L30.3303 37.197L30.0774 37.1654L29.8561 37.1338L29.5715 37.1022L29.3819 37.0706L28.9076 37.0389H28.7812L28.4334 37.0073H28.2437H27.9592H27.2953H27.0108H26.7895H26.5049H26.3152L25.9991 37.0389H25.9042L25.43 37.1022H25.3668H24.9558H24.7977L24.4816 37.1654L24.2919 37.197L24.0074 37.2602L23.8177 37.2919L23.5332 37.3551L23.3751 37.4183L23.0905 37.4815L22.9009 37.5448L22.5847 37.6396L22.4266 37.6712L21.984 37.7977H21.9524C15.1869 39.9475 11.1086 45.6065 9.93887 52.5617V52.5933C9.33819 56.4819 9.52788 60.4338 10.4763 64.2275C10.5395 64.512 10.6028 64.765 10.6976 65.0179L10.7925 65.1759Z" fill="#20BAB5"/>
<path d="M12.1202 70.9299L11.3615 69.3808C11.2983 69.2227 11.2034 69.0962 11.1402 68.9382L11.1086 68.8433C10.9821 68.5904 10.8873 68.3375 10.7924 68.0846L10.7292 67.9581C10.6344 67.7052 10.5079 67.4523 10.4131 67.1677L10.3498 66.978C10.2866 66.7884 10.1918 66.5671 10.1285 66.3458L10.0969 66.2193C10.0021 65.9664 9.93883 65.7135 9.84399 65.4289L9.81238 65.3025C9.71753 65.0179 9.6543 64.7334 9.59107 64.4489C8.57941 60.5287 8.38972 56.5136 9.02201 52.4986V52.3721C10.3182 44.6265 14.9656 38.9675 21.6995 36.8493L22.3318 36.6596L23.1221 36.4383L23.217 36.3751L24.2919 36.1538L25.3668 36.0273L26.3784 35.9641H28.5282L30.2354 36.0906L31.7213 36.3119L32.7646 36.5332L34.5982 37.0706L35.768 37.5132L36.0209 37.6081C40.0043 39.252 43.2923 41.876 45.6001 45.164C46.106 45.3853 46.4221 46.0808 46.8331 47.1557C47.6867 48.7048 48.3506 50.3804 48.7932 52.1508C49.0461 53.1625 48.3822 53.447 48.1609 53.5102C47.2757 53.7948 46.9279 52.9412 46.7382 52.4037C46.6118 52.0559 46.4221 51.5817 46.2324 51.0443C45.9479 50.2539 45.4737 48.9577 45.0627 47.9777C44.9362 47.7564 44.8098 47.5667 44.6833 47.3454C31.2471 50.1591 20.593 57.5885 12.9738 69.4124L12.1202 70.9299ZM12.3099 66.6619C12.3415 66.7567 12.3732 66.8516 12.4048 66.9148C20.0871 55.7232 30.5516 48.5783 43.5768 45.6382C41.4902 42.9509 38.6765 40.8011 35.3254 39.4417L33.9976 38.9675L32.6697 38.5881L31.5948 38.3352L30.2354 38.1139L29.3186 38.0191L28.2753 37.9558H26.3784L25.3668 38.0191L23.786 38.272L23.6912 38.3352L22.6795 38.5881L22.1105 38.7462C16.1985 40.6747 12.1202 45.733 10.9189 52.625V52.7199C10.3182 56.482 10.5079 60.2757 11.4563 63.943C11.5196 64.2276 11.5828 64.4805 11.6776 64.7334L11.7093 64.8599C11.7725 65.1128 11.8673 65.3341 11.9306 65.587L11.9622 65.7135C12.0254 65.9664 12.1202 66.1877 12.2151 66.409L12.3099 66.6619Z" fill="#284F4E"/>
<path d="M17.9063 62.1088C14.9029 55.4382 14.7765 43.6775 28.4972 36.9436C20.4987 38.0501 11.7415 43.5511 9.93945 52.5928L11.5834 67.6098L17.9063 62.1088Z" fill="#23CBC5"/>
<path d="M12.1519 70.993L11.3615 69.4123C11.2983 69.2542 11.2034 69.1277 11.1402 68.9697L11.1086 68.8748C10.9821 68.6219 10.8873 68.369 10.7924 68.1161L10.7292 67.9896C10.6344 67.7367 10.5079 67.4838 10.4131 67.1992L10.3498 67.0096C10.2866 66.8199 10.1918 66.5986 10.1285 66.3773L10.0969 66.2508C10.0021 65.9979 9.93883 65.745 9.84399 65.4604L9.81238 65.334C9.71753 65.0494 9.6543 64.7649 9.59107 64.4804C8.57941 60.5602 8.38972 56.5451 9.02201 52.5301V52.4036C10.3182 44.658 14.9656 38.999 21.6995 36.8808L22.3318 36.6911L23.1221 36.4698L23.217 36.4066L24.2919 36.1853L25.3668 36.0588L26.3784 35.9956H28.5282L30.2354 36.1221L31.7213 36.3434L32.7646 36.5647L34.5982 37.1021L35.768 37.5447L36.0209 37.6396C40.0043 39.2835 43.2923 41.9075 45.6001 45.1955C46.106 45.4168 46.4221 46.1123 46.8331 47.1872C47.6867 48.7363 48.3506 50.4119 48.7932 52.1823C49.0461 53.194 48.3822 53.4785 48.1609 53.5417C47.2757 53.8263 46.9279 52.9727 46.7382 52.4352C46.6118 52.0874 46.4221 51.6132 46.2324 51.0758C45.9479 50.2854 45.4737 48.9892 45.0627 48.0092C44.9362 47.7879 44.8414 47.5982 44.7149 47.4085C30.5516 50.6964 19.8974 58.1258 13.0055 69.4439L12.1519 70.993ZM12.3099 66.6618C12.3415 66.725 12.3732 66.8199 12.4048 66.8831C19.4548 56.1657 29.9509 49.0524 43.6084 45.7013C41.5218 43.0141 38.7081 40.8643 35.3254 39.4732L33.9976 38.999L32.6697 38.6196L31.5948 38.3667L30.2354 38.1454L29.3186 38.0506L28.2753 37.9873H26.3784L25.3668 38.0506L23.786 38.3035L23.6912 38.3351L22.6795 38.588L22.1105 38.7461C16.1985 40.6746 12.1202 45.7329 10.9189 52.6249V52.7197C10.3182 56.4819 10.5079 60.2756 11.4563 63.9429C11.5196 64.2275 11.5828 64.4804 11.6776 64.7333L11.7093 64.8598C11.7725 65.1127 11.8673 65.334 11.9306 65.5869L11.9622 65.7134C12.0254 65.9663 12.1202 66.1876 12.2151 66.4089L12.3099 66.6618Z" fill="#284F4E"/>
<path d="M61.9453 78.7073C63.9054 76.0833 66.403 74.3761 70.2916 73.2379C68.616 72.4792 66.7824 72.5108 64.348 73.9967C62.4828 75.2929 61.9137 76.8736 61.9453 78.7073Z" fill="#20BAB5"/>
<path d="M61.534 78.9598C61.5024 78.9598 61.4708 78.9598 61.4392 78.9598C61.0914 78.8966 60.8385 78.5805 60.8701 78.2327C61.5656 73.4273 64.7271 71.3091 70.3545 71.9414C70.7022 71.973 70.9868 72.2891 70.9235 72.6685C70.8919 73.0163 70.5758 73.2692 70.1964 73.2376C65.2961 72.7001 62.7354 74.3441 62.1663 78.4224C62.1031 78.7069 61.8501 78.9598 61.534 78.9598Z" fill="#284F4E"/>
<path d="M65.8969 78.0429C66.1182 78.5487 66.0866 79.0862 65.802 79.2759C65.5175 79.4656 65.1065 79.1494 64.8852 78.6436C64.6639 78.1378 64.6955 77.6003 64.9801 77.4106C65.2646 77.2209 65.6756 77.5371 65.8969 78.0429Z" fill="#284F4E"/>
<path d="M68.7738 76.5571C68.9951 77.0629 68.9635 77.6004 68.679 77.79C68.3945 77.9797 67.9835 77.6636 67.7622 77.1577C67.5409 76.6519 67.5725 76.1145 67.857 75.9248C68.1415 75.7351 68.5209 76.0512 68.7738 76.5571Z" fill="#284F4E"/>
<path d="M90.9039 40.169C90.9039 48.8946 84.6442 55.9763 76.9303 55.9763C69.2163 55.9763 61.9766 49.9695 61.9766 41.2439C61.9766 32.5183 69.2163 24.3933 76.9303 24.3933C84.6442 24.3933 90.9039 31.475 90.9039 40.169Z" fill="#FFFACF"/>
<path d="M76.962 57.1459C72.8837 57.1459 68.8054 55.5335 65.802 52.7514C62.6089 49.7797 60.8701 45.7014 60.8701 41.2753C60.8701 36.8493 62.6405 32.2968 65.7388 28.8192C68.8686 25.31 72.9469 23.2866 76.962 23.2866C85.2766 23.2866 92.0737 30.8741 92.0737 40.2004C92.0421 49.5268 85.2766 57.1459 76.962 57.1459ZM76.962 25.5313C69.8487 25.5313 63.1464 33.182 63.1464 41.2437C63.1464 45.0059 64.6323 48.5151 67.3827 51.0443C69.9435 53.447 73.4527 54.838 76.962 54.838C84.0436 54.838 89.7659 48.2622 89.7659 40.1688C89.7659 32.1071 84.012 25.5313 76.962 25.5313Z" fill="#284F4E"/>
<path d="M68.2683 28.4397C62.7673 42.7295 66.4979 51.6765 80.4715 54.7431C74.3383 56.6083 68.9322 54.7115 64.2848 49.1157C60.1117 39.8842 62.3247 33.34 68.2683 28.4397Z" fill="#E3E1D6"/>
<path d="M76.962 57.1459C72.8837 57.1459 68.8054 55.5335 65.802 52.7514C62.6089 49.7797 60.8701 45.7014 60.8701 41.2753C60.8701 36.8493 62.6405 32.2968 65.7388 28.8192C68.8686 25.31 72.9469 23.2866 76.962 23.2866C85.2766 23.2866 92.0737 30.8741 92.0737 40.2004C92.0421 49.5268 85.2766 57.1459 76.962 57.1459ZM76.962 25.5313C69.8487 25.5313 63.1464 33.182 63.1464 41.2437C63.1464 45.0059 64.6323 48.5151 67.3827 51.0443C69.9435 53.447 73.4527 54.838 76.962 54.838C84.0436 54.838 89.7659 48.2622 89.7659 40.1688C89.7659 32.1071 84.012 25.5313 76.962 25.5313Z" fill="#284F4E"/>
<g opacity="0.95">
<path opacity="0.95" d="M67.4776 36.0904C70.3862 56.0393 71.1765 95.1465 68.268 106.623C67.2879 110.416 67.1615 113.831 64.1897 113.831H61.6289C60.7121 113.831 59.985 114.937 60.143 116.139V116.202C60.2695 117.15 60.9018 117.814 61.6289 117.814H88.3116C89.4182 117.814 90.2718 116.644 90.2718 115.19C90.2718 113.641 89.3233 112.377 88.1536 112.377C86.6993 112.377 85.656 110.954 85.1502 109.089C81.2616 94.9885 83.0952 61.6034 85.8457 38.5564L66.6873 33.4348L67.4776 36.0904Z" fill="#3378FF"/>
<path opacity="0.95" d="M88.2798 118.794H61.6287C60.3957 118.794 59.3524 117.751 59.1627 116.328V116.202C59.0679 115.253 59.3524 114.305 59.9215 113.673C60.3957 113.167 60.9964 112.882 61.6287 112.882H64.1895C65.707 112.882 66.118 111.649 66.8451 108.361C66.9716 107.729 67.1296 107.065 67.2877 106.401C69.7853 96.6006 69.8485 59.4851 66.4973 36.3116L65.2328 32.0752L86.8888 37.8291L86.7939 38.6827C82.6208 73.7749 83.4428 99.193 86.0668 108.804C86.4145 110.037 87.1417 111.365 88.1533 111.365C89.8921 111.365 91.2516 113.04 91.2516 115.158C91.2516 117.213 89.9554 118.794 88.2798 118.794ZM61.1229 116.138C61.1861 116.613 61.4706 116.866 61.6287 116.866H88.3114C88.7856 116.866 89.2915 116.17 89.2915 115.222C89.2915 114.147 88.6908 113.388 88.1533 113.388C86.3513 113.388 84.897 111.902 84.2015 109.373C81.9569 101.216 81.7988 87.3692 82.0201 77.1576C82.3046 65.5551 83.2847 51.8027 84.739 39.2833L68.1097 34.8573L68.4258 35.9638C71.2711 55.6597 72.2196 95.0515 69.1846 106.875C69.0265 107.508 68.8684 108.172 68.742 108.772C68.0781 111.744 67.4142 114.842 64.1579 114.842H61.6287C61.5338 114.842 61.439 114.937 61.3758 115C61.2177 115.19 61.028 115.569 61.0912 116.075L61.1229 116.138Z" fill="#2557B8"/>
</g>
<path d="M90.2084 45.1324C90.6826 43.52 90.9039 41.8445 90.9039 40.1689C90.9039 31.4432 84.6442 24.3616 76.9303 24.3616C69.2163 24.3616 61.9766 32.5181 61.9766 41.2122C61.9766 42.5716 62.2611 35.5215 62.6089 36.7229C73.832 34.2253 83.0319 37.0074 90.2084 45.1324Z" fill="#20BAB5"/>
<path d="M90.6512 47.1239L89.4815 45.7961C82.6211 38.0505 74.0852 35.3633 63.431 37.6079C63.3362 37.9241 63.273 38.2718 63.2097 38.6196C63.1465 39.3467 63.0833 40.1371 63.0517 40.5797C62.9884 41.6546 62.9252 42.445 61.9768 42.4133C61.8187 42.4133 61.0283 42.3185 61.0283 41.2436C61.0283 40.2952 61.1232 39.3151 61.2812 38.3667C61.2812 38.2086 61.3128 38.0821 61.3128 37.9557C61.4077 37.0389 61.4709 36.2801 61.8819 35.9007C62.6723 33.3716 64.0633 30.9372 65.8654 28.8823C68.9636 25.4047 73.0103 23.3813 76.9621 23.3813C85.2135 23.3813 91.9158 30.9056 91.9158 40.1687C91.9158 41.9391 91.6629 43.7095 91.1887 45.3851L90.6512 47.1239ZM70.2598 34.8891C77.7524 34.8891 84.2651 37.6395 89.6712 43.1405C89.8292 42.1604 89.9241 41.1804 89.9241 40.2003C89.9241 32.0121 84.107 25.3731 76.9305 25.3731C71.4928 25.3731 66.2763 29.7991 64.0633 35.4897C66.2131 35.0788 68.2681 34.8891 70.2598 34.8891Z" fill="#284F4E"/>
<path d="M66.7187 36.3753C67.2245 32.55 69.4375 26.9858 77.9735 25.3102C71.3344 24.3934 65.8967 30.0208 63.0198 35.4269L62.9565 37.387L66.7187 36.3753Z" fill="#23CBC5"/>
<path d="M90.6512 47.1239L89.4815 45.7961C82.6211 38.0505 74.0852 35.3633 63.431 37.6079C63.3362 37.9241 63.273 38.2718 63.2097 38.6196C63.1465 39.3467 63.0833 40.1371 63.0517 40.5797C62.9884 41.6546 62.9252 42.445 61.9768 42.4133C61.8187 42.4133 61.0283 42.3185 61.0283 41.2436C61.0283 40.2952 61.1232 39.3151 61.2812 38.3667C61.2812 38.2086 61.3128 38.0821 61.3128 37.9557C61.4077 37.0389 61.4709 36.2801 61.8819 35.9007C62.6723 33.3716 64.0633 30.9372 65.8654 28.8823C68.9636 25.4047 73.0103 23.3813 76.9621 23.3813C85.2135 23.3813 91.9158 30.9056 91.9158 40.1687C91.9158 41.9391 91.6629 43.7095 91.1887 45.3851L90.6512 47.1239ZM70.2598 34.8891C77.7524 34.8891 84.2651 37.6395 89.6712 43.1405C89.8292 42.1604 89.9241 41.1804 89.9241 40.2003C89.9241 32.0121 84.107 25.3731 76.9305 25.3731C71.4928 25.3731 66.2763 29.7991 64.0633 35.4897C66.2131 35.0788 68.2681 34.8891 70.2598 34.8891Z" fill="#284F4E"/>
<path d="M91.1569 45.4167L89.26 44.8793C89.7027 43.3618 89.924 41.7811 89.924 40.2003C89.924 32.0121 84.1069 25.3731 76.9303 25.3731C70.5442 25.3731 64.4426 31.5063 63.178 38.6196C63.1148 39.3467 63.0515 40.1371 63.0199 40.5797C62.9567 41.6546 62.8935 42.445 61.945 42.4133C61.7869 42.4133 60.9966 42.3185 60.9966 41.2436C60.9966 40.2952 61.0914 39.3151 61.2495 38.3667C61.2495 38.2086 61.2811 38.0821 61.2811 37.9557C61.376 37.0389 61.4392 36.2801 61.8502 35.9007C62.6405 33.3716 64.0316 30.9372 65.8336 28.8823C68.9319 25.4047 72.9785 23.3813 76.9303 23.3813C85.1818 23.3813 91.8841 30.9056 91.8841 40.1687C91.8841 41.9391 91.6311 43.7095 91.1569 45.4167Z" fill="#284F4E"/>
<path d="M15.8506 35.8692C14.7757 35.8692 13.6692 35.6163 12.6259 35.0788C12.1517 34.8259 11.962 34.2568 12.1833 33.751C12.4362 33.2768 13.0053 33.0871 13.5111 33.3084C14.9338 34.0355 16.3881 34.0988 17.7159 33.4981C19.6127 32.6445 21.067 30.5579 21.8258 27.5861C21.9522 27.0487 22.4897 26.7642 23.0271 26.8906C23.5646 27.0171 23.8491 27.5545 23.7226 28.092C22.8058 31.6328 20.9406 34.1936 18.5062 35.3001C17.6843 35.6795 16.7674 35.8692 15.8506 35.8692Z" fill="#093332"/>
<path d="M86.2883 22.4328C84.992 22.4328 83.9804 22.0218 83.2532 21.5792C80.977 20.125 79.5859 16.9319 79.5859 12.9801C79.5859 12.4426 80.0285 12 80.566 12C81.1034 12 81.5461 12.4426 81.5461 12.9801C81.5461 16.2364 82.5577 18.8288 84.2965 19.9353C85.5295 20.7256 87.047 20.694 88.8174 19.8404C89.2916 19.6191 89.8923 19.8088 90.1136 20.3146C90.3349 20.7889 90.1452 21.3895 89.6394 21.6108C88.4064 22.2115 87.2683 22.4328 86.2883 22.4328Z" fill="#093332"/>
<path d="M48.4459 34.8576C48.3511 35.395 48.3511 35.9325 48.4143 36.4699C48.4775 37.0074 48.604 37.5448 48.7621 38.0506C48.9201 38.5565 49.1414 39.0307 49.3943 39.5049C49.6157 39.9159 49.9318 40.2953 50.3112 40.5798C50.7222 40.8643 50.7854 41.4334 50.5009 41.8444C50.2163 42.2554 49.6473 42.3186 49.2363 42.0341C49.2047 42.0025 49.173 41.9709 49.1414 41.9392L49.1098 41.9076C48.6356 41.4018 48.2562 40.8327 48.0033 40.1688C47.7504 39.5998 47.5923 38.9675 47.4975 38.3668C47.4026 37.7661 47.3394 37.1338 47.371 36.5331C47.371 35.9008 47.4659 35.3002 47.6556 34.6995C47.7188 34.4782 47.9717 34.3517 48.193 34.415C48.3511 34.4782 48.4775 34.6679 48.4459 34.8576Z" fill="#093332"/>
<path d="M53.1245 34.1616C52.8084 34.7307 52.6503 35.3946 52.6503 36.0269C52.6503 36.343 52.6503 36.6591 52.7135 36.9753C52.7452 37.2598 52.84 37.5127 52.9981 37.7657C53.251 38.1767 53.1245 38.7457 52.7135 38.9986C52.3025 39.2515 51.7335 39.1251 51.4806 38.7141C51.449 38.6825 51.449 38.6193 51.4173 38.5876L51.3857 38.5244C51.2277 38.0818 51.1328 37.6076 51.1328 37.1334C51.1328 36.6908 51.1644 36.2798 51.2593 35.8372C51.3541 35.4262 51.4806 35.0152 51.6386 34.6358C51.7967 34.2248 52.018 33.8454 52.3025 33.4977C52.4922 33.2764 52.8084 33.2132 53.0613 33.4028C53.2826 33.5609 53.3458 33.8771 53.1878 34.0984L53.1245 34.1616Z" fill="#093332"/>
<path d="M57.2345 35.7425C56.6022 36.1219 56.2228 36.8174 56.286 37.5446C56.3493 38.0504 55.9699 38.493 55.4641 38.5562C54.9582 38.6195 54.5156 38.2401 54.4524 37.7342C54.4524 37.6078 54.4524 37.5129 54.484 37.3865L54.5156 37.2916C54.6737 36.691 54.9898 36.1851 55.4324 35.7425C55.8434 35.3315 56.3493 35.047 56.9183 34.9205C57.1712 34.8573 57.3926 35.0154 57.4558 35.2367C57.519 35.4264 57.4242 35.6161 57.2345 35.7425Z" fill="#093332"/>
<path d="M49.1411 105.073C49.1727 106.686 49.5205 108.267 50.2476 109.689C50.5322 110.353 51.1961 110.733 51.8916 110.638C52.9981 110.448 54.073 110.037 55.0214 109.436C55.7802 108.93 56.0647 107.982 55.7802 107.128C55.2427 105.579 54.4208 104.125 53.3459 102.86C52.9665 102.355 52.271 102.165 51.6703 102.355C50.9115 102.639 50.216 103.082 49.6786 103.651C49.3308 104.03 49.1411 104.536 49.1411 105.073Z" fill="#FFF3CF"/>
<path d="M51.7018 111.238C50.8482 111.238 50.0579 110.733 49.7101 109.942C48.983 108.456 48.572 106.781 48.572 105.105C48.5404 104.441 48.7933 103.777 49.2675 103.303C49.8682 102.639 50.6585 102.165 51.4805 101.849C52.3341 101.564 53.2509 101.849 53.7884 102.544C54.8949 103.841 55.7485 105.358 56.3176 106.97C56.7286 108.077 56.3176 109.278 55.3691 109.942C54.3258 110.606 53.2193 111.049 52.018 111.238C51.8915 111.207 51.7967 111.238 51.7018 111.238ZM52.1444 102.86C52.0496 102.86 51.9547 102.86 51.8599 102.924C51.196 103.145 50.5953 103.556 50.0895 104.062C49.8366 104.346 49.7101 104.694 49.7101 105.073C49.7417 106.591 50.0895 108.108 50.7534 109.436C50.9431 109.879 51.3857 110.132 51.8283 110.069C52.84 109.911 53.82 109.531 54.7052 108.962C55.2111 108.614 55.4324 107.919 55.2111 107.318C54.6736 105.801 53.8832 104.441 52.8716 103.208C52.7135 102.987 52.429 102.86 52.1444 102.86Z" fill="#331805"/>
<path d="M100.8 75.4506C101.938 76.4306 103.234 77.1578 104.657 77.632C105.542 77.9165 106.49 77.4423 106.838 76.5887C107.217 75.7035 107.47 74.7234 107.565 73.775C107.692 72.8582 107.217 71.973 106.395 71.562C105.068 70.9613 103.613 70.6135 102.159 70.5503C101.274 70.5503 100.515 71.151 100.325 72.0046C100.167 72.5736 100.072 73.1743 100.072 73.775C100.041 74.3757 100.325 75.008 100.8 75.4506Z" fill="#FFF3CF"/>
<path d="M105.194 78.2959C104.972 78.2959 104.719 78.2642 104.498 78.201C102.981 77.7268 101.621 76.9364 100.452 75.9248C99.8508 75.3557 99.5031 74.5653 99.5347 73.7433C99.5663 73.1111 99.6612 72.4788 99.8192 71.8781C100.072 70.8032 101.052 69.9812 102.19 69.9812C103.771 70.076 105.257 70.4238 106.648 71.0561C107.723 71.5935 108.324 72.7001 108.134 73.8698C108.039 74.8815 107.754 75.8931 107.375 76.8416C106.996 77.6952 106.142 78.2959 105.194 78.2959ZM101.179 75.0395C102.254 75.9564 103.487 76.6519 104.846 77.0945C105.447 77.2842 106.079 76.968 106.3 76.3674C106.68 75.4822 106.901 74.5969 106.996 73.6801C107.091 72.9846 106.743 72.3523 106.142 72.0362C104.878 71.4671 103.518 71.1509 102.127 71.0877C101.558 71.0877 101.021 71.4987 100.894 72.0994C100.736 72.6684 100.673 73.2059 100.641 73.7433C100.641 74.2492 100.831 74.6918 101.179 75.0395Z" fill="#331805"/>
<path d="M20.3083 110.101C20.087 110.101 19.8341 109.974 19.7076 109.753C19.6128 109.595 17.3681 105.738 19.2334 102.07C19.3915 101.723 19.8341 101.596 20.1502 101.754C20.498 101.912 20.6245 102.355 20.4664 102.671C18.9489 105.643 20.8774 108.994 20.909 109.026C21.0987 109.342 21.0038 109.784 20.6561 109.974C20.5612 110.069 20.4348 110.101 20.3083 110.101Z" fill="#284F4E"/>
<path d="M47.0861 107.919C46.8648 107.919 46.6119 107.792 46.4855 107.571C46.3906 107.413 44.146 103.524 46.0112 99.8886C46.1693 99.5408 46.6119 99.4143 46.9281 99.5724C47.2758 99.7305 47.4023 100.173 47.2442 100.489C45.7267 103.461 47.6552 106.812 47.6868 106.844C47.8765 107.16 47.7817 107.603 47.4339 107.792C47.339 107.887 47.2126 107.919 47.0861 107.919Z" fill="#284F4E"/>
<path d="M90.177 85.2513C90.1138 85.2513 90.0189 85.2513 89.9557 85.2197C89.6079 85.0932 89.3866 84.7138 89.5131 84.3345C89.5447 84.208 90.3667 81.5208 87.8691 80.0981C87.553 79.9084 87.4265 79.4974 87.6162 79.1497C87.8059 78.8335 88.2169 78.7071 88.5647 78.8967C91.3468 80.5091 91.2519 83.4492 90.8093 84.7771C90.7145 85.0616 90.4615 85.2513 90.177 85.2513Z" fill="#284F4E"/>
<path d="M104.688 70.803C104.625 70.803 104.53 70.803 104.466 70.7714C104.119 70.645 103.897 70.2656 104.024 69.8862C104.055 69.7598 104.877 67.0725 102.38 65.6499C102.064 65.4602 101.937 65.0492 102.127 64.7014C102.317 64.3853 102.728 64.2588 103.075 64.4485C105.857 66.0608 105.763 69.001 105.32 70.3288C105.257 70.645 105.004 70.803 104.688 70.803Z" fill="#284F4E"/>
</svg>
