<svg width="14" height="20" viewBox="0 0 14 20" fill="none" xmlns="http://www.w3.org/2000/svg">
<path d="M8.625 6.16211C8.625 3.25494 7.24184 0.832296 6.11016 0.0195375C6.11016 0.0195375 6.03157 -0.0586124 6.03157 0.0976873C6.03157 5.67758 3.18666 7.13117 1.56773 9.14744C-2.07878 13.8364 1.33197 18.9162 4.727 19.8852C6.676 20.4479 4.31834 18.9162 4.00398 15.8527C3.68963 12.1328 8.625 9.31937 8.625 6.16211Z" fill="#00BEFF"/>
<path d="M10.4575 8.03453C10.4575 8.03453 10.4575 7.95602 10.4575 8.03453C10.3793 8.67827 9.5657 10.217 8.5957 11.5987C5.29458 16.2933 7.21893 18.4758 8.26716 19.7005C8.90861 20.4227 8.26716 19.7005 9.80038 18.9782C9.87861 18.8997 12.7886 17.4395 13.1015 13.9539C13.3675 10.7037 11.2554 8.59977 10.4575 8.03453Z" fill="#00BEFF"/>
</svg>
