<svg width="96" height="96" viewBox="0 0 96 96" fill="none" xmlns="http://www.w3.org/2000/svg">
<g id="icons/48/Empty">
<path id="Vector" opacity="0.1" d="M1 66.5C1 73.9484 22.0326 80 48 80C73.9676 80 95 73.9484 95 66.5C95 59.0516 73.9674 53 48 53C22.0324 53 1 59.0516 1 66.5H1Z" fill="#707B9F" fill-opacity="0.2"/>
<path id="Vector_2" opacity="0.2" d="M16 63.9999C16 68.9606 30.3197 73 48 73C65.6803 73 80 68.9843 80 63.9999C80 59.0394 65.6803 55 48.0003 55C30.3197 55 16 59.0392 16 63.9999V63.9999Z" fill="#707B9F" fill-opacity="0.5"/>
<path id="Vector_3" d="M23.5 29L48 23V70.0001L23.5 61.0001V29Z" fill="url(#paint0_linear)"/>
<path id="Vector_4" opacity="0.9" d="M48 23L72.5 29L48 35.5V23Z" fill="url(#paint1_linear)"/>
<path id="Vector_5" d="M48 35.5V70L23.5 61L23.5 29L48 35.5Z" fill="#6D7EB1"/>
<path id="Vector_6" d="M48 69.9998L72.5 61.4998V29L48 35.4998V69.9998Z" fill="#576898"/>
<path id="Vector_7" d="M23.4999 29L17 40.5L40.5 47.5L48 35.5L23.4999 29ZM55.5 47.5L79 40L72.5 29L48 35.5L55.5 47.5Z" fill="#4D5E90" fill-opacity="0.75"/>
<path id="Vector_8" opacity="0.6" d="M57 52.5L65.9932 49.5L66 55.5L57 58.5V52.5Z" fill="white"/>
<path id="Vector_9" d="M42.0037 15.9667C42.0037 16.5436 42.4658 17 43.0498 17C43.6338 17 44.0963 16.5436 44.0963 15.9667C44.0963 15.3904 43.6338 14.9337 43.0498 14.9337C42.49 14.9337 42.0037 15.3901 42.0037 15.9667ZM46.9433 15.9667C46.9433 16.5436 47.4055 17 47.9895 17C48.5735 17 49.0359 16.5436 49.0359 15.9667C49.0359 15.3904 48.5735 14.9337 47.9895 14.9337C47.4299 14.9337 46.9433 15.3901 46.9433 15.9667ZM51.8832 15.9667C51.8832 16.5436 52.3454 17 52.9536 17C53.5376 17 54 16.5436 54 15.9667C54 15.3904 53.5376 14.9337 52.9536 14.9337C52.6616 14.9337 52.394 15.0539 52.1994 15.2461C52.0045 15.4382 51.8832 15.7024 51.8832 15.9667Z" fill="#727F96"/>
</g>
<defs>
<linearGradient id="paint0_linear" x1="21.8906" y1="66.971" x2="45.0874" y2="66.971" gradientUnits="userSpaceOnUse">
<stop stop-color="#2F4072"/>
<stop offset="1" stop-color="#4D5E90"/>
</linearGradient>
<linearGradient id="paint1_linear" x1="45.0898" y1="34.9533" x2="72.5339" y2="34.9533" gradientUnits="userSpaceOnUse">
<stop stop-color="#4D5E90"/>
<stop offset="1" stop-color="#2F4072"/>
</linearGradient>
</defs>
</svg>
