<svg width="36" height="37" viewBox="0 0 36 37" fill="none" xmlns="http://www.w3.org/2000/svg">
<g clip-path="url(#clip0)">
<path d="M27.1389 36.2729L17.98 32.4005L8.82111 36.2729V22.1929H27.1389V36.2729Z" fill="#FF5E33"/>
<path d="M4.24585 14.4279C4.24585 19.3329 6.86323 23.8687 11.1129 26.3233C15.363 28.7779 20.5974 28.7779 24.8474 26.3233C29.0971 23.8691 31.7145 19.3371 31.7145 14.4279C31.7148 6.84184 25.5664 0.693359 17.9803 0.693359C10.3943 0.693359 4.24585 6.84184 4.24585 14.4279V14.4279Z" fill="#FFCA28"/>
<path d="M10.628 21.781C12.5779 23.7308 15.2224 24.8262 17.98 24.8261C20.7375 24.8261 23.382 23.7306 25.3318 21.7807C27.2816 19.8309 28.377 17.1863 28.377 14.4288C28.3769 11.6712 27.2815 9.0267 25.3316 7.07688C23.3817 5.12706 20.7371 4.03169 17.9796 4.03174C15.2221 4.03179 12.5775 5.12725 10.6277 7.07714C8.6779 9.02702 7.58253 11.6716 7.58258 14.4291C7.58263 17.1866 8.67809 19.8312 10.628 21.781V21.781Z" fill="#FFB806"/>
<g clip-path="url(#clip1)">
<path d="M12.7295 18.2384C13.2496 17.6174 13.7961 17.0189 14.3674 16.4446C15.0049 15.8014 15.6753 15.1917 16.376 14.6181C16.3844 14.6089 16.3937 14.6006 16.4039 14.5935C16.5699 14.4506 16.7839 14.3761 17.0027 14.3849C17.2216 14.3936 17.4289 14.4851 17.583 14.6407L22.5184 19.6003C22.5646 19.6488 22.628 19.6773 22.695 19.6794C22.762 19.6816 22.8272 19.6573 22.8764 19.6118C22.9872 19.5029 23.0754 19.3731 23.1359 19.2299C23.1963 19.0868 23.2279 18.9331 23.2288 18.7777C23.2297 18.6224 23.1998 18.4683 23.141 18.3245C23.0821 18.1807 22.9954 18.0499 22.8859 17.9397L18.5931 13.6259C18.4608 13.4926 18.3789 13.3251 18.3516 13.1524C18.3277 13.0148 18.3372 12.8735 18.3793 12.7403C18.4213 12.6071 18.4946 12.486 18.5931 12.3869L19.9591 11.0151C20.0821 10.8914 20.1512 10.724 20.1512 10.5495C20.1512 10.375 20.0821 10.2076 19.9591 10.0838L19.2503 9.37141C19.1305 9.25138 18.9688 9.18238 18.7992 9.17885C18.6297 9.17533 18.4653 9.23756 18.3405 9.35251C18.0665 9.60136 18.0875 9.56723 17.8208 9.83497C15.2379 12.4305 13.4996 15.4182 12.7295 18.2384Z" fill="#FFF8E1"/>
</g>
</g>
<defs>
<clipPath id="clip0">
<rect width="36" height="36" fill="white" transform="translate(0 0.5)"/>
</clipPath>
<clipPath id="clip1">
<rect width="10.5" height="10.5" fill="white" transform="translate(12.7292 9.17896)"/>
</clipPath>
</defs>
</svg>
