<svg xmlns="http://www.w3.org/2000/svg" xmlns:xlink="http://www.w3.org/1999/xlink" viewBox="0 0 22.89 28.96"><defs><style>.cls-1{fill:none;}.cls-2{isolation:isolate;}.cls-3{fill:#00c7d4;}.cls-4{fill:#232c48;}.cls-5{fill:#1dd816;}.cls-17,.cls-5,.cls-6,.cls-7,.cls-8{stroke:#232c48;stroke-miterlimit:10;stroke-width:0.5px;}.cls-6{fill:#f94c41;}.cls-7{fill:#f27200;}.cls-8{fill:#fff;}.cls-9{fill:#db7a00;}.cls-10{fill:url(#未命名的渐变_1854);}.cls-11{fill:#c98800;}.cls-12{clip-path:url(#clip-path);}.cls-13{fill:#f3bb00;}.cls-14{opacity:0.36;}.cls-15{clip-path:url(#clip-path-2);}.cls-16{mix-blend-mode:soft-light;fill:url(#未命名的渐变_1163);}.cls-17{fill:#f0c803;}.cls-18{fill:url(#未命名的渐变_1854-2);}.cls-19{fill:url(#未命名的渐变_40);}.cls-20{fill:url(#未命名的渐变_1854-3);}.cls-21{fill:url(#未命名的渐变_1854-4);}</style><linearGradient id="未命名的渐变_1854" x1="16.5" y1="12" x2="22.56" y2="12" gradientUnits="userSpaceOnUse"><stop offset="0" stop-color="#ffd730"/><stop offset="1" stop-color="#ffce00"/></linearGradient><clipPath id="clip-path"><circle class="cls-1" cx="19.53" cy="12" r="2.43"/></clipPath><clipPath id="clip-path-2"><circle class="cls-1" cx="19.53" cy="12" r="3.03"/></clipPath><linearGradient id="未命名的渐变_1163" x1="247.46" y1="762.32" x2="253.7" y2="762.32" gradientTransform="translate(-696.7 -349.58) rotate(-45)" gradientUnits="userSpaceOnUse"><stop offset="0" stop-color="#fff"/><stop offset="0.12" stop-color="#fff" stop-opacity="0.91"/><stop offset="0.38" stop-color="#fff" stop-opacity="0.67"/><stop offset="0.74" stop-color="#fff" stop-opacity="0.28"/><stop offset="1" stop-color="#fff" stop-opacity="0"/></linearGradient><linearGradient id="未命名的渐变_1854-2" x1="2.14" y1="25.05" x2="8.87" y2="25.05" xlink:href="#未命名的渐变_1854"/><linearGradient id="未命名的渐变_40" x1="9.08" y1="24.96" x2="14.46" y2="24.96" xlink:href="#未命名的渐变_1854"/><linearGradient id="未命名的渐变_1854-3" x1="14.54" y1="25.07" x2="19.75" y2="25.07" xlink:href="#未命名的渐变_1854"/><linearGradient id="未命名的渐变_1854-4" x1="16.23" y1="23.57" x2="19.75" y2="23.57" xlink:href="#未命名的渐变_1854"/></defs><g class="cls-2"><g id="图层_2" data-name="图层 2"><g id="图层_1-2" data-name="图层 1"><path class="cls-3" d="M2.14,14.39a.9.9,0,0,1-.79-.47l-.2-.38A7.65,7.65,0,0,1,4.32,3.19l3-1.6A7.67,7.67,0,0,1,17.67,4.76l.2.38a.89.89,0,0,1-.37,1.21L2.56,14.29a.87.87,0,0,1-.42.1Z"/><path class="cls-4" d="M10.9,1a7.4,7.4,0,0,1,6.55,3.93l.2.38a.64.64,0,0,1-.27.87L2.44,14.07a.63.63,0,0,1-.3.07.64.64,0,0,1-.57-.34l-.2-.38a7.4,7.4,0,0,1,3.06-10l3-1.6A7.42,7.42,0,0,1,10.9,1m0-.5a8,8,0,0,0-3.7.92L4.2,3A7.9,7.9,0,0,0,.93,13.66l.2.38a1.15,1.15,0,0,0,1,.6,1.13,1.13,0,0,0,.54-.13L17.62,6.57a1.07,1.07,0,0,0,.55-.68A1.15,1.15,0,0,0,18.09,5l-.2-.38a7.91,7.91,0,0,0-7-4.19Z"/><rect class="cls-5" x="1.56" y="10.07" width="17.84" height="1.32" rx="0.66" transform="translate(-3.81 6.17) rotate(-27.99)"/><rect class="cls-6" x="2.25" y="11.21" width="17.84" height="1.6" rx="0.8" transform="translate(-4.33 6.65) rotate(-27.99)"/><rect class="cls-7" x="2.09" y="14.61" width="17.84" height="4.03" rx="2.02"/><path class="cls-3" d="M3.72,20.91A1.89,1.89,0,0,1,1.84,19a.63.63,0,0,1,.63-.63H19.54a.63.63,0,0,1,.63.63,1.89,1.89,0,0,1-1.88,1.89Z"/><path class="cls-4" d="M19.54,18.64a.38.38,0,0,1,.38.38,1.64,1.64,0,0,1-1.63,1.64H3.72A1.64,1.64,0,0,1,2.09,19a.38.38,0,0,1,.38-.38H19.54m0-.5H2.47a.88.88,0,0,0-.88.88,2.13,2.13,0,0,0,2.13,2.14H18.29A2.14,2.14,0,0,0,20.42,19a.88.88,0,0,0-.88-.88Z"/><circle class="cls-8" cx="8.29" cy="4.97" r="4.27"/><circle class="cls-4" cx="7.09" cy="5.33" r="0.68"/><circle class="cls-8" cx="15.81" cy="2.98" r="2.73"/><circle class="cls-4" cx="16.83" cy="4.11" r="0.46"/><circle class="cls-9" cx="19.86" cy="12.28" r="3.03"/><circle class="cls-10" cx="19.53" cy="12" r="3.03"/><circle class="cls-11" cx="19.53" cy="12" r="2.43"/><g class="cls-12"><circle class="cls-13" cx="19.69" cy="12.18" r="2.43"/></g><g class="cls-14"><g class="cls-15"><rect class="cls-16" x="15.94" y="11.46" width="7.18" height="1.64" transform="translate(20.4 -10.77) rotate(60)"/><rect class="cls-16" x="15.94" y="11.46" width="7.18" height="1.64" transform="translate(20.4 -10.77) rotate(60)"/></g></g><polygon class="cls-17" points="11.96 14.63 14.11 16.91 16.5 14.61 11.96 14.63"/><polygon class="cls-4" points="15.6 23.15 15.6 24.32 16.93 24.32 16.99 23.14 15.6 23.15"/><polygon class="cls-18" points="2.21 28.66 4.64 28.66 4.52 27.34 4.31 27.2 4.15 24.96 5.41 26.64 6.6 24.82 6.91 26.18 6.72 27.04 6.35 27.35 6.37 28.66 8.79 28.79 8.87 27.37 8.47 27.18 8.38 22.95 8.87 22.7 8.73 21.3 6.77 21.42 5.54 23.61 3.94 21.3 2.21 21.53 2.14 22.61 2.65 23.21 2.7 25.05 2.49 27.21 2.14 27.7 2.21 28.66"/><polygon class="cls-19" points="12.54 23.94 14.26 23.79 14.26 21.97 13.19 21.13 9.7 21.39 9.08 22.23 9.18 27.93 10.06 28.79 13.32 28.79 14.46 27.88 14.31 26.18 12.47 26.03 12.56 27.16 10.81 27.12 10.64 26.73 10.49 24.58 10.64 23.96 10.79 23.3 11.38 22.72 12.7 22.98 12.73 23.44 12.54 23.94"/><polygon class="cls-20" points="14.54 21.35 14.7 22.91 15.02 23 15.02 27.15 14.67 27.28 14.65 28.79 18.9 28.79 19.75 28.02 19.75 25.76 19.08 25.16 18.03 25.97 18.06 27.24 16.59 27.16 16.64 25.94 16.54 23.96 16.52 21.35 14.54 21.35"/><polygon class="cls-21" points="16.23 25.87 19.75 25.76 19.08 25.16 19.75 24.27 19.75 22.06 18.95 21.27 16.36 21.46 16.23 22.82 18.36 22.93 18.27 24.42 16.23 24.26 16.23 25.87"/><path class="cls-4" d="M8.65,23.12V27h.43V29h-3V27h.44V25.37c-.15.25-.29.5-.43.76s-.27.51-.41.77l-.24.44-1-2V27h.44V29h-3V27h.43V23.12H1.92v-2H4.25l1.24,2.14,1.28-2.14H9.08v2Zm-.48,4.37V22.67h.44V21.58H7.06L5.48,24.21,4,21.58H2.39v1.09h.44v4.82H2.39v1h2v-1H4L3.9,23.32l1.58,3,.77-1.53c.25-.51.51-1,.75-1.53l0,4.22H6.6v1h2v-1Z"/><path class="cls-4" d="M14.55,28l-1,.92H9.82l-1-.92v-6l1-.92h3.75l1,.92V24.2h-2.1V23.12H11V27h1.5v-1.1h2.1Zm-.48-1.72H12.93v1.11H10.47V22.67h2.46v1.07h1.14V22.25l-.69-.66H10l-.7.66v5.59l.7.66h3.35l.69-.66Z"/><path class="cls-4" d="M20.09,28l-1,.92H14.36V27h.43V23.12h-.43v-2h4.77l1,.92v2.36L19.3,25l.79.7Zm-.47-2.12-.9-.89.9-.81v-2l-.7-.66H14.83v1.08h.44v4.75h-.44V28.5h4.09l.7-.66Zm-3.21-1.41V22.67h2.07v1.84Zm0,2.91V25.58h2.07v1.84ZM18,24.06v-.94H16.88v.94ZM18,27V26H16.88V27Z"/><polygon class="cls-4" points="16.71 25.88 16.71 27.19 18.19 27.19 18.25 25.87 16.71 25.88"/><polygon class="cls-4" points="16.71 22.92 16.71 24.23 18.19 24.23 18.25 22.91 16.71 22.92"/></g></g></g></svg>