<svg width="80" height="80" viewBox="0 0 80 80" fill="none" xmlns="http://www.w3.org/2000/svg">
<path d="M6.46606 55.6041C1.87264 52.3994 1.87264 45.6005 6.46606 42.3958L26.1774 28.6437C34.4818 22.8499 45.5183 22.8499 53.8228 28.6437L73.5341 42.3958C78.1275 45.6005 78.1275 52.3994 73.5341 55.6041L53.8228 69.3562C45.5183 75.15 34.4818 75.15 26.1774 69.3562L6.46606 55.6041Z" fill="url(#paint0_linear)"/>
<path d="M6.46606 37.6041C1.87264 34.3994 1.87264 27.6005 6.46606 24.3958L26.1774 10.6437C34.4818 4.84989 45.5183 4.84989 53.8228 10.6437L73.5341 24.3958C78.1275 27.6005 78.1275 34.3994 73.5341 37.6041L53.8228 51.3562C45.5183 57.15 34.4818 57.15 26.1774 51.3562L6.46606 37.6041Z" fill="#12182C"/>
<mask id="mask0" mask-type="alpha" maskUnits="userSpaceOnUse" x="3" y="6" width="74" height="50">
<path d="M6.46606 37.6041C1.87264 34.3994 1.87264 27.6005 6.46606 24.3958L26.1774 10.6437C34.4818 4.84989 45.5183 4.84989 53.8228 10.6437L73.5341 24.3958C78.1275 27.6005 78.1275 34.3994 73.5341 37.6041L53.8228 51.3562C45.5183 57.15 34.4818 57.15 26.1774 51.3562L6.46606 37.6041Z" fill="#0A1024"/>
</mask>
<g mask="url(#mask0)">
<g opacity="0.75" filter="url(#filter0_f)">
<path d="M6.46606 55.6041C1.87264 52.3994 1.87264 45.6005 6.46606 42.3958L26.1774 28.6437C34.4818 22.8499 45.5183 22.8499 53.8228 28.6437L73.5341 42.3958C78.1275 45.6005 78.1275 52.3994 73.5341 55.6041L53.8228 69.3562C45.5183 75.15 34.4818 75.15 26.1774 69.3562L6.46606 55.6041Z" fill="url(#paint1_linear)"/>
</g>
</g>
<path fill-rule="evenodd" clip-rule="evenodd" d="M26.7495 11.4638L7.03824 25.2159C3.01525 28.0226 3.01525 33.9773 7.03824 36.784L26.7495 50.5361C34.7102 56.09 45.2899 56.09 53.2506 50.5361L72.9619 36.784C76.9849 33.9773 76.9849 28.0226 72.9619 25.2159L53.2506 11.4638C45.2899 5.90985 34.7102 5.90984 26.7495 11.4638ZM6.46606 24.3958C1.87264 27.6005 1.87264 34.3994 6.46606 37.6041L26.1774 51.3562C34.4818 57.15 45.5183 57.15 53.8228 51.3562L73.5341 37.6041C78.1275 34.3994 78.1275 27.6005 73.5341 24.3958L53.8228 10.6437C45.5183 4.84989 34.4818 4.84989 26.1774 10.6437L6.46606 24.3958Z" fill="url(#paint2_linear)"/>
<path opacity="0.3" d="M30.6123 31C30.6123 32.6569 29.2692 34 27.6123 34C25.9555 34 24.6123 32.6569 24.6123 31C24.6123 29.3431 25.9555 28 27.6123 28C29.2692 28 30.6123 29.3431 30.6123 31Z" fill="white"/>
<path opacity="0.45" d="M42.6123 31C42.6123 32.6569 41.2692 34 39.6123 34C37.9555 34 36.6123 32.6569 36.6123 31C36.6123 29.3431 37.9555 28 39.6123 28C41.2692 28 42.6123 29.3431 42.6123 31Z" fill="white"/>
<path opacity="0.6" d="M54.6123 31C54.6123 32.6569 53.2692 34 51.6123 34C49.9555 34 48.6123 32.6569 48.6123 31C48.6123 29.3431 49.9555 28 51.6123 28C53.2692 28 54.6123 29.3431 54.6123 31Z" fill="white"/>
<defs>
<filter id="filter0_f" x="-8.979" y="12.2983" width="97.9581" height="73.4032" filterUnits="userSpaceOnUse" color-interpolation-filters="sRGB">
<feFlood flood-opacity="0" result="BackgroundImageFix"/>
<feBlend mode="normal" in="SourceGraphic" in2="BackgroundImageFix" result="shape"/>
<feGaussianBlur stdDeviation="6" result="effect1_foregroundBlur"/>
</filter>
<linearGradient id="paint0_linear" x1="3.021" y1="73.7016" x2="76.9791" y2="73.7016" gradientUnits="userSpaceOnUse">
<stop stop-color="#00D8E2"/>
<stop offset="1" stop-color="#27A2F8"/>
</linearGradient>
<linearGradient id="paint1_linear" x1="3.021" y1="73.7016" x2="76.9791" y2="73.7016" gradientUnits="userSpaceOnUse">
<stop stop-color="#00D8E2"/>
<stop offset="1" stop-color="#27A2F8"/>
</linearGradient>
<linearGradient id="paint2_linear" x1="40.0001" y1="6.29834" x2="40.0001" y2="55.7016" gradientUnits="userSpaceOnUse">
<stop stop-color="#242D43"/>
<stop offset="1" stop-color="#242D43" stop-opacity="0"/>
</linearGradient>
</defs>
</svg>
