<svg width="160" height="130" viewBox="0 0 160 130" fill="none" xmlns="http://www.w3.org/2000/svg">
<path d="M34.3474 14.6886C34.8364 14.872 35.3865 14.6275 35.5699 14.1691C38.1678 7.62846 39.8488 6.9255 40.4601 6.9255C40.8879 6.9255 42.0494 7.35339 43.5164 11.1433C43.6998 11.6323 44.2499 11.8768 44.7389 11.6934C45.228 11.51 45.4725 10.9599 45.2891 10.4709V10.4403C43.8832 6.74212 42.3244 5.03056 40.4601 5C38.1984 5 36.1506 7.5979 33.7972 13.4355C33.6138 13.9245 33.8583 14.4747 34.3474 14.6886Z" fill="white"/>
<path d="M82.5767 16.5532C83.0657 16.7672 83.6158 16.5532 83.8298 16.0642C85.144 13.069 87.039 10.8684 88.2615 10.9295C88.995 10.9601 89.7591 12.0604 90.3398 13.9553C90.5538 14.4443 91.1039 14.6583 91.5929 14.4443C91.9902 14.2609 92.2348 13.8331 92.1431 13.4052C91.2873 10.6239 90.0036 9.15684 88.3532 9.06515C85.0829 8.88177 82.5461 14.2304 82.0877 15.3001C81.8737 15.7891 82.0877 16.3393 82.5767 16.5532C82.5461 16.5532 82.5461 16.5532 82.5767 16.5532Z" fill="white"/>
<path d="M42.905 110.017C42.905 110.139 42.905 110.292 42.8745 110.414C42.5077 119.736 51.6462 126.399 60.3568 124.595C73.6214 121.814 85.9384 116.985 96.2995 107.938C102.596 102.437 108.831 94.6737 105.591 86.9411L105.53 86.8188L42.905 110.017Z" fill="#23CBC5"/>
<path d="M57.4533 125.818C53.7551 125.818 50.0875 124.504 47.184 122.028C43.6692 119.063 41.7742 114.815 41.927 110.353V110.292C41.927 110.2 41.927 110.078 41.927 109.986V109.313L106.049 85.5962L106.447 86.5437C109.197 93.1148 105.896 100.756 96.9108 108.611C87.5584 116.802 75.6386 122.303 60.5402 125.482C59.5316 125.696 58.4925 125.818 57.4533 125.818ZM43.822 110.689C43.7608 114.479 45.4113 118.085 48.4065 120.591C51.6768 123.373 56.0779 124.504 60.1735 123.648C74.9356 120.561 86.5498 115.182 95.6883 107.205C101.312 102.314 107.364 95.0709 105.01 88.0107L43.822 110.689Z" fill="#284F4E"/>
<path d="M42.477 106.288C41.8657 107.755 41.8657 109.038 42.9049 110.016C43.5467 110.597 44.3719 110.903 45.2583 110.872C59.776 110.536 98.4083 94.6123 105.56 86.8186C106.141 86.1768 106.324 85.2599 105.988 84.4652C105.774 83.9762 105.407 83.6095 104.918 83.3955L42.477 106.288Z" fill="#008A51"/>
<path d="M45.1055 111.728C44.0969 111.728 43.0883 111.361 42.3242 110.658C41.0711 109.497 40.8572 107.938 41.6824 105.951L41.8352 105.585L42.202 105.462L104.979 82.4175L105.316 82.5703C105.988 82.8759 106.508 83.4261 106.813 84.0985C107.272 85.2293 107.058 86.513 106.233 87.3993C102.106 91.8922 89.2392 98.1271 78.542 102.437C62.0377 109.099 50.5764 111.606 45.3195 111.728C45.1972 111.728 45.1361 111.728 45.1055 111.728ZM43.1189 106.96C42.6299 108.335 43.0578 108.977 43.4551 109.344C43.9135 109.772 44.5248 109.986 45.1666 109.955C51.6767 109.802 64.1772 106.288 77.7779 100.786C90.9814 95.4681 101.617 89.7222 104.827 86.1768C105.193 85.7795 105.285 85.2293 105.102 84.7403C105.041 84.5569 104.918 84.4041 104.766 84.2819L43.1189 106.96Z" fill="#003620"/>
<path d="M40.7047 100.419C40.3379 102.559 40.9797 104.729 42.4468 106.287C42.9358 106.899 43.7305 107.174 44.4945 107.021C65.8584 101.917 90.8288 92.2283 102.993 85.1375C104.674 84.1595 105.133 82.0201 104.185 80.2779C104.093 80.0946 104.368 80.1251 104.063 79.8806L40.7047 100.419Z" fill="#904410"/>
<path d="M44.1277 107.938C43.2414 107.938 42.3856 107.541 41.8049 106.868C40.1544 105.095 39.4209 102.62 39.8488 100.266L39.9405 99.7469L40.4295 99.594L104.216 78.9331L104.582 79.2082C104.98 79.5138 105.071 79.85 105.071 80.0945C106.111 82.234 105.408 84.7096 103.451 85.871C90.3092 93.573 65.0637 103.017 44.739 107.877H44.7084C44.4945 107.907 44.3111 107.938 44.1277 107.938ZM41.4992 101.061C41.3464 102.742 41.9271 104.454 43.0885 105.676L43.1191 105.707C43.4247 106.074 43.8832 106.226 44.3416 106.165C61.7628 102.009 88.292 92.7173 102.565 84.3734C103.727 83.701 104.124 82.2645 103.543 80.9503L41.4992 101.061Z" fill="#331805"/>
<path d="M73.2273 92.7007C90.7142 87.0354 104.519 81.2972 104.061 79.8841C103.603 78.471 89.0563 81.9182 71.5695 87.5835C54.0826 93.2489 40.2779 98.9871 40.7357 100.4C41.1935 101.813 55.7405 98.3661 73.2273 92.7007Z" fill="#AC581F"/>
<path d="M41.8658 101.673C40.3376 101.673 39.9708 101.245 39.7874 100.695C39.4512 99.6249 39.9097 98.4941 49.0176 94.7042C54.8553 92.2591 62.7712 89.4167 71.2373 86.666C79.734 83.9153 87.7722 81.5925 93.946 80.1254C103.543 77.8332 104.582 78.475 104.918 79.5447C105.254 80.6144 104.796 81.7453 95.6881 85.5352C89.8505 87.9802 81.9345 90.8227 73.4684 93.5734C64.9718 96.3241 56.9336 98.6469 50.7597 100.114C46.053 101.245 43.3939 101.673 41.8658 101.673ZM71.8486 88.4998C56.414 93.5122 46.1752 97.7606 42.7827 99.7472C46.6948 99.3499 57.4837 96.8131 72.9183 91.8007C88.3529 86.7883 98.5916 82.5399 101.984 80.5533C98.0721 80.9506 87.2831 83.4874 71.8486 88.4998Z" fill="#331805"/>
<path d="M106.508 42.2263C108.617 34.9522 111.551 32.0793 114.302 31.8347C115.004 31.7736 115.677 32.2626 115.83 32.9656C116.655 36.297 113.201 39.7201 107.639 43.2044" fill="#23CBC5"/>
<path d="M108.189 43.9991L107.18 42.4098L105.622 41.9513C108.158 33.1796 111.734 31.1013 114.271 30.8873C115.463 30.7956 116.533 31.5903 116.808 32.7211C117.908 37.2751 112.407 41.34 108.189 43.9991ZM114.424 32.7823H114.393C112.835 32.9045 109.87 34.3104 107.517 42.1653C113.11 38.5893 115.524 35.6552 114.943 33.1796C114.882 32.9351 114.668 32.7823 114.424 32.7823Z" fill="#284F4E"/>
<path d="M110.909 37.3667C110.756 37.3667 110.634 37.275 110.542 37.1528C110.451 36.9694 110.542 36.7249 110.726 36.6332L112.498 35.7774C112.682 35.6857 112.926 35.7774 113.018 35.9608C113.11 36.1442 113.018 36.3887 112.835 36.4804L111.062 37.3362C111.031 37.3362 110.97 37.3667 110.909 37.3667Z" fill="#284F4E"/>
<path d="M111.459 37.9476C111.428 37.9476 111.428 37.9476 111.398 37.9476C111.184 37.917 111.031 37.7031 111.092 37.4892L111.459 35.4414C111.49 35.2275 111.703 35.0746 111.917 35.1052C112.131 35.1358 112.284 35.3497 112.223 35.5637L111.856 37.6114C111.826 37.8254 111.642 37.9476 111.459 37.9476Z" fill="#284F4E"/>
<path d="M31.0464 87.5216C31.0464 87.5216 44.1276 95.132 62.7713 95.1625C85.4495 95.2236 95.2909 91.556 98.8363 90.578C102.382 89.6 118.244 83.365 118.244 83.365C118.244 83.365 131.937 77.9247 141.931 68.5723C141.931 68.5723 146.301 71.6897 150.275 68.1138C154.248 64.5379 158.71 55.9495 153.209 52.1596C153.209 52.1596 156.662 46.1081 150.427 42.9295C150.427 42.9295 151.742 33.9743 143.459 34.0049C135.176 34.0355 130.042 41.3402 130.042 41.3402C130.042 41.3402 128.238 28.0145 118.458 28.4118C108.678 28.8091 119.833 47.5446 119.833 47.5446C119.833 47.5446 124.479 59.6477 118.397 74.3488C118.397 74.3488 109.717 82.5704 103.115 76.4576C96.5135 70.3449 109.075 58.364 109.075 58.364L97.1553 55.4299L52.8076 74.3488L31.0464 87.5216Z" fill="#AC581F"/>
<path d="M101.495 74.9905C104.063 79.8806 107.761 86.2073 92.9985 91.6476L120.17 82.2646C112.498 83.3649 111.703 79.8806 114.087 78.1385C109.808 80.1251 105.01 79.0554 101.495 74.9905Z" fill="#904410"/>
<path d="M34.561 88.3773C34.561 88.3773 48.5591 95.5598 71.5123 94.215C71.5123 94.215 48.2535 90.2723 46.4502 86.1768L34.561 88.3773Z" fill="#904410"/>
<path d="M108.128 80.3393C105.071 80.3393 102.749 78.5055 101.495 75.0823C99.7839 70.345 101.923 63.9267 106.966 58.7309C107.302 58.3947 107.853 58.3641 108.189 58.7003C108.525 59.0365 108.556 59.5866 108.219 59.9228C103.635 64.6296 101.648 70.345 103.146 74.4711C104.246 77.5274 106.233 78.9028 109.014 78.5055C113.201 77.9248 116.533 75.2657 118.642 70.7729C122.798 61.8789 121.087 48.706 114.363 37.9782C113.415 36.45 113.079 34.6468 113.476 32.8741C113.874 31.1014 114.943 29.6038 116.472 28.6563C116.563 28.5952 116.685 28.5341 116.777 28.473C120.292 26.5169 124.724 27.6783 126.833 31.1014C129.278 35.0441 130.592 38.3755 130.898 41.2485C130.959 41.7375 130.592 42.1654 130.133 42.196C129.644 42.2571 129.217 41.8904 129.186 41.4319C128.911 38.834 127.688 35.7471 125.366 32.0183C123.746 29.3899 120.353 28.5035 117.633 30.0011C117.572 30.0317 117.48 30.0928 117.419 30.1234C116.288 30.8264 115.494 31.9572 115.188 33.2714C114.882 34.5857 115.127 35.9305 115.83 37.0613C123.929 50.0203 123.868 63.7127 120.2 71.537C117.877 76.5188 113.965 79.6058 109.228 80.2476C108.861 80.3393 108.494 80.3393 108.128 80.3393Z" fill="#331805"/>
<path d="M127.658 45.5883C127.475 45.5883 127.291 45.5272 127.138 45.4049C126.741 45.1299 126.68 44.5797 126.955 44.1824C130.164 39.9035 134.229 36.6026 139.394 34.0659C141.473 33.0573 143.918 32.8739 146.088 33.638C148.166 34.3409 149.847 35.808 150.794 37.764C151.528 39.2311 151.773 40.9121 151.436 42.532C151.345 42.9904 150.886 43.296 150.397 43.2044C149.939 43.1127 149.633 42.6542 149.725 42.1652C149.969 40.9427 149.786 39.6284 149.236 38.5281C148.472 37 147.157 35.8385 145.538 35.2884C143.795 34.6771 141.839 34.83 140.158 35.6552C135.268 38.0697 131.387 41.2177 128.361 45.2521C128.177 45.4661 127.933 45.5883 127.658 45.5883Z" fill="#331805"/>
<path d="M153.209 53.0766C152.964 53.0766 152.72 52.9849 152.567 52.7709C152.261 52.4042 152.292 51.854 152.659 51.5484C154.095 50.2953 153.912 47.2695 152.231 44.8244C151.528 43.8158 150.183 43.5408 149.144 44.1826C149.052 44.2437 148.961 44.3048 148.869 44.366C148.472 44.641 147.952 44.5799 147.646 44.1826C147.371 43.7853 147.432 43.2657 147.83 42.9601C147.952 42.8684 148.074 42.7767 148.196 42.685C150.03 41.493 152.445 41.982 153.667 43.7853C155.898 47.025 155.96 50.9066 153.82 52.8015C153.606 52.9849 153.392 53.0766 153.209 53.0766Z" fill="#331805"/>
<path d="M144.926 70.8645C143.856 70.8645 142.787 70.4977 141.809 69.6114C141.442 69.2752 141.442 68.725 141.747 68.3888C142.084 68.0221 142.634 68.0221 142.97 68.3277C144.865 70.1004 147.86 68.8473 152.109 64.5378C153.942 62.704 154.951 60.1673 154.859 57.5694C154.798 56.1634 154.37 54.7575 153.606 53.5655C153.453 53.2905 153.209 53.1377 152.934 53.0765C152.689 53.046 152.414 53.1071 152.2 53.2905C151.833 53.5961 151.283 53.535 150.978 53.1377C150.672 52.7709 150.733 52.2207 151.13 51.9151C151.711 51.4567 152.475 51.2427 153.209 51.365H153.27C154.034 51.5178 154.706 52.0068 155.104 52.6792C155.99 54.1157 156.51 55.7967 156.601 57.5082C156.693 60.5952 155.501 63.5904 153.331 65.7909C151.986 67.1969 148.349 70.8645 144.926 70.8645Z" fill="#331805"/>
<path d="M66.6833 95.4986C52.9603 95.4986 40.2764 92.9619 30.0988 88.0717C29.6709 87.8578 29.4875 87.3382 29.7015 86.9103C29.9154 86.4824 30.435 86.299 30.8629 86.513C46.2669 93.9399 67.6308 95.7737 89.4837 91.5254C112.529 87.0325 133.495 76.427 148.502 61.6037C148.838 61.2675 149.388 61.2675 149.724 61.6037C150.061 61.9399 150.061 62.4901 149.724 62.8263C134.473 77.8635 113.201 88.6524 89.8199 93.2064C81.9651 94.7346 74.1714 95.4986 66.6833 95.4986Z" fill="#331805"/>
<path d="M80.6511 63.4682C80.6205 63.4682 80.6205 63.4682 80.6511 63.4682C79.0618 63.4682 77.6558 62.4596 77.1057 61.0231C77.0446 61.0537 77.014 61.0843 76.9529 61.1148C76.0665 61.6038 75.0579 61.7261 74.0799 61.451C73.1019 61.1759 72.3072 60.5341 71.8182 59.6478C71.3292 58.7614 71.2069 57.7528 71.482 56.7748C71.7571 55.7968 72.3989 55.0021 73.2853 54.5131C73.3158 54.4825 73.3464 54.4825 73.4075 54.452C75.822 53.1683 78.0226 52.4348 80.1315 52.2514C82.76 52.0069 85.1133 53.9324 85.3579 56.5914C85.3579 56.7442 85.3884 56.9276 85.3884 57.0804C85.3579 58.8226 84.8077 60.5036 83.7991 61.9095C83.035 62.8875 81.8736 63.4682 80.6511 63.4682ZM80.6205 62.2151C81.4457 62.2151 82.2098 61.8178 82.6988 61.1454C83.5852 59.9228 84.0436 58.5169 84.0742 57.0193C84.0742 56.8971 84.0742 56.7748 84.0436 56.6525C83.8602 54.6965 82.1181 53.2906 80.1926 53.4739C78.2671 53.6573 76.2194 54.3297 73.9577 55.5523L73.866 55.5828C73.2853 55.919 72.8574 56.4386 72.674 57.111C72.4906 57.7528 72.5517 58.4558 72.8879 59.0365C73.2241 59.6172 73.7437 60.0451 74.4161 60.2285C75.0579 60.4119 75.7609 60.3507 76.3416 60.0145C76.6472 59.8312 76.9529 59.7089 77.2585 59.5561L78.0226 59.1893L78.1449 60.0451C78.2977 61.2676 79.3674 62.2151 80.6205 62.2151Z" fill="#284F4E"/>
<path d="M77.7779 63.4682C76.9833 63.4682 76.2192 63.1931 75.6079 62.6735L74.7521 61.94C73.3156 60.7786 73.1017 58.6391 74.2631 57.2027C75.0578 56.2246 76.3109 55.7662 77.5334 56.0412L78.6643 56.2552C80.4981 56.5914 81.69 58.3641 81.3538 60.1673C81.2927 60.5035 81.1705 60.8091 81.0176 61.0842L80.7426 61.5732C80.1924 62.7652 79.031 63.4682 77.7779 63.4682Z" fill="#284F4D"/>
<path d="M76.6165 94.276C64.3911 94.276 52.074 91.7087 44.7387 87.2159C44.3414 86.9714 44.1886 86.4212 44.4637 86.0239C44.7082 85.6266 45.2583 85.4738 45.6556 85.7488C50.2096 88.5301 57.0864 90.639 65.0329 91.7698C73.3156 92.9312 82.0873 92.809 89.6671 91.4948C90.1561 91.4031 90.584 91.7393 90.6757 92.1977C90.7674 92.6562 90.4312 93.1146 89.9727 93.2063C85.6938 93.9398 81.1704 94.276 76.6165 94.276Z" fill="#331805"/>
<path d="M26.4619 82.6619L26.4925 82.7231C27.6233 86.6352 31.566 88.4384 35.631 88.0106C58.8287 85.5349 89.6061 71.9953 104.857 61.9399C107.15 60.4117 108.647 58.6696 108.342 55.9494C108.28 55.491 108.219 55.002 108.128 54.5129C83.7074 68.2665 56.2613 77.2522 26.4619 82.6619Z" fill="#008A51"/>
<path d="M34.4086 88.9581C30.1603 88.9581 26.7066 86.6658 25.6369 82.9982L25.3618 81.9896L26.3093 81.8062C57.7286 76.0909 84.3494 66.9218 107.669 53.7489L108.709 53.1682L108.953 54.3296C109.045 54.8492 109.136 55.3382 109.198 55.8272C109.595 59.342 107.333 61.3287 105.347 62.6429C91.2568 71.9342 60.357 86.2379 35.7228 88.8664C35.2644 88.9275 34.8365 88.9581 34.4086 88.9581ZM27.6235 83.3344C28.9989 86.3908 32.4831 87.491 35.5395 87.1549C59.868 84.5569 90.4315 70.4366 104.369 61.237C106.783 59.6171 107.7 58.1195 107.455 56.0717C107.455 56.0106 107.455 55.9495 107.425 55.9189C84.4717 68.6639 58.3399 77.6496 27.6235 83.3344Z" fill="#003620"/>
<path d="M19.3405 75.1129C14.0836 73.0957 9.25456 72.2705 5.43412 74.1654C4.11989 74.8072 3.56975 76.366 4.21158 77.6802C4.3644 78.0164 4.60891 78.3221 4.88398 78.5666C7.81808 80.9811 14.2364 79.9419 21.4188 78.1692" fill="#23CBC5"/>
<path d="M10.2326 80.8893C7.7875 80.8893 5.70918 80.4308 4.2727 79.2694C3.87537 78.9332 3.56974 78.5359 3.35579 78.0775C2.9279 77.2217 2.89734 76.2436 3.20298 75.3267C3.50861 74.4098 4.18101 73.7069 5.03679 73.279C8.70441 71.4757 13.3501 71.7814 19.7073 74.1959L19.0349 75.9686C13.2278 73.7374 9.04061 73.4318 5.862 74.9905C5.46468 75.1739 5.12848 75.5407 5.00622 75.938C4.85341 76.3659 4.88397 76.8244 5.06735 77.2217C5.15904 77.4356 5.31186 77.619 5.49524 77.7718C8.21539 80.003 14.9699 78.7193 21.1743 77.1911L21.6328 79.0249C17.5678 80.0641 13.564 80.8893 10.2326 80.8893Z" fill="#284F4E"/>
<path d="M32.1164 84.7098C24.9951 83.5484 19.4936 77.8024 18.6379 70.6506C16.9263 56.8053 22.7639 45.0383 37.4039 35.6859C50.8212 27.067 67.0505 24.0106 82.6684 27.0975C95.1689 29.6037 103.727 35.3191 107.944 44.6104C109.778 48.6448 108.861 53.3822 105.683 56.4385C99.295 62.5818 85.6942 68.8167 69.9846 75.8158C56.4755 81.4395 42.8136 86.4213 32.1164 84.7098Z" fill="#23CBC5"/>
<path d="M36.5785 85.9934C34.9892 85.9934 33.461 85.8712 31.9634 85.6572C24.4754 84.4347 18.6072 78.322 17.6903 70.7728C15.887 56.2551 22.3359 44.1825 36.8841 34.8912C50.5766 26.1195 66.8975 23.002 82.8517 26.1806C95.8106 28.7785 104.552 34.8301 108.831 44.2131C110.817 48.5837 109.839 53.7795 106.355 57.1415C100.028 63.2236 86.886 69.3363 70.3818 76.7021C59.3483 81.2561 46.9701 85.9934 36.5785 85.9934ZM32.2691 83.7623C42.9969 85.4738 57.1783 80.0947 69.6482 74.9294C85.9691 67.6553 98.9586 61.6037 105.071 55.7355C107.975 52.9543 108.8 48.6143 107.119 44.9772C103.115 36.1749 94.8326 30.4595 82.5155 28.0144C67.0503 24.9581 51.2184 27.9533 37.9539 36.4805C30.8631 40.9734 25.759 46.1692 22.7332 51.9151C19.7991 57.4777 18.7294 63.7432 19.5852 70.5283C20.3799 77.2217 25.6062 82.6926 32.2691 83.7623Z" fill="#284F4E"/>
<path d="M10.2632 77.3133C10.2021 77.3133 10.141 77.2827 10.0493 77.2522L8.36828 76.2741C8.1849 76.1519 8.12377 75.9074 8.21547 75.724C8.33772 75.5406 8.58223 75.4795 8.76561 75.5712L10.4466 76.5492C10.63 76.6715 10.6911 76.916 10.5994 77.0994C10.5077 77.2522 10.3855 77.3133 10.2632 77.3133Z" fill="#284F4E"/>
<path d="M8.58224 77.4355C8.45999 77.4355 8.33774 77.3744 8.27661 77.2827C8.15435 77.0993 8.18492 76.8548 8.33773 76.7325L9.86591 75.51C10.0493 75.3878 10.2938 75.4183 10.4161 75.5711C10.5383 75.7545 10.5077 75.999 10.3549 76.1213L8.82675 77.3438C8.76562 77.4049 8.67393 77.4355 8.58224 77.4355Z" fill="#284F4E"/>
<path d="M34.6836 14.75C34.5614 14.75 34.4391 14.7194 34.3474 14.6888C33.8584 14.5055 33.6139 13.9553 33.8278 13.4663C36.1507 7.62866 38.1984 5.03076 40.4907 5.03076C42.3551 5.03076 43.8832 6.77288 45.3197 10.4405C45.5031 10.9295 45.2586 11.4797 44.7696 11.663C44.2806 11.8464 43.7304 11.6019 43.547 11.1129C42.08 7.32303 40.9186 6.89514 40.4907 6.89514C39.8794 6.89514 38.1984 7.5981 35.6005 14.1387C35.4171 14.536 35.0504 14.75 34.6836 14.75Z" fill="#093332"/>
<path d="M82.9435 16.6447C82.8212 16.6447 82.6989 16.6141 82.5767 16.553C82.0877 16.339 81.8737 15.7889 82.0877 15.2999C82.5767 14.2302 85.1135 8.85098 88.3532 9.03436C90.0036 9.12606 91.2873 10.5931 92.1431 13.3744C92.2959 13.8634 92.0208 14.4135 91.5318 14.5664C91.0428 14.7192 90.4926 14.4441 90.3398 13.9551C89.7591 12.0907 88.995 10.9904 88.2615 10.9293C87.0695 10.8682 85.144 13.0687 83.8298 16.064C83.6464 16.4307 83.3102 16.6447 82.9435 16.6447Z" fill="#093332"/>
<path d="M37.4341 87.644C37.4646 89.1111 37.862 90.5781 38.5955 91.8618C38.9317 92.473 39.6041 92.8398 40.307 92.7481C41.4379 92.5953 42.5382 92.198 43.5468 91.6478C44.3109 91.2505 44.6165 90.3336 44.3109 89.5389C43.7302 88.1025 42.8744 86.7882 41.8047 85.6574C41.3768 85.1989 40.7044 85.0156 40.0931 85.1989C39.329 85.4434 38.6261 85.8408 38.0454 86.3909C37.648 86.6965 37.4341 87.155 37.4341 87.644Z" fill="#FFF3CF"/>
<path d="M40.0627 93.2981C39.2375 93.2981 38.4734 92.8397 38.0761 92.1367C37.312 90.7919 36.8841 89.2332 36.8535 87.6744C36.8535 87.0326 37.1286 86.4213 37.6176 85.9934C38.2594 85.4127 39.0541 84.9543 39.8793 84.6792C40.7045 84.4347 41.5603 84.6486 42.1716 85.2905C43.3024 86.4824 44.1888 87.8272 44.8 89.3554C45.2279 90.4251 44.7695 91.6171 43.7914 92.1673C42.7217 92.748 41.5909 93.1453 40.3683 93.3287C40.2766 93.2981 40.1849 93.2981 40.0627 93.2981ZM37.9844 87.6439C38.0149 89.0192 38.3817 90.3946 39.0541 91.5866C39.268 92.0144 39.757 92.2284 40.2155 92.1673C41.2852 92.0144 42.2938 91.6477 43.2413 91.1281C43.7609 90.853 43.9748 90.2418 43.7609 89.6916C43.2107 88.3163 42.3855 87.0632 41.3769 85.9629C41.0713 85.6572 40.6434 85.535 40.2155 85.6572C39.5431 85.8712 38.9013 86.2379 38.3817 86.727C38.1372 87.002 37.9844 87.3077 37.9844 87.6439Z" fill="#331805"/>
<path d="M60.7847 80.9198C60.1123 82.3563 59.7149 83.8845 59.5927 85.4738C59.501 86.4518 60.1428 87.3382 61.0597 87.5827C61.9766 87.8272 62.9241 87.8883 63.8716 87.7966C64.7885 87.7355 65.5526 87.0325 65.7054 86.1156C65.9805 84.5569 65.9805 82.9676 65.7359 81.3783C65.5831 80.4919 64.8496 79.789 63.9633 79.7278C63.3826 79.6667 62.8019 79.6973 62.2517 79.789C61.6099 79.9418 61.0597 80.3391 60.7847 80.9198Z" fill="#FFF3CF"/>
<path d="M63.1687 88.4079C62.4352 88.4079 61.6711 88.3162 60.9376 88.1328C59.715 87.7966 58.9204 86.6658 59.0426 85.4432C59.1649 83.7928 59.5622 82.2035 60.2958 80.7059C60.6625 79.9724 61.3655 79.4222 62.1601 79.3C62.7714 79.2083 63.4132 79.1777 64.0245 79.2388C65.1859 79.3611 66.1028 80.2169 66.3168 81.3477C66.5613 82.9676 66.5613 84.618 66.2862 86.2379C66.1028 87.3993 65.1248 88.2856 63.9328 88.3773C63.6883 88.3773 63.4132 88.4079 63.1687 88.4079ZM61.2738 81.1643C60.632 82.5397 60.2346 84.0067 60.1429 85.5044C60.0818 86.2073 60.5403 86.8797 61.2127 87.0631C62.0684 87.277 62.9548 87.3382 63.8411 87.277C64.5135 87.2159 65.0637 86.7269 65.1859 86.0545C65.4304 84.5569 65.4304 83.0287 65.2165 81.5005C65.1248 80.8587 64.5746 80.3697 63.9328 80.3086C63.4132 80.2474 62.8937 80.278 62.3741 80.3697C61.8851 80.4308 61.4877 80.7364 61.2738 81.1643Z" fill="#331805"/>
<path d="M83.7381 72.5148C83.6464 74.043 83.8604 75.5711 84.3188 77.0076C84.5939 77.894 85.4497 78.4135 86.3666 78.3219C87.4669 78.1996 88.506 77.8634 89.4841 77.3438C90.2176 76.9159 90.5844 76.0907 90.401 75.2655C90.0648 73.829 89.4535 72.4537 88.5977 71.2617C88.2615 70.7727 87.7114 70.467 87.1001 70.4365C86.3666 70.4059 85.6331 70.5282 84.9301 70.8032C84.2577 71.0783 83.7687 71.7507 83.7381 72.5148Z" fill="#FFF3CF"/>
<path d="M86.1221 78.9027C85.0829 78.9027 84.1049 78.2303 83.7687 77.1911C83.2797 75.6629 83.0658 74.1042 83.1575 72.4843C83.2186 71.5063 83.8298 70.6505 84.7467 70.2837C85.5108 70.0087 86.3055 69.8559 87.1307 69.8864C87.8948 69.917 88.6283 70.3143 89.0562 70.9256C89.9425 72.1787 90.5844 73.6152 90.9206 75.1128C91.1651 76.1825 90.6761 77.2522 89.7286 77.8024C88.6894 78.3831 87.5586 78.7193 86.3972 78.8415C86.336 78.8721 86.2138 78.9027 86.1221 78.9027ZM86.9473 71.0173C86.336 71.0173 85.7248 71.1395 85.1441 71.3535C84.6551 71.5369 84.2883 72.0259 84.2577 72.576C84.166 74.0431 84.3494 75.4795 84.8079 76.8855C85.0218 77.4967 85.6331 77.8941 86.2749 77.8329C87.3141 77.7107 88.2921 77.4051 89.1784 76.916C89.698 76.6104 89.9425 76.0297 89.8203 75.449C89.5146 74.0736 88.9339 72.79 88.1087 71.6285C87.8642 71.2923 87.4669 71.0784 87.0696 71.0478C87.0696 71.0173 87.0084 71.0173 86.9473 71.0173Z" fill="#331805"/>
<path d="M103.421 63.1625C104.185 64.0489 105.102 64.7824 106.08 65.3936C106.966 65.9438 108.067 65.8827 108.556 65.2103C109.136 64.5073 109.534 63.7127 109.748 62.8263C109.9 61.9094 109.197 60.9008 108.158 60.5341C107.15 60.1979 106.141 59.9228 105.071 59.7394C104.46 59.6172 103.849 59.8617 103.482 60.3507C103.176 60.7786 102.962 61.2676 102.901 61.7872C102.901 62.2762 103.085 62.7958 103.421 63.1625Z" fill="#FFF3CF"/>
<path d="M107.333 66.3411C106.813 66.3411 106.294 66.1883 105.774 65.8827C104.735 65.2408 103.788 64.4767 102.993 63.5598C102.565 63.0708 102.321 62.429 102.351 61.7566V61.6955C102.443 61.0842 102.687 60.5035 103.054 60.0145C103.543 59.3421 104.368 59.0059 105.194 59.1892C106.233 59.3726 107.302 59.6477 108.342 60.0145C109.656 60.4729 110.512 61.7566 110.298 62.9486C110.084 63.9266 109.625 64.8435 108.983 65.6076C108.617 66.066 108.005 66.3411 107.333 66.3411ZM103.482 61.8177C103.482 62.1539 103.604 62.5207 103.849 62.7652C104.582 63.5904 105.438 64.3239 106.386 64.9046C107.027 65.302 107.822 65.302 108.128 64.8435C108.678 64.2017 109.045 63.4681 109.228 62.6735C109.35 62.0622 108.77 61.2981 108.005 61.0231C107.027 60.6869 106.019 60.4118 105.01 60.259C104.613 60.1673 104.216 60.3201 103.971 60.6563C103.727 60.9925 103.543 61.4204 103.482 61.8177Z" fill="#331805"/>
<path d="M69.6178 35.6553C69.6178 47.3306 60.1431 59.067 48.4678 59.067C36.7926 59.067 27.3179 49.5923 27.3179 37.917C27.3179 26.2418 36.7926 16.7671 48.4678 16.7671C60.1431 16.7977 69.6178 23.9801 69.6178 35.6553Z" fill="#E3E1D6"/>
<path d="M48.4676 59.9228C36.3339 59.9228 26.4619 50.0508 26.4619 37.9171C26.4619 25.7834 36.3339 15.9114 48.4676 15.9114C54.4887 15.9114 59.9901 17.7758 63.9633 21.1683C68.2117 24.7748 70.4734 29.7872 70.4734 35.6248C70.4734 41.5236 68.1505 47.6057 64.055 52.282C59.8067 57.2332 54.2441 59.9228 48.4676 59.9228ZM48.4676 17.6535C37.2814 17.6535 28.204 26.7309 28.204 37.9171C28.204 49.1034 37.2814 58.1807 48.4676 58.1807C60.0512 58.1807 68.7313 46.2915 68.7313 35.6554C68.7313 25.0499 60.418 17.6535 48.4676 17.6535Z" fill="#284F4E"/>
<path d="M48.4676 16.7976C43.8525 16.7976 39.3291 18.2952 35.6615 21.1071C28.9987 30.6734 31.352 43.8463 40.949 50.5397C44.4944 53.0154 48.7121 54.3296 53.0216 54.3296C57.3616 54.3296 61.396 52.7097 64.758 50.0507C67.7837 45.8941 69.587 40.79 69.587 35.6553C69.6176 23.98 60.1429 16.7976 48.4676 16.7976Z" fill="#FFFACF"/>
<path d="M48.4676 59.9228C36.3339 59.9228 26.4619 50.0508 26.4619 37.9171C26.4619 25.7834 36.3339 15.9114 48.4676 15.9114C54.4887 15.9114 59.9901 17.7758 63.9633 21.1683C68.2117 24.7748 70.4734 29.7872 70.4734 35.6248C70.4734 41.5236 68.1505 47.6057 64.055 52.282C59.8067 57.2332 54.2441 59.9228 48.4676 59.9228ZM48.4676 17.6535C37.2814 17.6535 28.204 26.7309 28.204 37.9171C28.204 49.1034 37.2814 58.1807 48.4676 58.1807C60.0512 58.1807 68.7313 46.2915 68.7313 35.6554C68.7313 25.0499 60.418 17.6535 48.4676 17.6535Z" fill="#284F4E"/>
<path d="M104.582 30.9486C104.582 38.4672 98.4693 44.5799 90.9507 44.5799C83.4321 44.5799 76.3413 39.3841 76.3413 31.8655C76.3413 24.3469 83.4015 17.3173 90.9507 17.3173C98.4693 17.2867 104.582 23.3994 104.582 30.9486C104.582 30.918 104.582 30.918 104.582 30.9486Z" fill="#FFFACF"/>
<path d="M90.9508 45.4357C87.0386 45.4357 83.1571 44.0603 80.2536 41.7069C77.1666 39.1396 75.4551 35.6554 75.4551 31.8655C75.4551 28.045 77.1666 24.1329 80.1924 21.1377C83.1876 18.1425 87.0998 16.4309 90.9202 16.4309C98.9278 16.4309 105.438 22.9409 105.438 30.9486C105.438 38.9257 98.9278 45.4357 90.9508 45.4357ZM90.9508 18.173C83.8906 18.173 77.2278 24.8359 77.2278 31.8655C77.2278 39.1702 84.3491 43.7241 90.9508 43.7241C97.9804 43.7241 103.726 38.0087 103.726 30.9486C103.696 23.8884 97.9804 18.173 90.9508 18.173Z" fill="#284F4E"/>
<path d="M82.4848 20.8015C77.1362 33.1186 80.7733 40.8818 94.4046 43.5102C88.4141 45.1301 83.1267 43.4796 78.5727 38.6506C74.5078 30.6735 76.6472 25.0193 82.4848 20.8015Z" fill="#E3E1D6"/>
<path d="M90.9508 45.4357C87.0386 45.4357 83.1571 44.0603 80.2536 41.7069C77.1666 39.1396 75.4551 35.6554 75.4551 31.8655C75.4551 28.045 77.1666 24.1329 80.1924 21.1377C83.1876 18.1425 87.0998 16.4309 90.9202 16.4309C98.9278 16.4309 105.438 22.9409 105.438 30.9486C105.438 38.9257 98.9278 45.4357 90.9508 45.4357ZM90.9508 18.173C83.8906 18.173 77.2278 24.8359 77.2278 31.8655C77.2278 39.1702 84.3491 43.7241 90.9508 43.7241C97.9804 43.7241 103.726 38.0087 103.726 30.9486C103.696 23.8884 97.9804 18.173 90.9508 18.173Z" fill="#284F4E"/>
<path d="M68.7617 19.3343C68.5783 19.7928 68.4866 20.2818 68.4866 20.7708C68.456 21.2598 68.4866 21.7488 68.5783 22.2379C68.67 22.7269 68.7922 23.1853 69.0062 23.6132C69.159 24.0105 69.4341 24.3773 69.7397 24.6829C70.0759 25.0191 70.0759 25.5693 69.7397 25.9055C69.4035 26.2417 68.8533 26.2417 68.5171 25.9055C68.4866 25.8749 68.4866 25.8749 68.4866 25.8444L68.456 25.8138C68.0587 25.2942 67.7836 24.7135 67.6002 24.1022C67.4474 23.5215 67.3557 22.9408 67.3252 22.3296C67.2946 21.7488 67.3557 21.1681 67.478 20.5874C67.6002 20.0067 67.7836 19.4566 68.0587 18.937C68.181 18.7536 68.4255 18.6619 68.6088 18.7842C68.7617 18.937 68.8533 19.1509 68.7617 19.3343Z" fill="#093332"/>
<path d="M73.6215 19.5482C73.0408 20.2206 72.7351 21.0764 72.7351 21.9628C72.7351 22.2073 72.7963 22.4518 72.8879 22.6657C73.1019 23.0936 72.9185 23.6132 72.4906 23.8271C72.0627 24.0411 71.5431 23.8577 71.3292 23.4298C71.2986 23.3687 71.2681 23.3381 71.2681 23.277L71.2375 23.2159C71.1153 22.7574 71.1153 22.299 71.1764 21.8405C71.2375 21.4432 71.3598 21.0459 71.5126 20.6791C71.6654 20.3123 71.8488 19.9761 72.0933 19.6399C72.3378 19.3037 72.6129 18.9981 72.9491 18.7536C73.1936 18.6008 73.4992 18.6619 73.6826 18.8758C73.8049 19.0898 73.7743 19.3649 73.6215 19.5482Z" fill="#093332"/>
<path d="M77.564 21.6878C77.1972 21.8101 76.8916 22.024 76.6471 22.2991C76.4331 22.5436 76.3109 22.8187 76.2803 23.1549C76.2192 23.6439 75.7913 24.0106 75.3023 23.9495C74.8133 23.8884 74.4465 23.4605 74.5076 22.9715C74.5076 22.8798 74.5382 22.7575 74.5993 22.6658L74.6605 22.5436C74.9355 21.9934 75.3634 21.5656 75.883 21.2599C76.372 20.9848 76.8916 20.832 77.4417 20.832C77.6863 20.832 77.8696 21.0154 77.9002 21.2599C77.9002 21.4739 77.7779 21.6267 77.564 21.6878Z" fill="#093332"/>
<path d="M31.902 84.4346C31.6575 84.4346 31.413 84.2818 31.2908 84.0373C31.2297 83.8845 29.4875 79.9723 31.9326 76.9465C32.1771 76.6715 32.5744 76.6103 32.8801 76.8548C33.1552 77.0993 33.2163 77.4967 32.9718 77.8023C31.0463 80.1863 32.4828 83.4871 32.5133 83.5177C32.6661 83.8539 32.5133 84.2512 32.1771 84.404C32.0854 84.4346 31.9937 84.4346 31.902 84.4346Z" fill="#284F4E"/>
<path d="M57.1169 80.2476C56.8724 80.2476 56.6279 80.0947 56.5056 79.8502C56.4445 79.6974 54.7024 75.7853 57.1475 72.7595C57.392 72.4844 57.7893 72.4233 58.0949 72.6678C58.37 72.9123 58.4311 73.3097 58.1866 73.6153C56.2611 75.9992 57.6976 79.3001 57.7282 79.3307C57.881 79.6669 57.7282 80.0642 57.392 80.217C57.3003 80.217 57.2086 80.2476 57.1169 80.2476Z" fill="#284F4E"/>
<path d="M105.316 57.3859C105.132 57.3859 104.98 57.3248 104.857 57.2026C104.582 56.958 104.582 56.5302 104.857 56.2551C105.041 56.0717 106.477 54.4518 104.643 52.3735C104.399 52.0984 104.429 51.6706 104.704 51.426C104.98 51.1815 105.407 51.2121 105.652 51.4872C108.372 54.5741 105.835 57.172 105.805 57.2026C105.682 57.3248 105.499 57.3859 105.316 57.3859Z" fill="#284F4E"/>
<path d="M97.4 62.8873C97.2472 62.8873 97.0944 62.8262 96.9415 62.7039C96.6665 62.4594 96.6359 62.0315 96.8804 61.7565C96.8804 61.7259 97.3389 61.2063 97.5223 60.4422C97.7668 59.4642 97.4917 58.4862 96.697 57.5998C96.4525 57.3248 96.4831 56.8969 96.7582 56.6524C97.0332 56.4079 97.4611 56.4384 97.7056 56.7135C99.8756 59.1586 98.7754 61.6648 97.889 62.6428C97.7668 62.7956 97.5834 62.8873 97.4 62.8873Z" fill="#284F4E"/>
<path d="M79.3672 56.1939C79.3672 56.4384 79.4589 56.6829 79.6117 56.8662C80.223 57.5998 82.2402 59.9226 83.0654 59.0057C83.9823 57.9971 79.4283 54.574 79.3672 56.1939Z" fill="#2D5958"/>
<path d="M77.6251 57.233C77.7168 57.5081 77.7474 57.8137 77.7168 58.0888C77.6251 59.3113 77.1972 63.2846 75.2106 62.6428C73.1323 62.0315 76.7999 54.5129 77.6251 57.233Z" fill="#2D5958"/>
<g opacity="0.54">
<g opacity="0.54">
<path opacity="0.54" d="M122.737 67.9305C123.134 66.3106 123.471 64.6602 123.685 62.9792C123.899 61.3287 123.99 59.6478 123.929 57.9668C123.837 54.6048 123.287 51.3039 122.34 48.0947C121.362 44.855 120.078 41.707 118.55 38.6812L117.969 37.5503L117.664 37.0002L117.511 36.7251L117.358 36.3889C117.144 35.9305 117.022 35.4414 116.991 34.9524C116.991 34.7079 116.991 34.4634 117.022 34.2189C117.052 34.0966 117.052 33.9744 117.083 33.8521L117.175 33.4854C117.48 32.5685 118.092 31.7738 118.917 31.2848C119.711 30.8264 120.659 30.7041 121.545 30.9486C120.72 30.9486 119.895 31.2542 119.253 31.7738C118.947 32.0183 118.703 32.324 118.519 32.6602C118.428 32.813 118.336 32.9964 118.275 33.1797C118.244 33.2714 118.214 33.3631 118.183 33.4548C118.153 33.5465 118.122 33.6382 118.122 33.7299L118.091 34.005C118.091 34.0966 118.091 34.1883 118.091 34.28C118.061 34.8302 118.214 35.3803 118.489 35.8388L118.611 36.0833L118.794 36.3583L119.131 36.9085L119.834 38.0088C120.292 38.7423 120.689 39.537 121.117 40.2705C121.545 41.004 121.912 41.8292 122.309 42.6239C122.707 43.4185 123.012 44.2132 123.348 45.0384L123.807 46.2609L124.021 46.8722L124.204 47.514C125.335 50.876 125.916 54.3908 125.885 57.9668C125.885 61.5121 125.213 65.0269 123.929 68.3278C123.807 68.664 123.44 68.8168 123.104 68.6945C122.829 68.5417 122.645 68.2361 122.737 67.9305Z" fill="#DE9766"/>
</g>
</g>
<path d="M95.3825 25.6C94.7101 23.3689 93.3041 21.9629 91.1953 21.2905C88.4445 20.4042 85.4188 21.26 83.5544 23.4911C82.5458 24.7137 82.0262 26.303 82.1485 27.8923C82.2401 29.3899 82.7597 30.8569 83.5849 32.0795C85.755 35.4109 90.095 37.642 95.0768 39.323C95.8409 39.5675 96.6661 39.4453 97.2774 38.9563C101.434 35.7777 103.879 32.2934 104.49 28.2285C104.765 26.6392 104.552 24.9887 103.91 23.5217C102.718 21.0155 100.548 19.9763 97.7053 19.9763C95.5658 20.0374 93.8543 20.9544 93.3347 22.1769" fill="#EF213F"/>
<path d="M95.8107 40.4232C95.444 40.4232 95.0772 40.362 94.741 40.2398C88.6894 38.192 84.7773 35.6858 82.7601 32.6295C81.8432 31.2541 81.2931 29.6343 81.1708 27.9838C81.0486 26.15 81.6293 24.3468 82.7907 22.9103C84.8996 20.3735 88.3227 19.3955 91.4707 20.4041C92.0208 20.5569 92.5099 20.7708 92.9683 21.0459C93.8852 19.8845 95.6273 19.151 97.6751 19.0898H97.7057C101.098 19.0898 103.482 20.4652 104.766 23.1854C105.499 24.8663 105.744 26.6696 105.438 28.4728C104.796 32.66 102.321 36.3582 97.8585 39.7813C97.2472 40.1787 96.5443 40.4232 95.8107 40.4232ZM88.9951 21.9017C87.1918 21.9017 85.4803 22.6963 84.2883 24.1023C83.4325 25.1414 83.0046 26.4862 83.0963 27.831C83.188 29.1758 83.6159 30.4595 84.38 31.5598C86.1527 34.2799 89.7592 36.5416 95.3828 38.4365C95.8413 38.5894 96.3303 38.4977 96.7276 38.2226C100.762 35.1051 103.024 31.8043 103.574 28.1061C103.818 26.6696 103.635 25.2331 103.054 23.9189C102.107 21.9322 100.365 20.9542 97.7362 20.9237C96.1164 20.9848 95.0161 21.5349 94.4965 22.1462C95.3217 22.9714 95.933 24.0411 96.2997 25.3248C96.4526 25.8138 96.1775 26.364 95.6579 26.5168C95.1689 26.6696 94.6188 26.3945 94.4659 25.8749C93.8852 23.98 92.7238 22.7575 90.89 22.2073C90.2787 21.9934 89.6369 21.9017 88.9951 21.9017Z" fill="#AE0819"/>
<path d="M95.5562 36.0494C97.7967 34.2032 97.4811 30.1194 94.8513 26.928C92.2215 23.7366 88.2734 22.6461 86.0329 24.4923C83.7924 26.3385 84.1079 30.4223 86.7377 33.6137C89.3675 36.8051 93.3157 37.8956 95.5562 36.0494Z" fill="#FD4C62"/>
<path d="M101.525 29.1022C103.199 28.5206 103.941 26.2784 103.183 24.094C102.424 21.9096 100.452 20.6102 98.7775 21.1917C97.1033 21.7732 96.3612 24.0154 97.1199 26.1999C97.8787 28.3843 99.8509 29.6837 101.525 29.1022Z" fill="#FD4C62"/>
<path d="M102.076 25.3919C102.487 25.1261 102.315 24.1293 101.692 23.1653C101.069 22.2014 100.23 21.6354 99.8191 21.9011C99.408 22.1669 99.5799 23.1638 100.203 24.1277C100.826 25.0916 101.665 25.6576 102.076 25.3919Z" fill="#FF9FA3"/>
<path d="M61.0598 28.3505C59.7761 25.0191 57.4227 23.0325 54.0913 22.2684C49.7818 21.2904 45.1668 22.9408 42.6605 26.6084C41.2546 28.6256 40.7045 31.1012 41.0407 33.5158C41.3769 35.808 42.3243 37.9475 43.7608 39.7507C47.4896 44.5798 54.4275 47.4527 62.2212 49.4088C63.4132 49.7144 64.6663 49.3782 65.5526 48.5836C71.5125 43.2044 74.8134 37.5501 75.2718 31.2541C75.4858 28.7784 74.9967 26.3028 73.8048 24.1328C71.6653 20.4346 68.2422 19.1203 63.8716 19.4871C60.6319 19.8539 58.0951 21.4432 57.4838 23.3992" fill="#EF213F"/>
<path d="M63.1687 50.4787C62.802 50.4787 62.4352 50.4481 62.0379 50.3564C52.6243 48.003 46.4199 44.7327 43.0274 40.3621C41.4992 38.4366 40.4906 36.1138 40.1238 33.6687C39.7265 31.0097 40.3683 28.2896 41.8965 26.089C44.5555 22.2074 49.5374 20.2819 54.3053 21.3516C55.2833 21.5656 56.1697 21.8712 56.9643 22.2991C58.0646 20.343 60.6319 18.9066 63.8105 18.5398H63.8411C68.823 18.1425 72.46 19.8846 74.6606 23.6745C75.9748 26.0279 76.525 28.6869 76.2499 31.3459C75.7914 37.7031 72.5211 43.6019 66.2251 49.2867C65.3693 50.0508 64.269 50.4787 63.1687 50.4787ZM51.6463 22.9409C48.376 22.9409 45.2891 24.4997 43.4858 27.1281C42.2327 28.9619 41.7131 31.1625 42.0188 33.3631C42.3244 35.472 43.2107 37.4892 44.5555 39.1396C47.673 43.174 53.5412 46.2303 62.5269 48.4615C63.4132 48.6754 64.3301 48.4615 65.0025 47.8502C70.9013 42.5016 73.9882 37.0307 74.4161 31.1625C74.63 28.8397 74.1716 26.578 73.0407 24.5608C71.2375 21.4433 68.2728 20.068 64.0245 20.4042C61.4266 20.7098 59.3177 21.8407 58.5842 23.2771C60.0512 24.4385 61.1821 25.9973 61.9462 27.9839C62.1296 28.4729 61.885 29.0231 61.396 29.2065C60.907 29.3898 60.3569 29.1453 60.1735 28.6563C59.0121 25.6305 56.9338 23.8578 53.8774 23.1549C53.1439 23.0326 52.3798 22.9409 51.6463 22.9409Z" fill="#AE0819"/>
<path d="M62.635 44.3086C65.8328 41.2052 64.8326 34.9875 60.4009 30.421C55.9692 25.8544 49.7843 24.6682 46.5865 27.7715C43.3887 30.8749 44.389 37.0926 48.8206 41.6591C53.2523 46.2257 59.4372 47.4119 62.635 44.3086Z" fill="#FD4C62"/>
<path d="M70.0867 33.5319C72.5612 32.4495 73.4154 28.9392 71.9946 25.6915C70.5739 22.4438 67.4162 20.6885 64.9418 21.771C62.4674 22.8534 61.6132 26.3637 63.0339 29.6114C64.4546 32.8591 67.6123 34.6144 70.0867 33.5319Z" fill="#FD4C62"/>
<path d="M52.3419 42.5539C53.3939 41.8496 52.8004 39.1182 51.0163 36.453C49.2322 33.7879 46.933 32.1983 45.8809 32.9025C44.8289 33.6068 45.4224 36.3383 47.2065 39.0034C48.9907 41.6685 51.2899 43.2582 52.3419 42.5539Z" fill="#FF9FA3"/>
<path d="M71.3034 27.1925C71.9058 26.7298 71.5188 25.2153 70.4391 23.8098C69.3593 22.4043 67.9957 21.6401 67.3934 22.1028C66.791 22.5655 67.178 24.0801 68.2578 25.4855C69.3375 26.891 70.7011 27.6553 71.3034 27.1925Z" fill="#FF9FA3"/>
<path d="M48.6541 31.0733C49.8053 30.1889 50.1466 28.7016 49.4165 27.7512C48.6864 26.8008 47.1613 26.7473 46.0102 27.6317C44.859 28.516 44.5176 30.0033 45.2478 30.9537C45.9779 31.9041 47.5029 31.9576 48.6541 31.0733Z" fill="#FDA7A2"/>
</svg>
