<svg width="24" height="24" viewBox="0 0 24 24" fill="none" xmlns="http://www.w3.org/2000/svg">
<path fill-rule="evenodd" clip-rule="evenodd" d="M12.5104 2.72844C12.1958 2.54169 11.8042 2.54169 11.4896 2.72844L7.88297 4.86909L4.22579 6.92221C3.90674 7.10132 3.71098 7.44038 3.71539 7.80624L3.76593 12L3.71539 16.1938C3.71098 16.5596 3.90674 16.8987 4.22579 17.0778L7.88297 19.1309L11.4896 21.2716C11.8042 21.4583 12.1958 21.4583 12.5104 21.2716L16.117 19.1309L19.7742 17.0778C20.0933 16.8987 20.289 16.5596 20.2846 16.1938L20.2341 12L20.2846 7.80624C20.289 7.44038 20.0933 7.10132 19.7742 6.92221L16.117 4.86909L12.5104 2.72844ZM12 15.3511C13.8508 15.3511 15.3511 13.8508 15.3511 12C15.3511 10.1493 13.8508 8.64893 12 8.64893C10.1493 8.64893 8.64893 10.1493 8.64893 12C8.64893 13.8508 10.1493 15.3511 12 15.3511Z" fill="url(#paint0_linear)"/>
<defs>
<linearGradient id="paint0_linear" x1="-1.82811" y1="8.52147" x2="10.6233" y2="25.9081" gradientUnits="userSpaceOnUse">
<stop stop-color="#A3A9BB"/>
<stop offset="1" stop-color="#70768B"/>
</linearGradient>
</defs>
</svg>
