<svg width="24" height="24" viewBox="0 0 24 24" fill="none" xmlns="http://www.w3.org/2000/svg">
<path fill-rule="evenodd" clip-rule="evenodd" d="M12 5C8.13401 5 5 8.13401 5 12C5 12.5523 4.55228 13 4 13C3.44772 13 3 12.5523 3 12C3 7.02944 7.02944 3 12 3C16.9706 3 21 7.02944 21 12C21 16.9706 16.9706 21 12 21C11.4477 21 11 20.5523 11 20C11 19.4477 11.4477 19 12 19C15.866 19 19 15.866 19 12C19 8.13401 15.866 5 12 5Z" fill="url(#paint0_linear)"/>
<defs>
<linearGradient id="paint0_linear" x1="3" y1="21" x2="21" y2="21" gradientUnits="userSpaceOnUse">
<stop stop-color="#00D8E2"/>
<stop offset="1" stop-color="#27A2F8"/>
</linearGradient>
</defs>
</svg>
