<svg width="128" height="128" viewBox="0 0 128 128" fill="none" xmlns="http://www.w3.org/2000/svg">
<path d="M64 128C99.3462 128 128 99.3462 128 64C128 28.6538 99.3462 0 64 0C28.6538 0 0 28.6538 0 64C0 99.3462 28.6538 128 64 128Z" fill="#F49B33"/>
<path d="M64 128C99.3462 128 128 99.3462 128 64C128 28.6538 99.3462 0 64 0C28.6538 0 0 28.6538 0 64C0 99.3462 28.6538 128 64 128Z" fill="url(#paint0_linear)"/>
<path d="M94.0065 87.0585L72.9337 35.9285C72.5721 34.8021 71.8664 33.8175 70.916 33.1129C69.9656 32.4082 68.8185 32.0191 67.6356 32H65.7821C64.6027 32.0232 63.46 32.4143 62.5138 33.1186C61.5673 33.823 60.8648 34.8053 60.5039 35.9285L51.3376 58.2098H44.3872C43.3878 58.2204 42.4328 58.6233 41.728 59.3319C41.0233 60.0405 40.6251 60.9977 40.6201 61.9972V62.0373C40.6251 63.0368 41.0233 63.994 41.728 64.7026C42.4328 65.4112 43.3878 65.8144 44.3872 65.8247H48.1142L39.3711 87.0585C39.2043 87.5243 39.1158 88.0146 39.109 88.5092C39.0681 89.5538 39.4368 90.5728 40.1366 91.3497C40.4985 91.7205 40.9355 92.0096 41.4187 92.1973C41.9016 92.3847 42.4193 92.4669 42.9366 92.4377C43.7195 92.4263 44.4797 92.1732 45.1126 91.7124C45.7714 91.2188 46.2859 90.5579 46.6034 89.7984L56.2532 65.8247H62.9213C63.9243 65.8197 64.8847 65.4187 65.5936 64.7097C66.303 64.0007 66.7037 63.0404 66.7087 62.0373V61.9367C66.7037 60.9337 66.303 59.9737 65.5936 59.2644C64.8847 58.5554 63.9243 58.1547 62.9213 58.1493H59.3558L66.7087 39.7764L86.7538 89.7984C87.0713 90.5579 87.5858 91.2188 88.2447 91.7124C88.8776 92.1732 89.6377 92.4263 90.4203 92.4377C90.9412 92.4697 91.4628 92.3893 91.9496 92.2016C92.4363 92.0139 92.8769 91.723 93.2409 91.3497C93.9332 90.57 94.2948 89.5509 94.2482 88.5092C94.2735 88.0139 94.191 87.5189 94.0065 87.0585Z" fill="white"/>
<defs>
<linearGradient id="paint0_linear" x1="20.5" y1="112" x2="112.5" y2="20" gradientUnits="userSpaceOnUse">
<stop stop-color="#30BAC6"/>
<stop offset="1" stop-color="#B6509E"/>
</linearGradient>
</defs>
</svg>
