<?xml version="1.0" encoding="utf-8"?>
<!-- Generator: Adobe Illustrator 21.0.0, SVG Export Plug-In . SVG Version: 6.00 Build 0)  -->
<svg version="1.1" id="图层_1" xmlns="http://www.w3.org/2000/svg" xmlns:xlink="http://www.w3.org/1999/xlink" x="0px" y="0px"
	 viewBox="0 0 128 128" style="enable-background:new 0 0 128 128;" xml:space="preserve">
<style type="text/css">
	.st0{fill:#651ED9;}
	.st1{fill:#FFFFFF;}
</style>
<circle class="st0" cx="64" cy="64" r="64"/>
<path class="st1" d="M64,20c-7.8,0-15.2,2.1-21.6,5.7C29,33.2,20,47.5,20,64c0,24.3,19.7,44,44,44c24.3,0,44-19.7,44-44
	C108,39.7,88.3,20,64,20z M47.8,67V31c4.9-2.4,10.4-3.7,16.2-3.7c20.3,0,36.8,16.5,36.8,36.8c0,12.1-5.8,22.7-14.8,29.5
	c1.2-2.9,1.9-6.1,1.9-9.4c0-13.1-10.6-23.7-23.7-23.7C57.9,60.4,52.1,62.9,47.8,67z M40.6,85.8L40.6,85.8c0.3,2.9,1,5.7,2.2,8.2
	c-9.4-6.7-15.5-17.6-15.5-30c0-11.4,5.2-21.6,13.3-28.3V85.8z M47.8,84.1c0-9.1,7.4-16.4,16.4-16.4c9.1,0,16.4,7.4,16.4,16.4
	c0,9.1-7.4,16.4-16.4,16.4C55.2,100.5,47.8,93.1,47.8,84.1z"/>
</svg>
