<svg width="24" height="20" viewBox="0 0 24 20" fill="none" xmlns="http://www.w3.org/2000/svg">
<path fill-rule="evenodd" clip-rule="evenodd" d="M19.2009 2.6622C19.2009 3.99091 15.9773 5.06805 12.0009 5.06805C8.02441 5.06805 4.80086 3.99091 4.80086 2.6622C4.80086 1.33348 8.02441 0.256348 12.0009 0.256348C15.9773 0.256348 19.2009 1.33348 19.2009 2.6622ZM15.0377 5.47191C18.8512 5.89653 21.6007 7.09891 21.6007 8.51587C21.6007 10.2875 17.3026 11.7237 12.0007 11.7237C6.69874 11.7237 2.40067 10.2875 2.40067 8.51587C2.40067 7.09891 5.15013 5.89653 8.96361 5.47191C9.89768 5.62466 10.9238 5.70905 12.0007 5.70905C13.0398 5.70905 14.0318 5.63046 14.9393 5.48774L15.0377 5.47191ZM16.8518 12.065C21.0623 12.6877 24 14.096 24 15.7335C24 17.948 18.6274 19.7433 12 19.7433C5.37258 19.7433 0 17.948 0 15.7335C0 14.096 2.93773 12.6877 7.14824 12.065C8.59444 12.3591 10.2461 12.5257 12 12.5257C13.7099 12.5257 15.3226 12.3674 16.7426 12.0871L16.8518 12.065Z" fill="white"/>
</svg>
