<svg width="128" height="128" viewBox="0 0 128 128" fill="none" xmlns="http://www.w3.org/2000/svg">
<path d="M64 128C99.3462 128 128 99.3462 128 64C128 28.6538 99.3462 0 64 0C28.6538 0 0 28.6538 0 64C0 99.3462 28.6538 128 64 128Z" fill="#F0B90B"/>
<path d="M40.5958 63.9949L30.9962 73.6612L21.33 63.9949L30.9962 54.3287L40.5958 63.9949ZM63.9948 40.5959L80.5277 57.1286L90.194 47.4623L73.6611 30.9963L63.9948 21.3301L54.3285 30.9963L37.8626 47.4623L47.5288 57.1286L63.9948 40.5959ZM96.9937 54.3287L87.3941 63.9949L97.0604 73.6612L106.66 63.9949L96.9937 54.3287ZM63.9948 87.3942L47.4622 70.8613L37.8626 80.5279L54.3952 97.0605L63.9948 106.66L73.6611 96.9938L90.194 80.4612L80.5277 70.8613L63.9948 87.3942ZM63.9948 73.6612L73.6611 63.9949L63.9948 54.3287L54.3285 63.9949L63.9948 73.6612Z" fill="#FFFDFA"/>
</svg>
