<?xml version="1.0" encoding="utf-8"?>
<!-- Generator: Adobe Illustrator 21.0.0, SVG Export Plug-In . SVG Version: 6.00 Build 0)  -->
<svg version="1.1" id="图层_1" xmlns="http://www.w3.org/2000/svg" xmlns:xlink="http://www.w3.org/1999/xlink" x="0px" y="0px"
	 viewBox="0 0 128 128" style="enable-background:new 0 0 128 128;" xml:space="preserve">
<style type="text/css">
	.st0{fill:url(#SVGID_1_);}
	.st1{fill:#FFFFFF;}
</style>
<linearGradient id="SVGID_1_" gradientUnits="userSpaceOnUse" x1="119.68" y1="9.32" x2="17.28" y2="111.72" gradientTransform="matrix(1 0 0 -1 0 129)">
	<stop  offset="0.1594" style="stop-color:#003CDA"/>
	<stop  offset="1" style="stop-color:#33DFCC"/>
</linearGradient>
<circle class="st0" cx="64" cy="64" r="64"/>
<path class="st1" d="M38.4,5.3c4.1-1.8,8.4-3.1,12.8-4v28.2H38.4V5.3z M1.2,51.7c0.9-4.5,2.2-8.8,4-12.9h67.7
	c9.6,0,17.4,7.8,17.4,17.5v17c0,9.6-7.8,17.5-17.4,17.5h-17c-9.6,0-17.4-7.8-17.4-17.5V60.8h12.8v12.3c0,2.6,2,4.6,4.6,4.6h17
	c2.6,0,4.6-2,4.6-4.6V56.2c0-2.6-2-4.6-4.6-4.6H1.2z"/>
</svg>
