<svg width="24" height="26" viewBox="0 0 24 26" fill="none" xmlns="http://www.w3.org/2000/svg">
<path d="M22.875 17.3871V15.6621H1.125V17.3871C1.125 21.0621 6 24.0621 12 24.0621C18 24.0621 22.875 21.0621 22.875 17.3871Z" fill="#FEDC90"/>
<path fill-rule="evenodd" clip-rule="evenodd" d="M5.325 4.5625C5.025 3.2125 6.075 1.9375 7.425 1.9375C8.625 1.9375 9.6 2.9125 9.6 4.1125V9.0625C10.35 8.9875 11.1 8.9125 11.925 8.9125C12.675 8.9125 13.425 8.9875 14.175 9.0625V4.1125C14.175 2.9125 15.15 1.9375 16.35 1.9375C17.7 1.9375 18.75 3.2125 18.525 4.5625L17.55 9.9625C20.7 11.1625 22.875 13.2625 22.875 15.6625C22.875 19.3375 18 22.3375 12 22.3375C6 22.3375 1.125 19.3375 1.125 15.6625C1.125 13.2625 3.225 11.1625 6.375 9.9625L5.325 4.5625Z" fill="#D1884F"/>
<path fill-rule="evenodd" clip-rule="evenodd" d="M0 15.6614C0.000605285 12.8308 2.2135 10.6047 5.09613 9.27955L4.22325 4.79045C3.77723 2.73608 5.3687 0.8125 7.425 0.8125C9.24632 0.8125 10.725 2.29118 10.725 4.1125V7.83218C11.1079 7.80544 11.507 7.7875 11.925 7.7875C12.3039 7.7875 12.6808 7.8051 13.05 7.83138V4.1125C13.05 2.29118 14.5287 0.8125 16.35 0.8125C18.4226 0.8125 19.9694 2.73906 19.6347 4.74745L19.6334 4.75493L18.8176 9.27364C21.7028 10.5916 23.9994 12.8154 24 15.6614V15.6625V17.3866C24 19.763 22.429 21.7385 20.2763 23.0608C18.1039 24.3953 15.1744 25.1866 12 25.1866C8.8256 25.1866 5.89605 24.3953 3.72365 23.0608C1.57098 21.7385 0 19.763 0 17.3866V15.6614ZM17.55 9.9625L18.525 4.5625C18.75 3.2125 17.7 1.9375 16.35 1.9375C15.15 1.9375 14.175 2.9125 14.175 4.1125V9.0625C13.8 9.025 13.425 8.9875 13.05 8.95938C12.675 8.93125 12.3 8.9125 11.925 8.9125C11.5091 8.9125 11.1123 8.93156 10.725 8.96006C10.3439 8.98811 9.97195 9.02531 9.6 9.0625V4.1125C9.6 2.9125 8.625 1.9375 7.425 1.9375C6.075 1.9375 5.025 3.2125 5.325 4.5625L6.375 9.9625C3.22538 11.1624 1.12551 13.262 1.125 15.6616V17.3866C1.125 21.0616 6 24.0616 12 24.0616C18 24.0616 22.875 21.0616 22.875 17.3866L22.875 15.6625L22.875 15.6616C22.8745 13.262 20.6996 11.1624 17.55 9.9625Z" fill="#633001"/>
<path d="M9.0001 15.1359C9.0001 16.1109 8.4751 16.9359 7.8001 16.9359C7.1251 16.9359 6.6001 16.1109 6.6001 15.1359C6.6001 14.1609 7.1251 13.3359 7.8001 13.3359C8.4751 13.3359 9.0001 14.1609 9.0001 15.1359Z" fill="#633001"/>
<path d="M17.3248 15.1359C17.3248 16.1109 16.7998 16.9359 16.1248 16.9359C15.4498 16.9359 14.9248 16.1109 14.9248 15.1359C14.9248 14.1609 15.4498 13.3359 16.1248 13.3359C16.7998 13.3359 17.3248 14.1609 17.3248 15.1359Z" fill="#633001"/>
</svg>
