<svg width="128" height="128" viewBox="0 0 128 128" fill="none" xmlns="http://www.w3.org/2000/svg">
<path d="M64 128C99.3462 128 128 99.3462 128 64C128 28.6538 99.3462 0 64 0C28.6538 0 0 28.6538 0 64C0 99.3462 28.6538 128 64 128Z" fill="#00D395"/>
<path fill-rule="evenodd" clip-rule="evenodd" d="M36.9597 86.2402C35.1835 85.1541 34.0972 83.2194 34.0972 81.1421V69.5415C34.0972 69.0971 34.2162 68.6689 34.4381 68.2884C35.128 67.0992 36.6584 66.6949 37.8477 67.3927L64.0303 82.6564C65.5607 83.5522 66.5049 85.1857 66.5049 86.9614V98.983C66.5049 99.5296 66.3539 100.077 66.0683 100.545C65.2041 101.956 63.3648 102.4 61.9531 101.536L36.9597 86.2402ZM75.9883 64.213C77.5187 65.109 78.4621 66.7426 78.4621 68.5187V92.909C78.4621 93.6312 78.0732 94.2963 77.447 94.6448L71.7145 97.8725C71.6428 97.9123 71.5635 97.9443 71.4842 97.9676V84.4247C71.4842 82.6725 70.5645 81.0467 69.058 80.1425L46.0626 66.3854V51.0979C46.0626 50.6539 46.1816 50.2258 46.4036 49.8452C47.0934 48.6557 48.6238 48.2514 49.8132 48.9492L75.9883 64.213ZM87.4465 46.1977C88.9843 47.0858 89.9278 48.7351 89.9278 50.5112V86.1376C89.9278 86.8671 89.5239 87.5408 88.8813 87.8902L83.4498 90.8238V66.021C83.4498 64.2685 82.5296 62.651 81.0315 61.7469L57.5285 47.6488V33.1462C57.5285 32.7022 57.6474 32.2739 57.8616 31.8933C58.5514 30.704 60.0818 30.2996 61.2711 30.9894L87.4465 46.1977Z" fill="white"/>
</svg>
