<?xml version="1.0" encoding="utf-8"?>
<!-- Generator: Adobe Illustrator 21.0.0, SVG Export Plug-In . SVG Version: 6.00 Build 0)  -->
<svg version="1.1" id="图层_1" xmlns="http://www.w3.org/2000/svg" xmlns:xlink="http://www.w3.org/1999/xlink" x="0px" y="0px"
	 viewBox="0 0 128 128" style="enable-background:new 0 0 128 128;" xml:space="preserve">
<style type="text/css">
	.st0{fill:#FFFFFF;}
	.st1{fill:#242948;}
	.st2{fill:#FC9D00;}
</style>
<circle class="st0" cx="64" cy="64" r="64"/>
<path class="st1" d="M114,64c0-26.6-20.5-48-45.8-48H40.3v12.2h27.9c18.8,0,34.5,16.1,34.5,35.8S87.4,99.8,68.2,99.8H54.7V54.4H42.9
	V112h25.3C93.5,112,114,90.6,114,64z"/>
<path class="st2" d="M92.2,63.6c0-15.7-12.2-28.4-27.5-28.4H25v61.5h11.8V47h28.4c8.7,0,15.7,7.4,15.7,16.6c0,9.2-7,16.6-15.7,16.6
	h-5.2v12.2h4.8C80,91.9,92.2,79.3,92.2,63.6z"/>
</svg>
