<svg width="24" height="22" viewBox="0 0 24 22" fill="none" xmlns="http://www.w3.org/2000/svg">
<path fill-rule="evenodd" clip-rule="evenodd" d="M15.3501 3.80238C15.3324 4.10104 15.2565 4.43051 15.119 4.75998C15.0396 4.95079 14.946 5.12738 14.8417 5.28619C19.7684 5.91906 24.0587 10.8303 23.9994 18.4165H20.7165C20.7675 11.9859 17.1409 8.56789 12.2889 8.56789C6.88575 8.56789 3.62776 12.1447 3.28288 18.4165H0C0.419545 10.7983 3.76168 6.15728 9.6282 5.24471C9.53457 5.11079 9.36154 4.83939 9.28451 4.68176C8.82467 3.74075 8.88985 2.77129 9.43028 2.51767C9.86168 2.31382 10.4673 2.62907 10.9283 3.24535C10.9224 3.1541 10.9188 3.06284 10.9188 2.96921C10.9188 1.65132 11.5327 0.583496 12.2889 0.583496C13.0462 0.583496 13.6589 1.65132 13.6589 2.96921L13.6577 3.06403C14.0642 2.58878 14.5383 2.35293 14.8998 2.50345C15.2672 2.65633 15.4248 3.16951 15.3501 3.80238ZM8.16699 15.0571V12.9439C8.16699 12.4687 8.65172 12.0835 9.25023 12.0835C9.84754 12.0835 10.3335 12.4699 10.3335 12.9439V15.0571C10.3335 15.5323 9.84754 15.9175 9.25023 15.9175C8.65172 15.9175 8.16699 15.5311 8.16699 15.0571ZM13.8332 12.9439C13.8332 12.4687 14.2812 12.0835 14.8323 12.0835H14.8335C15.3858 12.0835 15.8326 12.4699 15.8326 12.9439V15.0571C15.8326 15.5323 15.3858 15.9175 14.8335 15.9175C14.2812 15.9175 13.8332 15.5311 13.8332 15.0571V12.9439Z" fill="black"/>
</svg>
