<svg width="128" height="128" viewBox="0 0 128 128" fill="none" xmlns="http://www.w3.org/2000/svg">
<circle cx="64" cy="64" r="64" fill="white"/>
<path d="M64.1225 25.7998C56.5136 25.8283 49.2244 28.8636 43.844 34.2439C38.4637 39.6243 35.4284 46.9135 35.3999 54.5224C35.3995 57.6949 35.9106 60.8466 36.9135 63.8564C37.2736 64.8414 37.9968 65.6514 38.9348 66.1205C39.8729 66.5895 40.9548 66.682 41.9589 66.3791C42.9334 66.0087 43.7297 65.2803 44.1852 64.3426C44.6407 63.4048 44.7209 62.3286 44.4095 61.3337C43.5564 58.9931 43.1766 56.5064 43.2923 54.0179C43.4115 50.0007 44.6963 46.1049 46.9901 42.8049C49.284 39.5049 52.488 36.9431 56.2119 35.4317C59.9358 33.9202 64.0188 33.5242 67.9638 34.2919C71.9087 35.0596 75.5452 36.9579 78.4305 39.7556C81.3158 42.5533 83.3252 46.1296 84.2142 50.049C85.1031 53.9685 84.8331 58.0618 83.4371 61.8304C82.041 65.5991 79.5792 68.8805 76.3515 71.275C73.1237 73.6695 69.2693 75.0737 65.2577 75.3166C65.2577 75.3166 61.2395 75.5689 59.2213 75.8211C58.4813 75.9256 57.7474 76.0699 57.023 76.2536C56.9709 76.2926 56.9065 76.3116 56.8416 76.307C56.7767 76.3024 56.7157 76.2745 56.6697 76.2285C56.6237 76.1825 56.5958 76.1214 56.5912 76.0565C56.5866 75.9916 56.6055 75.9272 56.6446 75.8752L57.2752 72.4696L61.0593 55.3333C61.2767 54.313 61.0799 53.2481 60.5122 52.3728C59.9445 51.4976 59.0523 50.8838 58.032 50.6663C57.0117 50.4489 55.9468 50.6457 55.0716 51.2134C54.1964 51.7811 53.5825 52.6732 53.3651 53.6935C53.3651 53.6935 44.3555 95.5341 44.3555 95.9125C44.2314 96.4174 44.2117 96.9422 44.2975 97.4549C44.3833 97.9676 44.5729 98.4574 44.8546 98.8943C45.1363 99.3312 45.5042 99.706 45.9358 99.9958C46.3674 100.286 46.8536 100.484 47.3647 100.58C47.8706 100.701 48.396 100.718 48.9087 100.63C49.4215 100.542 49.911 100.35 50.3475 100.067C50.7841 99.7839 51.1584 99.415 51.4479 98.9827C51.7374 98.5504 51.936 98.0637 52.0316 97.5523C52.1578 97.0478 53.293 91.4978 53.293 91.4978C53.7111 89.455 54.7454 87.5894 56.2565 86.1525C57.7675 84.7155 59.6827 83.7763 61.744 83.4613C62.6089 83.3351 66.2668 83.0829 66.2668 83.0829C73.5767 82.4073 80.3499 78.9567 85.1938 73.4406C90.0377 67.9245 92.5842 60.7622 92.3096 53.4263C92.035 46.0905 88.9602 39.1386 83.7174 34.0001C78.4747 28.8616 71.4624 25.927 64.1225 25.7998Z" fill="#1E1E1E"/>
<circle cx="65" cy="96" r="5" fill="#E6007A"/>
</svg>
