<?xml version="1.0" encoding="utf-8"?>
<!-- Generator: Adobe Illustrator 21.0.0, SVG Export Plug-In . SVG Version: 6.00 Build 0)  -->
<svg version="1.1" id="图层_1" xmlns="http://www.w3.org/2000/svg" xmlns:xlink="http://www.w3.org/1999/xlink" x="0px" y="0px"
	 viewBox="0 0 128 128" style="enable-background:new 0 0 128 128;" xml:space="preserve">
<style type="text/css">
	.st0{fill:#1F2944;}
	.st1{fill:#FFFFFF;}
</style>
<circle class="st0" cx="64" cy="64" r="64"/>
<rect x="30" y="30" class="st1" width="10" height="10"/>
<rect x="30" y="50" class="st1" width="10" height="10"/>
<rect x="30" y="70" class="st1" width="10" height="10"/>
<rect x="50" y="30" class="st1" width="10" height="10"/>
<rect x="50" y="50" class="st1" width="10" height="10"/>
<rect x="70" y="30" class="st1" width="10" height="10"/>
<rect x="72" y="52" class="st1" width="6" height="6"/>
<rect x="72" y="72" class="st1" width="6" height="6"/>
<rect x="72" y="92" class="st1" width="6" height="6"/>
<rect x="52" y="72" class="st1" width="6" height="6"/>
<rect x="52" y="92" class="st1" width="6" height="6"/>
<rect x="32" y="92" class="st1" width="6" height="6"/>
<rect x="92" y="52" class="st1" width="6" height="6"/>
<rect x="92" y="72" class="st1" width="6" height="6"/>
<rect x="92" y="92" class="st1" width="6" height="6"/>
<rect x="92" y="32" class="st1" width="6" height="6"/>
</svg>
