<svg width="128" height="128" viewBox="0 0 128 128" fill="none" xmlns="http://www.w3.org/2000/svg">
<path d="M64 128C99.3462 128 128 99.3462 128 64C128 28.6538 99.3462 0 64 0C28.6538 0 0 28.6538 0 64C0 99.3462 28.6538 128 64 128Z" fill="#335DD2"/>
<path d="M63.8108 21.3359L56.0532 25.7966L34.9139 38.0147L27.1562 42.4754V84.7544L34.9139 89.2144L56.2471 101.433L64.0047 105.894L71.7623 101.433L92.708 89.2144L100.466 84.7544V42.4754L92.708 38.0147L71.5684 25.7966L63.8108 21.3359ZM42.6714 75.8329V51.3966L63.8108 39.1784L84.9504 51.3966V75.8329L63.8108 88.0512L42.6714 75.8329Z" fill="white"/>
</svg>
