<?xml version="1.0" encoding="utf-8"?>
<!-- Generator: Adobe Illustrator 21.0.0, SVG Export Plug-In . SVG Version: 6.00 Build 0)  -->
<svg version="1.1" id="图层_1" xmlns="http://www.w3.org/2000/svg" xmlns:xlink="http://www.w3.org/1999/xlink" x="0px" y="0px"
	 viewBox="0 0 128 128" style="enable-background:new 0 0 128 128;" xml:space="preserve">
<style type="text/css">
	.st0{fill:#8247E5;}
	.st1{fill:#FFFFFF;}
</style>
<circle class="st0" cx="64" cy="64" r="64"/>
<path class="st1" d="M84.9,50.5c-1.5-0.9-3.5-0.9-5.1,0l-11.8,6.8l-8,4.5l-11.8,6.8c-1.5,0.9-3.5,0.9-5.1,0l-9.4-5.4
	c-1.5-0.9-2.6-2.5-2.6-4.3V48.4c0-1.8,0.9-3.4,2.6-4.3l9.2-5.2c1.5-0.9,3.5-0.9,5.1,0l9.2,5.2c1.5,0.9,2.6,2.5,2.6,4.3v6.8l8-4.6
	v-6.8c0-1.8-0.9-3.4-2.6-4.3l-17.1-9.8c-1.5-0.9-3.5-0.9-5.1,0l-17.4,9.8C23.9,40.4,23,42,23,43.8v19.8c0,1.8,0.9,3.4,2.6,4.3
	L43,77.7c1.5,0.9,3.5,0.9,5.1,0L59.9,71l8-4.6l11.8-6.7c1.5-0.9,3.5-0.9,5.1,0l9.2,5.2c1.5,0.9,2.6,2.5,2.6,4.3v10.6
	c0,1.8-0.9,3.4-2.6,4.3l-9.2,5.4c-1.5,0.9-3.5,0.9-5.1,0l-9.2-5.2c-1.5-0.9-2.6-2.5-2.6-4.3v-6.8l-8,4.6v6.8c0,1.8,0.9,3.4,2.6,4.3
	l17.4,9.8c1.5,0.9,3.5,0.9,5.1,0l17.4-9.8c1.5-0.9,2.6-2.5,2.6-4.3V64.7c0-1.8-0.9-3.4-2.6-4.3L84.9,50.5z"/>
</svg>
