<svg width="128" height="128" viewBox="0 0 128 128" fill="none" xmlns="http://www.w3.org/2000/svg">
<circle cx="64" cy="64" r="64" fill="white"/>
<g clip-path="url(#clip0_33233:167686)">
<path d="M35.3333 56.833H42.5V49.6663H35.3333V56.833Z" fill="#FED955"/>
<path d="M35.3333 71.167H42.5V64.0003H35.3333V71.167Z" fill="#FED955"/>
<path d="M35.3333 64H42.5V56.8333H35.3333V64Z" fill="#FED955"/>
<path d="M35.3333 78.333H42.5V71.1663H35.3333V78.333Z" fill="#FED955"/>
<path d="M63.9998 42.5H71.1665V35.3333H63.9998V42.5Z" fill="#FED955"/>
<path d="M63.9998 85.5L71.1665 85.5L71.1665 92.6667L63.9998 92.6667L63.9998 85.5Z" fill="#FED955"/>
<path d="M71.1668 42.5H78.3335V35.3333H71.1668V42.5Z" fill="#FED955"/>
<path d="M78.3333 42.5H85.5V35.3333H78.3333V42.5Z" fill="#9695F8"/>
<path d="M49.6667 42.5L42.5 42.5L42.5 35.3333L49.6667 35.3333L49.6667 42.5Z" fill="#9695F8"/>
<path d="M92.6667 85.5L85.5 85.5L85.5 78.3333L92.6667 78.3333L92.6667 85.5Z" fill="#9695F8"/>
<path d="M35.3333 85.5H42.5V78.3333H35.3333V85.5Z" fill="#9695F8"/>
<path d="M71.1668 35.333H78.3335V28.1663H71.1668V35.333Z" fill="#9695F8"/>
<path d="M71.1668 28.167H78.3335V21.0003H71.1668V28.167Z" fill="#5552FD"/>
<path d="M71.1668 107H78.3335V99.8333H71.1668V107Z" fill="#5552FD"/>
<path d="M71.1668 99.833H78.3335V92.6663H71.1668V99.833Z" fill="#9695F8"/>
<path d="M56.8333 35.333H64V28.1663H56.8333V35.333Z" fill="#9695F8"/>
<path d="M56.8333 28.167H64V21.0003H56.8333V28.167Z" fill="#5552FD"/>
<path d="M56.8333 107H64V99.8333H56.8333V107Z" fill="#5552FD"/>
<path d="M56.8333 99.833H64V92.6663H56.8333V99.833Z" fill="#9695F8"/>
<path d="M63.9998 35.333H71.1665V28.1663H63.9998V35.333Z" fill="#9695F8"/>
<path d="M63.9998 28.167H71.1665V21.0003H63.9998V28.167Z" fill="#5552FD"/>
<path d="M63.9998 107H71.1665V99.8333H63.9998V107Z" fill="#5552FD"/>
<path d="M63.9998 99.833H71.1665V92.6663H63.9998V99.833Z" fill="#9695F8"/>
<path d="M49.6668 35.333H56.8335V28.1663H49.6668V35.333Z" fill="#9695F8"/>
<path d="M49.6668 28.167H56.8335V21.0003H49.6668V28.167Z" fill="#5552FD"/>
<path d="M49.6668 107H56.8335V99.8333H49.6668V107Z" fill="#5552FD"/>
<path d="M49.6668 99.833H56.8335V92.6663H49.6668V99.833Z" fill="#9695F8"/>
<path d="M85.4998 49.667H92.6665V42.5003H85.4998V49.667Z" fill="#9695F8"/>
<path d="M42.5002 49.667L35.3335 49.667L35.3335 42.5003L42.5002 42.5003L42.5002 49.667Z" fill="#9695F8"/>
<path d="M85.5002 92.667L78.3335 92.667L78.3335 85.5003L85.5002 85.5003L85.5002 92.667Z" fill="#9695F8"/>
<path d="M42.4998 92.667H49.6665V85.5003H42.4998V92.667Z" fill="#9695F8"/>
<path d="M92.6668 56.833H99.8335V49.6663H92.6668V56.833Z" fill="#9695F8"/>
<path d="M28.1668 56.833H35.3335V49.6663H28.1668V56.833Z" fill="#9695F8"/>
<path d="M20.9998 56.833H28.1665V49.6663H20.9998V56.833Z" fill="#5552FD"/>
<path d="M28.1668 49.667H35.3335V42.5003H28.1668V49.667Z" fill="#5552FD"/>
<path d="M99.8332 49.667L92.6665 49.667L92.6665 42.5003L99.8332 42.5003L99.8332 49.667Z" fill="#5552FD"/>
<path d="M78.3333 99.833H85.5V92.6663H78.3333V99.833Z" fill="#5552FD"/>
<path d="M28.1665 78.3333V85.5H35.3332V78.3333H28.1665Z" fill="#5552FD"/>
<path d="M35.3333 42.5H42.5V35.3333H35.3333V42.5Z" fill="#5552FD"/>
<path d="M92.6667 42.5L85.5 42.5L85.5 35.3333L92.6667 35.3333L92.6667 42.5Z" fill="#5552FD"/>
<path d="M85.4998 92.667H92.6665V85.5003H85.4998V92.667Z" fill="#5552FD"/>
<path d="M35.3335 85.5003V92.667H42.5002V85.5003H35.3335Z" fill="#5552FD"/>
<path d="M42.4998 35.333H49.6665V28.1663H42.4998V35.333Z" fill="#5552FD"/>
<path d="M85.5002 35.333L78.3335 35.333L78.3335 28.1663L85.5002 28.1663L85.5002 35.333Z" fill="#5552FD"/>
<path d="M92.6668 85.5H99.8335V78.3333H92.6668V85.5Z" fill="#5552FD"/>
<path d="M42.5 92.6663V99.833H49.6667V92.6663H42.5Z" fill="#5552FD"/>
<path d="M99.8333 56.833H107V49.6663H99.8333V56.833Z" fill="#5552FD"/>
<path d="M92.6668 64H99.8335V56.8333H92.6668V64Z" fill="#9695F8"/>
<path d="M28.1668 64H35.3335V56.8333H28.1668V64Z" fill="#9695F8"/>
<path d="M20.9998 64H28.1665V56.8333H20.9998V64Z" fill="#5552FD"/>
<path d="M99.8333 64H107V56.8333H99.8333V64Z" fill="#5552FD"/>
<path d="M92.6668 71.167H99.8335V64.0003H92.6668V71.167Z" fill="#9695F8"/>
<path d="M28.1668 71.167H35.3335V64.0003H28.1668V71.167Z" fill="#9695F8"/>
<path d="M20.9998 71.167H28.1665V64.0003H20.9998V71.167Z" fill="#5552FD"/>
<path d="M99.8333 71.167H107V64.0003H99.8333V71.167Z" fill="#5552FD"/>
<path d="M92.6668 78.333H99.8335V71.1663H92.6668V78.333Z" fill="#9695F8"/>
<path d="M28.1668 78.333H35.3335V71.1663H28.1668V78.333Z" fill="#9695F8"/>
<path d="M20.9998 78.333H28.1665V71.1663H20.9998V78.333Z" fill="#5552FD"/>
<path d="M99.8333 78.333H107V71.1663H99.8333V78.333Z" fill="#5552FD"/>
<path d="M71.1668 85.5L78.3335 85.5L78.3335 92.6667L71.1668 92.6667L71.1668 85.5Z" fill="#FED955"/>
<path d="M63.9998 56.833H71.1665V49.6663H63.9998V56.833Z" fill="#FED955"/>
<path d="M63.9998 71.167H71.1665V64.0003H63.9998V71.167Z" fill="#FED955"/>
<path d="M63.9998 78.333H71.1665V71.1663H63.9998V78.333Z" fill="#FED955"/>
<path d="M63.9998 49.667H71.1665V42.5003H63.9998V49.667Z" fill="#FED955"/>
<path d="M63.9998 78.333L71.1665 78.333L71.1665 85.4997L63.9998 85.4997L63.9998 78.333Z" fill="#FED955"/>
<path d="M49.6668 71.167H56.8335V64.0003H49.6668V71.167Z" fill="#FED955"/>
<path d="M49.6668 64H56.8335V56.8333H49.6668V64Z" fill="#FED955"/>
<path d="M49.6668 78.333H56.8335V71.1663H49.6668V78.333Z" fill="#FED955"/>
<path d="M49.6668 49.667H56.8335V42.5003H49.6668V49.667Z" fill="#FED955"/>
<path d="M49.6668 78.333L56.8335 78.333L56.8335 85.4997L49.6668 85.4997L49.6668 78.333Z" fill="#FED955"/>
<path d="M71.1668 71.167H78.3335V64.0003H71.1668V71.167Z" fill="#FED955"/>
<path d="M71.1668 64H78.3335V56.8333H71.1668V64Z" fill="#FED955"/>
<path d="M71.1668 78.333H78.3335V71.1663H71.1668V78.333Z" fill="#FED955"/>
<path d="M71.1668 49.667H78.3335V42.5003H71.1668V49.667Z" fill="#FED955"/>
<path d="M71.1668 78.333L78.3335 78.333L78.3335 85.4997L71.1668 85.4997L71.1668 78.333Z" fill="#FED955"/>
<path d="M56.8333 42.5H64V35.3333H56.8333V42.5Z" fill="#FED955"/>
<path d="M56.8333 85.5L64 85.5L64 92.6667L56.8333 92.6667L56.8333 85.5Z" fill="#FED955"/>
<path d="M49.6668 42.5H56.8335V35.3333H49.6668V42.5Z" fill="#FED955"/>
<path d="M49.6668 85.5L56.8335 85.5L56.8335 92.6667L49.6668 92.6667L49.6668 85.5Z" fill="#FED955"/>
<path d="M56.8333 56.833H64V49.6663H56.8333V56.833Z" fill="#FED955"/>
<path d="M56.8333 71.167H64V64.0003H56.8333V71.167Z" fill="#FED955"/>
<path d="M49.6668 56.833H56.8335V49.6663H49.6668V56.833Z" fill="#5552FD"/>
<path d="M63.9998 64H71.1665V56.8333H63.9998V64Z" fill="#5552FD"/>
<path d="M78.3333 56.833H85.5V49.6663H78.3333V56.833Z" fill="#5552FD"/>
<path d="M78.3333 71.167H85.5V64.0003H78.3333V71.167Z" fill="#5552FD"/>
<path d="M78.3333 64H85.5V56.8333H78.3333V64Z" fill="#5552FD"/>
<path d="M78.3333 78.333H85.5V71.1663H78.3333V78.333Z" fill="#5552FD"/>
<path d="M78.3333 49.667H85.5V42.5003H78.3333V49.667Z" fill="#5552FD"/>
<path d="M78.3333 78.333L85.5 78.333L85.5 85.4997L78.3333 85.4997L78.3333 78.333Z" fill="#5552FD"/>
<path d="M42.4998 56.833H49.6665V49.6663H42.4998V56.833Z" fill="#5552FD"/>
<path d="M42.4998 71.167H49.6665V64.0003H42.4998V71.167Z" fill="#5552FD"/>
<path d="M42.4998 64H49.6665V56.8333H42.4998V64Z" fill="#5552FD"/>
<path d="M42.4998 78.333H49.6665V71.1663H42.4998V78.333Z" fill="#5552FD"/>
<path d="M42.4998 49.667H49.6665V42.5003H42.4998V49.667Z" fill="#5552FD"/>
<path d="M42.4998 78.333L49.6665 78.333L49.6665 85.4997L42.4998 85.4997L42.4998 78.333Z" fill="#5552FD"/>
<path d="M71.1668 56.833H78.3335V49.6663H71.1668V56.833Z" fill="#5552FD"/>
<path d="M56.8333 64H64V56.8333H56.8333V64Z" fill="#5552FD"/>
<path d="M56.8333 78.333H64V71.1663H56.8333V78.333Z" fill="#FED955"/>
<path d="M56.8333 49.667H64V42.5003H56.8333V49.667Z" fill="#FED955"/>
<path d="M56.8333 78.333L64 78.333L64 85.4997L56.8333 85.4997L56.8333 78.333Z" fill="#FED955"/>
<path d="M85.4998 56.833H92.6665V49.6663H85.4998V56.833Z" fill="#FED955"/>
<path d="M85.4998 71.167H92.6665V64.0003H85.4998V71.167Z" fill="#FED955"/>
<path d="M85.4998 64H92.6665V56.8333H85.4998V64Z" fill="#FED955"/>
<path d="M85.4998 78.333H92.6665V71.1663H85.4998V78.333Z" fill="#FED955"/>
</g>
<defs>
<clipPath id="clip0_33233:167686">
<rect width="86" height="86" fill="white" transform="translate(21 21)"/>
</clipPath>
</defs>
</svg>
