<svg width="128" height="128" viewBox="0 0 128 128" fill="none" xmlns="http://www.w3.org/2000/svg">
<path d="M128 64C128 28.6538 99.3462 0 64 0C28.6538 0 0 28.6538 0 64C0 99.3462 28.6538 128 64 128C99.3462 128 128 99.3462 128 64Z" fill="#1AAB9B"/>
<path d="M32.5396 83.0272V53.1771L54.9774 70.2126V83.0272H60.7063V69.0109C60.7063 67.9515 60.2129 66.9538 59.3739 66.3169L32.162 45.6569C29.9598 43.9847 26.8108 45.57 26.8108 48.3508V83.0272H32.5396Z" fill="white"/>
<path d="M94.5954 83.0272V53.1771L72.1577 70.2126V83.0272H66.429V69.0109C66.429 67.9515 66.9224 66.9538 67.7614 66.3169L94.9733 45.6569C97.1752 43.9847 100.324 45.57 100.324 48.3508V83.0272H94.5954Z" fill="white"/>
</svg>
