<?xml version="1.0" encoding="utf-8"?>
<!-- Generator: Adobe Illustrator 24.2.0, SVG Export Plug-In . SVG Version: 6.00 Build 0)  -->
<svg version="1.1" id="图层_1" xmlns="http://www.w3.org/2000/svg" xmlns:xlink="http://www.w3.org/1999/xlink" x="0px" y="0px"
	 viewBox="0 0 128 128" style="enable-background:new 0 0 128 128;" xml:space="preserve">
<style type="text/css">
	.st0{fill-rule:evenodd;clip-rule:evenodd;fill:#F29700;}
	.st1{fill-rule:evenodd;clip-rule:evenodd;fill:#F3B96B;}
	.st2{fill-rule:evenodd;clip-rule:evenodd;fill:#F4AA41;}
	.st3{fill-rule:evenodd;clip-rule:evenodd;fill:#F6BE96;}
	.st4{fill-rule:evenodd;clip-rule:evenodd;fill:url(#Fill-29_1_);}
	.st5{fill-rule:evenodd;clip-rule:evenodd;fill:#494745;}
	.st6{fill-rule:evenodd;clip-rule:evenodd;fill:#C87D00;}
	.st7{fill-rule:evenodd;clip-rule:evenodd;fill:#272321;}
	.st8{fill-rule:evenodd;clip-rule:evenodd;fill:url(#Fill-47_1_);}
	.st9{fill-rule:evenodd;clip-rule:evenodd;fill:url(#Fill-49_1_);}
	.st10{fill-rule:evenodd;clip-rule:evenodd;fill:#210906;}
	.st11{fill-rule:evenodd;clip-rule:evenodd;fill:url(#Fill-53_1_);}
	.st12{fill-rule:evenodd;clip-rule:evenodd;fill:#311F0C;}
	.st13{fill-rule:evenodd;clip-rule:evenodd;fill:#2A1C0A;}
	.st14{fill-rule:evenodd;clip-rule:evenodd;fill:#3A250F;}
	.st15{fill-rule:evenodd;clip-rule:evenodd;fill:url(#Fill-81_1_);}
	.st16{fill-rule:evenodd;clip-rule:evenodd;fill:url(#Fill-83_1_);}
	.st17{fill-rule:evenodd;clip-rule:evenodd;fill:url(#Fill-85_1_);}
	.st18{fill-rule:evenodd;clip-rule:evenodd;fill:url(#Fill-87_1_);}
	.st19{fill-rule:evenodd;clip-rule:evenodd;fill:#2C1D0A;}
	.st20{fill:#A85723;}
	.st21{fill-rule:evenodd;clip-rule:evenodd;fill:#EF9503;}
</style>
<g>
	<g id="编组" transform="translate(0.190766, 3.500000)">
		<g transform="translate(-0.000000, 0.000000)">
			<path id="Fill-1" class="st0" d="M122,62.2c0,31.9-25.8,57.8-57.8,57.8C32.4,120,6.5,94.1,6.5,62.2S32.4,4.5,64.3,4.5
				C96.2,4.5,122,30.3,122,62.2"/>
			<polygon id="Fill-3" class="st1" points="68.1,60.2 59.7,60.2 55.1,-0.2 73,-0.2 			"/>
			<polygon id="Fill-5" class="st1" points="66.5,58.4 59.2,62.6 25,12.6 40.5,3.7 			"/>
			<polygon id="Fill-7" class="st1" points="65.1,58.7 60.9,66 6.3,39.7 15.2,24.3 			"/>
			<polygon id="Fill-9" class="st1" points="61.3,58.4 68.6,62.7 102.8,12.6 87.3,3.7 			"/>
			<polygon id="Fill-11" class="st1" points="62.6,58.7 66.9,66 121.5,39.8 112.6,24.3 			"/>
			<polygon id="Fill-13" class="st2" points="68.4,61.1 60,61.1 55.4,121.5 73.3,121.5 			"/>
			<polygon id="Fill-15" class="st1" points="66.8,62.8 59.5,58.6 25.3,108.6 40.8,117.6 			"/>
			<polygon id="Fill-17" class="st1" points="65.4,62.6 61.2,55.3 6.6,81.5 15.5,97 			"/>
			<polygon id="Fill-19" class="st1" points="61.6,62.8 68.9,58.6 103.1,108.6 87.6,117.5 			"/>
			<polygon id="Fill-21" class="st1" points="62.9,62.6 67.2,55.3 121.8,81.5 112.9,97 			"/>
			<polygon id="Fill-23" class="st1" points="64.7,63.7 65,55.2 125.5,52.8 124.9,70.6 			"/>
			<polygon id="Fill-25" class="st1" points="63.9,63.9 63.6,55.5 3.1,53 3.7,70.9 			"/>
			<polygon id="Fill-27" class="st3" points="49.9,85.1 62.9,85.6 75,78.9 78.4,75.2 81.7,70.5 88.7,63.5 91.2,56.5 90.8,53 
				85.9,47.2 84.7,35.3 81.1,30.1 72.7,24.4 64.2,21 52.8,26.9 44.3,32.9 39.2,40.9 38.9,49.4 40.8,55.7 40.4,72.2 45.8,81.6 			"/>
		</g>
		<g transform="translate(253.835605, 132.814882)">
			<g id="Clip-30">
			</g>
			
				<linearGradient id="Fill-29_1_" gradientUnits="userSpaceOnUse" x1="-542.9977" y1="-448.2538" x2="-542.8727" y2="-448.2538" gradientTransform="matrix(474.9198 0 0 405.6643 257661.3438 181749.4531)">
				<stop  offset="0" style="stop-color:#727171"/>
				<stop  offset="1" style="stop-color:#444140"/>
			</linearGradient>
			<path id="Fill-29" class="st4" d="M-192.8-116.4c-1.1,0.2-2.2,0.3-3.3,0.4l0,0c-1.9,0.3-3.9,1.2-5.9,1.5l0,0
				c-2.4,0.5-5.1,0.9-7.1,2.4l0,0c-0.4,0.3-1,0.4-1.4,0.8l0,0c-0.7,0.7-0.7,1.8-0.7,2.7l0,0c0,0.8-0.2,1.8,0,2.6l0,0
				c0.1,0.3,0.1,0.7,0.1,1l0,0c-0.1,0.5-0.3,0.9-0.4,1.4l0,0c-0.5,1.8-3,2.4-4,3.8l0,0c-0.2,0.2-0.1,0.8,0,1l0,0
				c0.2,0.8-0.1,1.5-0.7,2.1l0,0c-0.8,0.8-2.4,0.8-2.9,2l0,0c-0.2,0.5,0,0.5,0.3,0.5l0,0c0.2,0,0.5,0,0.6,0.3l0,0
				c0.1,0.6-1.1,1.2-0.9,2.1l0,0c0.1,0.4,1,0.4,1.1,1l0,0c0.2,0.8-0.5,1.8-0.7,2.5l0,0c-0.3,1.1,0.1,3.7,0.7,4.7l0,0
				c0.4,0.7,0.9,1.6,1.5,2.1l0,0c0.4,0.3,1.2,0.8,1.5,1.2l0,0c0.6,0.8,0.8,2,1.3,2.9l0,0c0.3,0.6,0-0.7,0-1.1l0,0
				c0.1-0.6,0.4-1.1,0.5-1.6l0,0c0.2-0.7-0.1-1.7-0.1-2.4l0,0c0-0.7-0.3-1.5-0.4-2.2l0,0c-0.3-1.8-0.2-3.8,0.1-5.6l0,0
				c0.1-0.4-0.1-0.8,0-1.2l0,0c0.2-0.8,0.4-2,0.9-2.7l0,0c0.3-0.4,0.5-0.9,0.7-1.2l0,0c0.8-1.1,1.8-1.9,2.9-2.8l0,0
				c0.4-0.3,0.6-0.7,0.9-1l0,0c0,0,0.1-0.1,0.1-0.1l0,0c0.3,0.1,0,1-0.1,1.2l0,0c-0.1,0.5-0.2,1.1-0.3,1.6l0,0
				c-0.1,0.3-0.1,0.8-0.1,0.8l0,0c0,0,0.3-0.4,0.4-0.6l0,0c0.3-0.3,0.7-0.7,1-1l0,0c0.9-1.2,1.8-2.8,3.1-3.7l0,0
				c1.3-0.9,2.5-1.9,3.8-2.6l0,0c1.2-0.6,2.6-0.8,3.9-1.1l0,0c0.8-0.2,1.4-0.6,2.2-0.8l0,0c0.5-0.1,1.1-0.2,1.6-0.4l0,0
				c0.7-0.3,1.6-1.1,2-1.7l0,0c0.1-0.2,0.3-0.5,0.3-0.7l0,0v-0.3c0-0.1-0.1-0.3,0-0.3l0,0c0,0,0.2,0.4,0.3,0.4l0,0l0.7,0.7
				c0.9,0.9,2,1.8,3.2,2.1l0,0c1.4,0.3,2.9,0.6,4.3,0.9l0,0c0.9,0.2,1.7,0.9,2.6,1.1l0,0c0.6,0.1,1.3,0.3,1.8,0.5l0,0
				c0.3,0.1,0.5,0.4,0.7,0.6l0,0c0.8,0.5,1.8,0.5,2.3,1.3l0,0c0.5,0.7-0.1,1.5-0.4,2.1l0,0c-0.8,1.5-0.6,2.8-0.9,4.3l0,0
				c-0.2,1.4,0.2,2.8-0.1,4.2l0,0c-0.2,1.3-0.9,2.8,0,4l0,0c0.4,0.5,1.3,0.5,1.7,1.1l0,0c0,0.1,0,0.5,0,0.5l0,0c0,1.6-2,1.2-2.4,2.3
				l0,0c-0.4,1.1,1.1,2.1,1.5,2.9l0,0c0.1,0.1,0,0.5,0,0.7l0,0c0,1.7-1.3,3-1.6,4.7l0,0c-0.2,1.3,0.8,2.2,1.1,3.4l0,0
				c0.1,0.5,0,1.1,0,1.6l0,0c0,1.2-0.3,1.9,0.4,2.9l0,0c0.2,0.2,0.4,0.8,0.8,0.8l0,0c0.6,0,1.2-2.1,1.3-2.5l0,0c0.8-2,0.5-4.1,1-6.2
				l0,0c0.3-1.2,0.1-2.2,0.9-3.2l0,0c0.7-1,3.3-1.8,4.2-0.8l0,0c0.2,0.2,0.3,1,0.5,1l0,0c0.1,0,0-0.1,0-0.2l0,0
				c0.1-0.4,0.5-1.8,1-1.7l0,0c0.6,0.2,0.9,0.4,1.3,0.8l0,0c0.1,0.1,0.5,0.8,0.7,0.7l0,0c0.3-0.2,0.5-1.1,0.6-1.4l0,0
				c0.3-1.1,1-2.2,1.2-3.3l0,0c0.2-0.8,0.7-1.5,0.9-2.3l0,0c0.1-0.5,0-1,0.1-1.5l0,0c0.3-1.9,0.1-3.9-0.4-5.6l0,0
				c-0.2-0.6-0.6-1.2-0.7-1.8l0,0c-0.3-1.3,0.1-3,0.4-4.2l0,0c0.3-1.3-0.2-2.9-0.4-4.2l0,0c-0.1-0.4,0-0.8-0.2-1.2l0,0
				c-1.1-3.2-6.1-3.2-8.4-5l0,0c-0.7-0.5-1-1.7-1.5-2.3l0,0c-0.8-1.1-1.8-1.8-2.9-2.6l0,0c-0.4-0.2-0.9-0.3-1.3-0.4l0,0
				c-1.6-0.6-3.3-0.9-5-1.2l0,0c-1.1-0.2-2-0.9-3-1.2l0,0c-0.7-0.2-1.4-0.1-2.2-0.1l0,0c-0.7,0.1-1.4,0.1-2,0l0,0
				c-0.8-0.2-1.7-0.1-2.5-0.2l0,0c-0.6-0.1-1.3-0.2-1.9-0.2l0,0C-192.2-116.5-192.5-116.4-192.8-116.4"/>
		</g>
		<g transform="translate(295.231649, 247.159346)">
			<path id="Fill-31" class="st5" d="M-252.5-203.5c-0.4-1-0.1-2.8,0.7-3.6c0.6-0.6,1.7-0.8,2.4-0.9c1-0.2,1.9,0.1,2.9,0.3
				c0.3,0.1,0.3,0.4,0.6,0.4c0.1,0,1.3,0.2,1.2,0.5c-0.4,0.7-1.2,0.4-1.8,0.5c-1.1,0.2-2.1,0.2-3.1,0.6c-0.8,0.3-1.4,1.2-2,1.8
				C-251.9-203.7-252.4-203.1-252.5-203.5"/>
			<path id="Fill-33" class="st5" d="M-234.4-207.7c-0.1,0.2,0-0.5,0.2-0.6c0.4-0.3,1-0.4,1.5-0.5c0.9-0.1,1.9,0.3,2.8,0.1
				c1.1-0.2,2.1-0.8,3.1-0.9c2.3-0.4,3.1,1,3.9,2.8c0.1,0.3,0.4,0.5,0.5,0.9c0.1,0.5,0,2-0.2,2.5c-0.2,0.5-0.8,1.1-1.5,1
				c-0.8-0.2-1.7-2.3-2.3-2.9c-0.3-0.3-1.2-0.5-1.6-0.5c-0.3-0.1-0.6-0.3-0.9-0.3c-1.1-0.2-2.3,0-3.5-0.2c-0.6-0.1-1.1-0.2-1.5-0.5
				C-234.1-207.1-234.4-207.9-234.4-207.7"/>
			<path id="Fill-35" class="st6" d="M-240.6-215.1c-0.2,0-0.3-0.3-0.1-0.4c4.6,0.5,9.1-1.4,13.7-0.9c1.4,0.3,2.8,0.9,4.1,1.5
				c0.2,1.1-2-0.6-2.3-0.5c-0.8-0.2-1.6-0.6-2.4-0.7C-231.9-216.3-236.1-214.6-240.6-215.1"/>
			<path id="Fill-37" class="st6" d="M-243.5-213.4c-0.2-0.1-0.1-0.5,0.2-0.4c6.6,3.6,13.8-3.8,20.2,0.9c0.8,0.4,1.6,0.9,2.4,1.2
				c0.2,0,0.9,0.3,0.6,0.6c-0.7,0.1-1.3-0.7-1.9-0.8c-2.1-1.4-4.6-2.2-7.1-2.4C-234-213.4-238.9-210.9-243.5-213.4"/>
			<path id="Fill-39" class="st6" d="M-246.3-211.4c-0.6-0.2,0.4-0.8,0.7-0.4c2.6-0.5,4.9,1.1,7.4,1.1c3.6-0.8,7.1-2.4,10.8-2.2
				c2.7,0.7,4.9,2.5,7.4,3.5c0.3,0.6-0.9,0.4-0.9,0c-2.3-0.8-4.2-2.5-6.6-3.1c-4.9-0.6-9.6,3.8-14.4,1.5c-0.4-0.1-0.7-0.2-1.1-0.3
				C-244-211.4-245.1-211.3-246.3-211.4"/>
			<path id="Fill-41" class="st6" d="M-247.8-209.5c-1.2-1.1,3.6-0.7,4-0.4c0.3,0.1,0.6,0.3,0.9,0.4c0.2,0.1,0.3,0.1,0.4,0.2
				c0.9,0.1,0.2,1.1-0.2,0.4c-0.1-0.1-0.3-0.1-0.4-0.2c-0.4-0.2-0.8-0.4-1.2-0.5C-245.4-209.8-246.6-209.9-247.8-209.5"/>
			<path id="Fill-43" class="st6" d="M-233.5-209.9c-0.2,0-0.3-0.3-0.1-0.4c2.4,0.1,4.8-0.6,7.3-0.5c0.5,0.5-0.9,0.6-1,0.4
				C-229.4-210.2-231.5-209.9-233.5-209.9"/>
			<path id="Fill-45" class="st7" d="M-223.4-166.2c-0.6,0.3-1.2,0.4-1.9,0.5C-224.6-165.9-224-166.1-223.4-166.2 M-203.5-191
				c0-0.4,0-0.8-0.4-1c0,0-0.1-0.1-0.1-0.1c-0.2-0.8-0.6-1.5-1.4-1.9c-0.9-1.1-1.8,0.6-0.4,0.6c0.2,0.1,0.3,0.2,0.5,0.4
				c0.3,0.2,0.5,0.5,0.6,0.9c0.4,1.1,0.1,2.4-0.2,3.6c-0.6,1.6-1.6,2.9-2,4.6c-0.6,0.6-1.1,1.2-1.7,1.8c-1.1,0.9-2,1.9-2.9,3
				c-0.9,0.9-1.8,1.8-2.7,2.7c-1.8,3.3-4.4,6-7.1,8.5c-1.9,1.3-4.3,1.6-6.5,2.3c-1.2,0.6-2.3,1.2-3.5,1.6c-1.8,0.9-3.7,1.6-5.7,1.6
				c-8.3,2.1-15.7-5.6-17.5-13.1c-0.2-1.2,0.1-2.4,0-3.6c0-0.3,0-0.6,0-0.8c0.2-1.2,0.3-2.4,0.3-3.6c0.1-1.4,0.1-2.9,0.1-4.4
				c0-0.2,0-0.3-0.1-0.5c0-2-0.1-3.9-0.1-5.9c0-0.2-0.4-0.2-0.4,0.1c0,0.2,0,0.5-0.1,0.7c-0.2-0.1-0.6,0.1-0.5,0.4
				c1.1,5.9-0.3,11.9,0,17.8c0.5,1.8,1.2,3.5,2.1,5.2c0.6,1.1,1.4,2.2,2.2,3.2c0.1,0.1,0.1,0.2,0.2,0.2c0.1,0.1,0.3,0.3,0.4,0.4
				c2,2.1,4.5,3.8,7.3,4.6c0.9,0.2,1.8,0.4,2.7,0.4c1.5,0.1,2.9,0,4.4-0.4c1.2-0.1,2.3-0.5,3.4-0.9c2-0.6,3.9-1.3,5.7-2.4
				c1.3-0.3,2.8-0.2,4-1c0.5-0.4,1-0.7,1.5-1.1c0.3-0.2,0.6-0.4,0.9-0.6c2.3-2.3,4.6-4.6,6.2-7.3c0.4-0.5,0.8-1,1.2-1.6
				c2.2-2.3,4.5-4.5,6.7-6.9c0-0.1,0-0.1,0-0.1c0.1-0.1,0.2-0.2,0.3-0.4c0.2-0.3,0.3-0.6,0.4-0.9c0-0.2,0-0.3,0-0.5
				c0.5-1,1.1-2,1.4-3.2C-203.8-189.4-203.5-190.1-203.5-191"/>
		</g>
		<g transform="translate(529.680788, 643.170774)">
			<g id="Clip-48">
			</g>
			
				<linearGradient id="Fill-47_1_" gradientUnits="userSpaceOnUse" x1="-1109.1328" y1="-479.2478" x2="-1109.0078" y2="-479.2478" gradientTransform="matrix(30.4051 0 0 12.0738 33262.8906 5224.0864)">
				<stop  offset="0" style="stop-color:#9FA0A0"/>
				<stop  offset="1" style="stop-color:#6F6E6E"/>
			</linearGradient>
			<path id="Fill-47" class="st8" d="M-457.4-562.8c-0.2,0.1-0.3,0.2-0.5,0.3l0,0c-0.3,0.1-0.7,0.2-1,0.3l0,0c-0.2,0-0.4,0-0.6,0
				l0,0c-0.6-0.5-1.3,0.6-0.5,0.7l0,0c0.6,0,1.3,0,1.9-0.2l0,0c0.3-0.1,0.7-0.2,1-0.4l0,0c0.8,0,0.7-0.9,0.2-0.9l0,0
				C-457.1-563-457.2-563-457.4-562.8"/>
		</g>
		<g transform="translate(546.681821, 691.623048)">
			<g id="Clip-50">
			</g>
			
				<linearGradient id="Fill-49_1_" gradientUnits="userSpaceOnUse" x1="-1190.521" y1="-489.0531" x2="-1190.396" y2="-489.0531" gradientTransform="matrix(7.5081 0 0 10.2036 8463.2695 4385.3213)">
				<stop  offset="0" style="stop-color:#9FA0A0"/>
				<stop  offset="1" style="stop-color:#6F6E6E"/>
			</linearGradient>
			<path id="Fill-49" class="st9" d="M-475.2-605.1c-0.4,0.5,0.3,1.3,0.7,0.7l0,0c0.4-0.4,0-1.1-0.4-1.1l0,0
				C-475-605.4-475.1-605.3-475.2-605.1"/>
		</g>
		<g transform="translate(459.299797, 388.008959)">
			<g id="Clip-52">
			</g>
			<path id="Fill-51" class="st10" d="M-396.2-339.5c-0.3,0.1-0.6,0.3-0.9,0.4l0,0c-0.2,0.1-0.5,0.2-0.7,0.4l0,0
				c-0.2,0.1-0.4,0.2-0.6,0.4l0,0c-0.8,0.3-0.3,1.3,0.1,1.3l0,0c2.1,1.3,4.7,1.2,7,0.9l0,0c0.6-0.4-0.4-1-0.8-0.6l0,0
				c-0.9,0.1-1.8,0.1-2.7,0l0,0c0,0,0.1-0.1,0.1-0.1l0,0c0.2-0.2,0.3-0.5,0.3-0.7l0,0c0.4-0.5,0-1.1-0.5-1.6l0,0
				c0.8,0,1.6,0.1,2.3,0.3l0,0c0.3,0.1,0.6,0.4,0.9,0.6l0,0c0.1,0.1,0.3,0.2,0.5,0.4l0,0c0.5,0.8,1.3-0.3,0.4-0.5l0,0
				c-0.2-0.1-0.4-0.3-0.6-0.5l0,0c-0.4-0.2-0.7-0.5-1.1-0.6l0,0c-0.6-0.2-1.3-0.3-2-0.3l0,0C-395-339.8-395.6-339.7-396.2-339.5"/>
		</g>
		<g transform="translate(322.637308, 389.545398)">
			<g id="Clip-54">
			</g>
			
				<linearGradient id="Fill-53_1_" gradientUnits="userSpaceOnUse" x1="-685.8103" y1="-453.4226" x2="-685.6852" y2="-453.4226" gradientTransform="matrix(48.0262 0 0 30.1075 32657.6211 13312.2031)">
				<stop  offset="0" style="stop-color:#190806"/>
				<stop  offset="1" style="stop-color:#240001"/>
			</linearGradient>
			<path id="Fill-53" class="st11" d="M-276.2-341.1c-0.4,0-0.7,0-1.1,0.1l0,0c-0.3,0.1-0.6,0.2-0.8,0.4l0,0
				c-0.2,0.1-0.4,0.3-0.6,0.4l0,0c-0.1,0.1-0.3,0.3-0.4,0.5l0,0c-0.3,0.3-0.1,0.7,0.1,0.8l0,0c0,0,0,0,0.1,0.1l0,0
				c1,1,2.4,1.3,3.7,1.3l0,0c0.1,0.1,0.2,0.1,0.3,0.1l0,0c0.1,0,0.3,0,0.5-0.1l0,0c0.1,0,0.1,0,0.2,0l0,0c0,0,0,0,0-0.1l0,0
				c0.6-0.2,1.2-0.7,0.6-1l0,0c-0.3,0-0.5,0.2-0.7,0.3l0,0c-0.1,0-0.2,0.1-0.3,0.1l0,0c-0.2,0-0.4,0-0.7,0l0,0
				c0.5-0.5,0.6-1.4,0.3-2l0,0c0.1,0.1,0.3,0.1,0.4,0.2l0,0c0.5,0.9,1.4-0.2,0.5-0.5l0,0c-0.1-0.1-0.3-0.2-0.5-0.3l0,0
				c-0.4-0.2-1-0.3-1.5-0.3l0,0C-276.1-341.1-276.2-341.1-276.2-341.1 M-276.4-340.2c0.2,0,0.3,0,0.5,0l0,0
				c-0.2,0.1-0.3,0.2-0.4,0.4l0,0c-0.3-0.3-1-0.2-1.2,0.3l0,0c0-0.1,0-0.3,0.1-0.4l0,0c0.1,0,0.2-0.1,0.3-0.2l0,0
				c0.1,0,0.2-0.1,0.4-0.1l0,0c0,0,0.1,0,0.1,0l0,0C-276.6-340.1-276.5-340.1-276.4-340.2 M-278.1-339c0-0.2-0.2-0.3-0.3-0.3l0,0
				c0-0.1,0.1-0.2,0.2-0.4l0,0C-278.2-339.5-278.2-339.2-278.1-339L-278.1-339C-278.1-339-278.1-339-278.1-339 M-277.5-339.1
				c0-0.1,0-0.1,0-0.2l0,0C-277.5-339.3-277.5-339.2-277.5-339.1L-277.5-339.1C-277.5-339.2-277.5-339.2-277.5-339.1L-277.5-339.1
				L-277.5-339.1"/>
		</g>
		<g transform="translate(327.123484, 418.877015)">
			<path id="Fill-55" class="st6" d="M-277.6-366c-0.2-0.1-0.6-0.1-0.8,0.2c-0.2,0-0.5,0.1-0.7,0.1c-0.6,0.1-1.3,0-1.9,0
				c-0.3-0.1-0.6-0.2-0.9-0.4c-0.1-0.1-0.2-0.2-0.3-0.3c-0.1-0.7-1.3-0.4-0.8,0.2c1.2,1.4,3.2,1.5,4.9,1c-0.7,0.8-1.5,1.4-2.4,1.9
				c-0.7,0.2-1.5,0.4-2,0.9c0.2,0.1,0.4,0.1,0.6,0.1c0,0,0.1,0,0.1,0s0.1,0,0.1,0c0.5,0,1-0.1,1.5-0.4c1.4-0.4,2.8-1.2,3.1-2.7v0
				C-276.9-365.8-277.1-366.3-277.6-366"/>
			<path id="Fill-57" class="st6" d="M-258-365.6c-0.2,0.1-0.3,0.2-0.5,0.3c-0.5,0.2-1,0.4-1.6,0.5c-1,0.2-2.1,0.2-3.1,0.2
				c-1-0.1-1.8-0.7-2.5-1.4c-0.1-0.1-0.2-0.2-0.4-0.4c-0.1-0.2-0.2-0.3-0.4-0.3c-0.4-0.4-0.6-0.4-0.7,0.3c1.4,2.9,5.3,4.2,8.2,2.8
				c0.4-0.2,0.9-0.5,1.2-0.9c0.1-0.2,0.2-0.4,0.3-0.5c0.1-0.1,0.2-0.2,0.2-0.3C-256.8-365.6-257.6-366.3-258-365.6"/>
			<path id="Fill-59" class="st12" d="M-275.8-356.6c-0.1-0.3-0.4-0.4-0.7-0.3c-0.1,0-0.1,0-0.2,0c-0.4-0.5-0.7-0.8-1.1-0.2
				c0.4,1.1,1.5,2.5,2.4,1.5c0.1-0.1,0.1-0.2,0.1-0.2c0.2-0.1,0.2-0.2,0.1-0.5C-275.4-356.6-275.6-356.5-275.8-356.6"/>
			<path id="Fill-61" class="st12" d="M-269.7-356.6c-0.7-0.5-1.8,0.1-2.6-0.1h-0.5c-0.4-0.3-0.8,0-0.8,0.3
				c-0.1,0.1-0.1,0.3,0.1,0.5c0.7,0.5,1.6,0.4,2.4,0.2c0.2,0,0.5,0,0.7-0.1c0.5,0.1,0.6-0.2,0.6-0.4
				C-269.7-356.3-269.7-356.4-269.7-356.6"/>
			<path id="Fill-63" class="st13" d="M-267-358.5C-267-358.5-267-358.6-267-358.5c-0.1-0.5-1.8-3.1-2-1.8c-0.2-0.1-0.4-0.2-0.6-0.3
				c-0.4-0.1-0.6,0.6-0.2,0.7c1.5,0.6,3,2.1,2.8,3.8c0,0.5-0.5,0.9-0.9,1c-0.3,0.1-0.7,0.1-1,0.1c-0.2,0-0.4,0-0.6-0.1
				c-0.9-0.5-0.9,1.1,0.1,0.7c0.4,0.1,0.8,0,1.1,0c0.6-0.1,1.3-0.3,1.6-0.9C-266-356.4-266.3-357.6-267-358.5"/>
			<path id="Fill-65" class="st6" d="M-280.4-355c1.9-0.1-1.7,2.6-1.6,3.4c-0.7,0.4,0,3.9-1.2,2.8
				C-283.3-351.2-281.9-353.3-280.4-355"/>
			<path id="Fill-67" class="st6" d="M-265.6-353.7c-0.1-0.8,1-0.4,0.8,0.3c0.1,0.2,0.2,0.3,0.3,0.5c1.2,2.1,2.8,4.1,2.9,6.6
				c0.5,1-1.1,1.1-0.7,0c0-0.2-0.1-0.4-0.1-0.6c-0.1-0.3-0.1-0.7-0.2-1C-263.4-349.9-264.7-351.7-265.6-353.7"/>
			<path id="Fill-69" class="st14" d="M-281.6-345.8c-0.2,0.2-0.6,0.1-0.6-0.2c0.3-0.8,1.2-1.2,1.6-2c1-1.6,2.8-3.3,4.9-2.4
				c0.5-0.1,0.9-0.4,1.4-0.4c3.9,0.9,7.4,3.1,10.4,5.7c0.2,0.2-0.1,0.6-0.4,0.5c-2.9-2.4-6.2-4.6-9.9-5.5c-0.5,0-0.9,0.4-1.4,0.4
				C-278.5-350.8-279.9-347.3-281.6-345.8"/>
			<path id="Fill-71" class="st14" d="M-268.1-346.8c0,0,0.1,0,0.1-0.1c0-0.2-0.3-0.3-0.5-0.3c-0.1,0-0.2-0.1-0.4-0.1
				c0,0,0-0.1-0.1-0.1c-2.6,0.3-5.3-0.5-7.9-0.8c-0.3,0.1-0.2,0.6,0.1,0.6c0,0,0,0.1,0,0.2c2.1,1.5,5.3,1.7,7.7,0.8
				c0.2,0,0.5,0,0.7-0.1C-268.1-346.6-268.1-346.7-268.1-346.8"/>
			<path id="Fill-73" class="st6" d="M-280.6-341.1c-0.7,0.6-0.9-1,0-1c0.2-0.2,0.3-0.3,0.5-0.4c0.2-0.1,0.3-0.2,0.5-0.3
				c2.1-0.8,4.5-0.7,6.7-0.2c3.1-0.7,6.4,0.1,8.7,2.1c0.2,0.1,0.1,0.4,0,0.5c-0.1,0.1-0.3,0.1-0.4,0c-2.3-2-5.5-2.6-8.4-2
				C-275.5-342.9-278.9-343.4-280.6-341.1"/>
			<path id="Fill-75" class="st6" d="M-258.3-349c0-0.8,1.2-0.2,0.8,0.5c0.5,2.5,0.5,6-2.2,7.3c-0.3,0.3-0.7,0.5-0.9,0.8
				c-0.1,0.3-0.2,0.6-0.2,1c0,0.3,0,0.6,0,1c0,0.3-0.1,0.6-0.3,0.9c-0.2,0.8-1.3,0.1-0.6-0.4c0.1-0.1,0.2-0.2,0.2-0.4
				c0-0.8-0.1-1.7,0.4-2.5c0.8-1.1,2.4-1.4,2.8-2.8C-257.8-345.4-258-347.3-258.3-349"/>
			<path id="Fill-77" class="st6" d="M-253.7-342.7c0.2-0.3,0.6-0.2,0.7,0.1c-0.8,2-2.4,3.6-3.9,5.2c-1.5-0.1,1-1.9,1.2-2.3
				C-254.9-340.6-254.2-341.6-253.7-342.7"/>
			<path id="Fill-79" class="st10" d="M-243.3-354.3c0.1-0.5,0.9-0.9,1.1-1.4c0.1-0.3-0.1-0.8,0-1.1c0.1-0.4,0.3-0.7,0.3-1.1
				c0-0.6-0.8-1.5-0.4-2.2c0.2-0.4,1.4-1.3,1.9-0.8c0.4,0.4,0.4,1,1,1.1c0.4,0.1,0.7-0.8,1.1-0.6c0.3,0.2-0.1,1.8-0.2,2.1
				c-0.4,1.6-1.9,2.6-3,3.6c-0.3,0.3-1,0.9-1.4,0.6C-243.3-354.1-243.4-354.1-243.3-354.3"/>
		</g>
		<g transform="translate(339.335224, 652.066797)">
			<g id="Clip-82">
			</g>
			
				<linearGradient id="Fill-81_1_" gradientUnits="userSpaceOnUse" x1="-1145.1868" y1="-630.6658" x2="-1145.1661" y2="-630.6658" gradientTransform="matrix(0.6663 0 0 2.0889 469.4351 746.8466)">
				<stop  offset="0" style="stop-color:#9FA0A0"/>
				<stop  offset="1" style="stop-color:#6F6E6E"/>
			</linearGradient>
			<path id="Fill-81" class="st15" d="M-293.6-570.4c0-0.1,0-0.2-0.1-0.2l0,0v0l0,0C-293.7-570.7-293.6-570.5-293.6-570.4"/>
		</g>
		<g transform="translate(342.894508, 658.414186)">
			<g id="Clip-84">
			</g>
			
				<linearGradient id="Fill-83_1_" gradientUnits="userSpaceOnUse" x1="-744.1714" y1="-488.2328" x2="-744.0464" y2="-488.2328" gradientTransform="matrix(12.3088 0 0 9.6838 8862.8926 4152.1948)">
				<stop  offset="0" style="stop-color:#9FA0A0"/>
				<stop  offset="1" style="stop-color:#6F6E6E"/>
			</linearGradient>
			<path id="Fill-83" class="st16" d="M-295.6-575.1c0.6-0.1-0.9-0.8-1.4-1.2l0,0C-296.5-576-296.2-575.1-295.6-575.1"/>
		</g>
		<g transform="translate(342.265415, 655.526803)">
			<g id="Clip-86">
			</g>
			
				<linearGradient id="Fill-85_1_" gradientUnits="userSpaceOnUse" x1="-780.3251" y1="-500.4532" x2="-780.2001" y2="-500.4532" gradientTransform="matrix(4.7399 0 0 7.3601 3402.2493 3110.0137)">
				<stop  offset="0" style="stop-color:#9FA0A0"/>
				<stop  offset="1" style="stop-color:#6F6E6E"/>
			</linearGradient>
			<path id="Fill-85" class="st17" d="M-296.4-573.5c0.6,1,0.7,0.5,0.5,0.1l0,0c-0.1-0.2-0.2-0.5-0.3-0.5l0,0
				C-296.3-573.8-296.4-573.7-296.4-573.5"/>
		</g>
		<g transform="translate(171.172227, 603.816155)">
			<g id="Clip-88">
			</g>
			
				<linearGradient id="Fill-87_1_" gradientUnits="userSpaceOnUse" x1="-377.4464" y1="-449.4837" x2="-377.32" y2="-449.4837" gradientTransform="matrix(633.9203 0 0 322.6858 239123.5156 144533.5781)">
				<stop  offset="0" style="stop-color:#1A1611"/>
				<stop  offset="1" style="stop-color:#462302"/>
			</linearGradient>
			<path id="Fill-87" class="st18" d="M-93.9-527.2c-0.1,0.1-0.2,0.3-0.3,0.5l0,0c-0.2-0.2-0.5,0.2-0.8,0.7l0,0
				c-0.1,0.1-0.2,0.2-0.2,0.3l0,0c-0.2,0.3-0.5,0.5-0.8,0.8l0,0c-0.1,0.1-0.2,0.2-0.3,0.3l0,0c-0.2,0-0.4,0.2-0.5,0.4l0,0
				c-0.2,0.2-0.5,0.4-0.6,0.5l0,0c-1.1,0.3-2.2,0.7-3.4,0.9l0,0c-0.8,0.2-1.4,0.9-2.2,1.2l0,0c-0.5,0.2-1.2,0.2-1.7,0.3l0,0
				c-1.1,0.2-2.6,0.9-3.5,1.4l0,0c-0.8,0.4-1.8,0.2-2.7,0.3l0,0c-0.8,0.1-1.5,0.6-2.4,0.8l0,0c-2.1,0.4-4.5-0.1-6.5-0.5l0,0
				c-0.3-0.1-0.4-0.4-0.6-0.4l0,0c-0.3,0-1.6-0.5-2.7-0.8l0,0c0,0,0-0.1,0-0.1l0,0c0-0.2-0.4-0.6-0.8-0.7l0,0
				c-0.2-0.2-0.6-0.5-0.8-0.5l0,0c-0.1-0.2-0.3-0.3-0.4,0.1l0,0c0-0.1-0.1-0.2-0.1-0.3l0,0c0,0.2,0,0.5,0.1,0.8l0,0
				c0,0,0.2,0.1,0.2,0.1l0,0c0.2,0.5,0.4,1,0.5,1.1l0,0c0.9,0.9,2.3,2.6,2.6,4l0,0c0.3,1.3-1.5,2.1-2.4,3l0,0
				c-1.5,1.5-0.7,4-1.1,5.8l0,0c-0.1,0.5-1.2,1-1.7,1.2l0,0c-1.4,0.6-2.9,0.7-4.3,1.1l0,0c-1.1,0.3-2.2,1-3.4,1.2l0,0
				c-1.2,0.2-2.5,0.3-3.6,0.8l0,0c-2.7,1-5.3,2.4-7.7,3.9l0,0c-0.2,0.1-0.3,0.2-0.5,0.2l0,0c3.7,2.1,7.1,4.5,10.5,7.1l0,0
				c1,0.8,1.9,1.6,2.9,2.5l0,0c2.2,0.2,4.4,0.5,6.7,0.7l0,0c1.4,0.1,2.9,0.1,4.3,0.2l0,0c1.3,0.1,2.9,0.3,4.3,0.1l0,0
				c6.2-0.9,12.7-0.9,18.8-0.1l0,0c1.6,0.2,3.8,0,5.4-0.3l0,0c1.2-0.2,2.5,0.1,3.6,0.3l0,0c1.3,0.2,2.7,0.2,4,0.4l0,0
				c1.6,0.2,3.2-0.2,4.7-0.4l0,0c0.1,0,0.2,0,0.3,0l0,0c1-0.3,2-0.6,3-0.8l0,0c1.7-1.3,3.4-2.6,5-4.1l0,0c2-1.9,3.8-4,5.9-5.8l0,0
				c-1.3-0.4-2.6-0.9-3.9-1.5l0,0c-1.1-0.5-2.4-0.6-3.5-1.1l0,0c-4.1-1.6-8.1-3.5-12.2-4.9l0,0c-2.3-0.8-2.7-1.8-3-4l0,0
				c-0.1-1-0.6-2-0.8-3l0,0c-0.1-0.4,0.3-1.4,0.1-1.7l0,0c-0.1-0.2-1.4-0.4-1.7-0.6l0,0c-0.9-0.7-0.8-2.2-0.6-3.2l0,0
				c0.4-2.3,0.3-4.7,0.8-7l0,0c0.1-0.4,0.4-2-0.4-2l0,0C-93.3-528.6-93.7-527.6-93.9-527.2"/>
		</g>
		<g transform="translate(23.932560, 23.991840)">
			<g id="Fill-89">
				<path class="st19" d="M47.6,33.4c-1.3,2.2-4.2,2.4-6.5,2.5c-2-0.2-4.1-0.8-5.8-1.9c-0.2-0.2-0.3-0.5-0.5-0.7
					c-0.1-0.5-0.4-0.6-0.6-0.6c-1-1.5-1.7-3.4-1-5.1c1.2-1.8,3.4-2.2,5.4-2.1C43.1,24.4,50.3,28.1,47.6,33.4 M24,35.7
					c-2.7,0.8-5.8,0.8-8.2-1c-0.8-0.8-1.5-1.7-1.7-2.8c-0.2-0.2-0.2-1.1-0.2-1.8c0.2,0,0.3-0.2,0.2-0.3c0,0,0-0.1,0-0.1
					c-0.1-0.7,0.2-1.5,0.6-2.1c0.7-0.6,1.6-0.8,2.3-1.3c4-0.6,9.8-1.5,11.5,3.3C29.5,32.6,27,35.6,24,35.7 M55.3,27.2
					c-2.3,0.6-4.8,0.8-7,1.6c-2.4-4.6-8.7-4.6-13.2-3.6c-0.5,0.2-0.9,0.5-1.3,0.7c-0.5,0.3-0.9,0.8-1.2,1.3
					c-1.1-0.5-2.4-0.7-3.5-0.3c-0.2,0.1-0.4,0.2-0.5,0.2c-0.2,0-0.3,0.1-0.4,0.2c-1.5-1.6-3.9-2.6-6.1-2.3c-0.8,0-1.6,0.1-2.4,0.2
					c-1.9-0.1-3.8,0.4-5.3,1.6c-0.3,0.3-0.5,0.6-0.5,1c-0.1,0.2-0.2,0.4-0.2,0.6c0,0.1,0,0.2-0.1,0.3c0,0-0.1,0-0.2,0.1
					c-0.5-0.2-1.1,0.5-0.5,0.7c0,0.1,0.1,0.2,0.3,0.2c0,2.3,1.1,4.7,3.2,5.8c3.3,2,7.5,1,10.9-0.5c2.2-1.4,2.9-4.6,1.7-6.9
					c-0.1-0.1-0.2-0.2-0.2-0.3c0.4-0.5,1.2-0.5,1.8-0.6c0.5,0,1,0.1,1.4,0.2c0.1,0.2,0.3,0.3,0.5,0.3c-0.5,1.7,0.1,3.7,1.2,5
					c0,0.3,0.2,0.4,0.3,0.5c0.1,0.1,0.2,0.2,0.3,0.2c0.2,0.3,0.4,0.6,0.7,0.9c0.8,0.6,1.8,0.9,2.8,1.3c2.8,1,6,0.9,8.8-0.3
					c2.1-1.2,3.2-3.9,2.2-6.2c1.8-0.7,3.8-0.9,5.8-1.3C54.9,28.5,56.2,27.6,55.3,27.2"/>
			</g>
			<g id="Stroke-91">
				<path class="st20" d="M39.9,100.5c-8.6,0-17-1.7-24.9-5C7.3,92.2,0.5,87.6-5.4,81.8S-15.9,69-19.1,61.4c-3.3-7.9-5-16.3-5-24.9
					s1.7-17,5-24.9C-15.9,4-11.2-2.9-5.4-8.7S7.4-19.2,15-22.5c7.9-3.4,16.3-5,24.9-5s17,1.7,24.9,5c7.6,3.2,14.5,7.8,20.3,13.7
					S95.6,4,98.8,11.6c3.3,7.9,5,16.3,5,24.9s-1.7,17-5,24.9C95.6,69,91,75.9,85.1,81.8S72.4,92.2,64.8,95.5
					C56.9,98.8,48.5,100.5,39.9,100.5z M39.9-15c-7,0-13.7,1.4-20,4.1C13.7-8.4,8.2-4.6,3.5,0.1C-1.3,4.8-5,10.3-7.6,16.5
					c-2.7,6.3-4.1,13.1-4.1,20s1.4,13.7,4.1,20.1c2.6,6.1,6.3,11.6,11,16.4c4.7,4.7,10.2,8.4,16.4,11c6.3,2.7,13.1,4.1,20,4.1
					s13.7-1.4,20-4.1c6.1-2.6,11.6-6.3,16.4-11c4.7-4.7,8.4-10.2,11-16.4c2.7-6.3,4.1-13.1,4.1-20c0-7-1.4-13.7-4.1-20
					c-2.6-6.1-6.3-11.6-11-16.4c-4.7-4.7-10.2-8.4-16.4-11C53.6-13.6,46.8-15,39.9-15z"/>
			</g>
		</g>
	</g>
	<g transform="translate(0.000000, 0.000000)">
		<polygon id="Fill-1_1_" class="st21" points="24.1,18 28.3,22.7 27.1,23.8 22.9,19.1 		"/>
		<g>
			<path id="Fill-2" class="st21" d="M31.9,16.5l1.6,2.2l-1.2,0.9l-1.5-2c-0.3-0.4-0.6-0.4-1-0.2c-0.4,0.3-0.4,0.7-0.1,1.1l1.4,1.9
				L30,21.3l-2.7-3.6l1.2-0.9l0.3,0.4c0-0.4,0.2-0.9,0.7-1.2C30.1,15.4,31.1,15.5,31.9,16.5"/>
			<path id="Fill-4" class="st21" d="M36.4,13.1c-0.8-1.7-0.2-3.6,1.5-4.4c1-0.5,2.2-0.4,3.1,0.2l-0.9,1.3c-0.4-0.3-1-0.3-1.5-0.1
				c-0.9,0.4-1.2,1.4-0.8,2.3s1.3,1.3,2.3,0.8C40.7,13,41,12.5,41,12l1.6,0.1c-0.1,1.1-0.8,2-1.8,2.5C39.1,15.5,37.2,14.8,36.4,13.1
				"/>
			<path id="Fill-6" class="st21" d="M47.1,9.6c-0.2-0.5-0.7-0.8-1.2-0.6c-0.5,0.2-0.7,0.6-0.6,1.2c0.2,0.5,0.7,0.8,1.2,0.6
				C47,10.6,47.3,10.1,47.1,9.6 M44,10.7c-0.4-1.3,0.3-2.6,1.5-3c1.3-0.4,2.6,0.2,3,1.5c0.4,1.3-0.2,2.6-1.5,3
				C45.7,12.6,44.4,11.9,44,10.7"/>
			<path id="Fill-8" class="st21" d="M53.7,8c-0.1-0.6-0.6-0.9-1.1-0.8c-0.5,0.1-0.8,0.6-0.7,1.1c0.1,0.6,0.6,0.9,1.1,0.8
				C53.5,9,53.8,8.5,53.7,8L53.7,8z M54.3,3.7l1.3,6.2l-1.5,0.3L54,9.8c-0.2,0.4-0.6,0.7-1.1,0.8c-1.2,0.2-2.3-0.6-2.5-1.9
				c-0.3-1.3,0.4-2.5,1.6-2.7c0.6-0.1,1,0,1.4,0.3L52.9,4L54.3,3.7z"/>
			<path id="Fill-10" class="st21" d="M60.4,6.6C60.2,6.1,59.9,6,59.5,6c-0.4,0-0.7,0.3-0.8,0.7L60.4,6.6z M59.8,8.2
				c0.3,0,0.6-0.2,0.8-0.4l1.1,0.7c-0.4,0.6-1.1,0.9-1.9,1c-1.5,0.1-2.6-0.8-2.7-2.1C57.1,6,58,4.9,59.4,4.8
				c1.3-0.1,2.4,0.8,2.5,2.2c0,0.2,0,0.4,0,0.6l-3.1,0.3C59,8.2,59.4,8.3,59.8,8.2L59.8,8.2z"/>
			<g transform="translate(514.585992, 0.000000)">
				<g id="Clip-13">
				</g>
				<polygon id="Fill-12" class="st21" points="-447,2.8 -445.3,3 -444.8,7.1 -443.2,3.3 -442,3.5 -441.3,7.5 -439.9,3.7 
					-438.2,3.9 -440.7,10 -442.4,9.8 -442.9,6.1 -444.4,9.5 -446.1,9.3 				"/>
			</g>
			<path id="Fill-14" class="st21" d="M80.4,8.7c0-0.5-0.3-0.7-0.7-0.8c-0.4-0.1-0.8,0-1,0.4L80.4,8.7z M79.3,10
				c0.3,0.1,0.6,0,0.9-0.1l0.8,1c-0.6,0.4-1.3,0.5-2.1,0.3c-1.5-0.4-2.2-1.6-1.8-2.9C77.4,7,78.7,6.3,80,6.7c1.3,0.3,2,1.6,1.6,2.9
				c-0.1,0.2-0.1,0.4-0.2,0.5l-3-0.8C78.5,9.7,78.8,9.9,79.3,10L79.3,10z"/>
			<polygon id="Fill-16" class="st21" points="91.8,11.1 90.4,10.4 88.4,14.7 87,14 89,9.7 87.5,9.1 88.2,7.7 92.5,9.7 			"/>
			<path id="Fill-18" class="st21" d="M95.7,13.5l-0.8,1.4c-0.5-0.4-1.3-0.5-1.7,0.2l-0.9,1.6L90.9,16l2.3-3.9l1.3,0.8l-0.4,0.7
				C94.5,13.1,95.2,13.2,95.7,13.5"/>
			<path id="Fill-20" class="st21" d="M101.1,17.3l-2.7,3.6l-1.2-0.9l0.3-0.4c-0.4,0.1-0.9,0.1-1.3-0.3c-0.8-0.5-1-1.5-0.2-2.5
				l1.6-2.2l1.2,0.9l-1.5,2c-0.3,0.4-0.2,0.8,0.1,1c0.4,0.3,0.8,0.2,1.1-0.2l1.4-1.9L101.1,17.3z"/>
			<path id="Fill-22" class="st21" d="M103.6,23.7c-0.8,0.8-1.8,0.4-2.5-0.2c-0.7-0.6-1-1.3-0.8-2.1l1.4,0.4
				c-0.1,0.3-0.1,0.6,0.2,0.8c0.2,0.2,0.3,0.2,0.5,0.1c0.3-0.4-1.5-1.6-0.4-2.8c0.7-0.8,1.7-0.5,2.4,0.1c0.6,0.5,0.9,1.2,0.7,2
				l-1.3-0.4c0.1-0.3,0-0.5-0.2-0.7c-0.2-0.1-0.3-0.2-0.4-0.1C102.8,21.2,104.8,22.4,103.6,23.7"/>
			<path id="Fill-24" class="st21" d="M107.4,25.2l-1,0.9c-0.3,0.3-0.1,0.5,0.3,1l-1,0.9c-1.4-1.2-1.4-2-0.3-3l1-0.9l-0.4-0.5l1.1-1
				l0.4,0.5l0.6-0.5l1.3,0.8l-0.9,0.9l0.6,0.7l-1.1,1L107.4,25.2z"/>
			<polygon id="Fill-26" class="st21" points="124,50 117.9,51.5 117.5,49.9 123.6,48.4 			"/>
			<path id="Fill-28" class="st21" d="M121.7,57.5L119,58l-0.2-1.5l2.5-0.4c0.5-0.1,0.7-0.4,0.6-0.8c-0.1-0.5-0.4-0.7-0.9-0.6
				l-2.4,0.4l-0.2-1.5l4.4-0.7l0.2,1.5l-0.4,0.1c0.4,0.2,0.7,0.6,0.8,1.2C123.5,56.5,123,57.3,121.7,57.5"/>
			<g transform="translate(927.439798, 482.575248)">
				<g id="Clip-31">
				</g>
				<path id="Fill-30" class="st21" d="M-804.9-419.4c1.8,0.1,3.2,1.5,3.2,3.4c0,1.1-0.7,2.2-1.6,2.7l-0.8-1.4
					c0.5-0.2,0.8-0.7,0.8-1.3c0-1-0.6-1.7-1.6-1.7c-1,0-1.7,0.6-1.8,1.6c0,0.6,0.2,1.1,0.7,1.4l-0.9,1.4c-0.9-0.6-1.4-1.6-1.4-2.8
					C-808.2-418.2-806.7-419.5-804.9-419.4"/>
			</g>
			<path id="Fill-32" class="st21" d="M120.7,74.2c0.6,0.1,1-0.2,1.1-0.8c0.1-0.5-0.2-0.9-0.8-1s-1,0.2-1.1,0.7
				C119.8,73.7,120.2,74.1,120.7,74.2 M121.2,71c1.3,0.2,2.2,1.4,2,2.8c-0.2,1.3-1.4,2.2-2.7,2c-1.3-0.2-2.2-1.4-2-2.8
				C118.7,71.6,119.9,70.7,121.2,71"/>
			<path id="Fill-34" class="st21" d="M119.1,80.8c0.6,0.2,1.1-0.1,1.2-0.6c0.2-0.5-0.1-1-0.7-1.2c-0.6-0.2-1.1,0.1-1.2,0.6
				C118.3,80.2,118.6,80.6,119.1,80.8L119.1,80.8z M122.6,83.4l-6.1-1.7l0.4-1.4l0.4,0.1c-0.2-0.4-0.3-0.8-0.2-1.4
				c0.3-1.2,1.6-1.8,2.9-1.4s2,1.5,1.7,2.7c-0.2,0.6-0.5,0.9-0.9,1.1l2.1,0.6L122.6,83.4z"/>
			<path id="Fill-36" class="st21" d="M117.2,87.4c0.5,0.1,0.8-0.2,0.9-0.5c0.2-0.4,0.1-0.8-0.2-1.1L117.2,87.4z M116,86.1
				c-0.1,0.3-0.1,0.6,0,0.9l-1.1,0.7c-0.3-0.6-0.3-1.4,0-2.1c0.6-1.4,1.9-1.9,3.2-1.4c1.2,0.5,1.8,1.8,1.3,3.1
				c-0.5,1.2-1.8,1.8-3.1,1.2c-0.2-0.1-0.3-0.2-0.5-0.3l1.2-2.9C116.5,85.4,116.2,85.7,116,86.1L116,86.1z"/>
			<polygon id="Fill-38" class="st21" points="117.2,95.5 116.2,96.9 112.4,95.5 115,98.6 114.3,99.7 110.4,98.3 113.1,101.4 
				112.1,102.8 107.9,97.8 108.9,96.4 112.4,97.6 110.1,94.7 111,93.3 			"/>
			<path id="Fill-40" class="st21" d="M106,104.1c0.4,0.2,0.8,0.1,1-0.2c0.3-0.3,0.4-0.7,0.1-1.1L106,104.1z M105.4,102.5
				c-0.2,0.2-0.3,0.5-0.3,0.8l-1.3,0.3c-0.1-0.7,0.2-1.4,0.7-2c1.1-1.1,2.5-1.1,3.4-0.2c1,0.9,1.1,2.3,0.1,3.4c-0.9,1-2.3,1-3.3,0.1
				c-0.1-0.1-0.3-0.3-0.4-0.4l2.1-2.3C106,102,105.7,102.2,105.4,102.5L105.4,102.5z"/>
			<polygon id="Fill-42" class="st21" points="98.6,113.1 99.8,112.2 97,108.4 98.3,107.4 101.1,111.2 102.4,110.3 103.3,111.5 
				99.5,114.4 			"/>
			<path id="Fill-44" class="st21" d="M94.7,115.4l-0.9-1.4c0.6-0.2,1.1-0.9,0.6-1.6l-1-1.6l1.3-0.8l2.4,3.8l-1.3,0.8l-0.4-0.7
				C95.5,114.6,95.2,115.1,94.7,115.4"/>
			<path id="Fill-46" class="st21" d="M88.8,118.4l-2-4l1.3-0.7l0.2,0.4c0.1-0.4,0.4-0.8,0.9-1.1c0.8-0.4,1.8-0.2,2.3,1l1.2,2.4
				l-1.3,0.7l-1.1-2.2c-0.2-0.4-0.6-0.5-0.9-0.3c-0.4,0.2-0.5,0.6-0.3,1.1l1.1,2.2L88.8,118.4z"/>
			<path id="Fill-48" class="st21" d="M82,117.7c-0.4-1.1,0.4-1.8,1.3-2.1c0.9-0.3,1.7-0.3,2.3,0.3l-1,1.1c-0.2-0.3-0.5-0.3-0.8-0.2
				c-0.2,0.1-0.3,0.2-0.3,0.4c0.2,0.4,2.1-0.6,2.7,0.9c0.3,0.9-0.3,1.7-1.2,2c-0.8,0.3-1.5,0.2-2.1-0.3l1-1c0.2,0.2,0.4,0.3,0.7,0.2
				c0.2-0.1,0.3-0.2,0.2-0.3C84.5,118.2,82.6,119.3,82,117.7"/>
			<path id="Fill-50" class="st21" d="M78.9,120.3l-0.3-1.3c-0.1-0.4-0.4-0.3-1-0.2l-0.3-1.3c1.7-0.7,2.4-0.3,2.8,1.1l0.3,1.3
				l0.7-0.2l0.4,1.4l-0.7,0.2l0.2,0.8l-1.3,0.8l-0.3-1.2l-0.9,0.2l-0.4-1.4L78.9,120.3z"/>
			<g transform="translate(339.387216, 909.019236)">
				<g id="Clip-53">
				</g>
				<polygon id="Fill-52" class="st21" points="-293.7,-786.6 -291.9,-792.6 -290.3,-792.1 -292.2,-786.1 				"/>
			</g>
			<path id="Fill-54" class="st21" d="M40.4,116.6l1-2.5l1.4,0.6l-1,2.3c-0.2,0.4,0,0.8,0.3,0.9c0.4,0.2,0.8,0,1-0.5l0.9-2.2
				l1.4,0.6l-1.7,4.2l-1.4-0.6l0.2-0.4c-0.4,0.2-0.9,0.3-1.4,0.1C40.3,118.7,39.9,117.8,40.4,116.6"/>
			<path id="Fill-56" class="st21" d="M35.1,114.4c-1,1.6-3,2-4.6,0.9c-1-0.6-1.5-1.7-1.5-2.8l1.6,0.1c0,0.5,0.2,1,0.7,1.3
				c0.9,0.6,1.8,0.3,2.4-0.5s0.4-1.8-0.5-2.3c-0.5-0.3-1.1-0.4-1.5-0.1l-0.7-1.4c1-0.5,2.1-0.4,3.1,0.2
				C35.8,110.9,36.1,112.9,35.1,114.4"/>
			<path id="Fill-58" class="st21" d="M26.6,107.1c-0.4,0.4-0.3,1,0.1,1.3c0.4,0.3,0.9,0.3,1.3-0.1c0.4-0.4,0.3-1-0.1-1.3
				C27.5,106.6,27,106.7,26.6,107.1 M29.1,109.3c-0.9,1-2.4,1.1-3.4,0.2c-1-0.9-1.2-2.3-0.3-3.4s2.4-1.1,3.4-0.2
				C29.9,106.8,30,108.2,29.1,109.3"/>
			<path id="Fill-60" class="st21" d="M21.8,102.3c-0.4,0.4-0.5,0.9-0.1,1.4c0.4,0.4,0.9,0.4,1.4,0c0.4-0.4,0.5-0.9,0.1-1.4
				C22.8,102,22.3,101.9,21.8,102.3L21.8,102.3z M17.8,104l4.7-4.2l1,1.1l-0.3,0.3c0.5,0,0.9,0.2,1.3,0.6c0.8,0.9,0.7,2.3-0.3,3.2
				c-1,0.9-2.4,0.9-3.2,0c-0.4-0.4-0.5-0.9-0.5-1.3l-1.6,1.5L17.8,104z"/>
			<path id="Fill-62" class="st21" d="M17.2,97.3c-0.3,0.4-0.2,0.8,0,1.1c0.2,0.3,0.6,0.5,1,0.3L17.2,97.3z M18.9,96.9
				c-0.2-0.3-0.4-0.4-0.7-0.5l0-1.3c0.7,0,1.4,0.4,1.8,1.1c0.9,1.3,0.6,2.7-0.4,3.4c-1.1,0.8-2.5,0.6-3.3-0.5
				c-0.8-1.1-0.5-2.5,0.5-3.3c0.1-0.1,0.3-0.2,0.5-0.3l1.8,2.5C19.3,97.7,19.1,97.3,18.9,96.9L18.9,96.9z"/>
			<polygon id="Fill-64" class="st21" points="10.2,93.1 9.5,91.5 12.8,89 8.7,89.6 8.2,88.4 11.3,85.8 7.3,86.5 6.6,84.9 13.1,84 
				13.8,85.5 10.9,87.9 14.6,87.4 15.3,88.9 			"/>
			<path id="Fill-66" class="st21" d="M8.7,79.1c-0.4,0.3-0.5,0.6-0.4,1c0.1,0.4,0.4,0.7,0.9,0.7L8.7,79.1z M10.4,79.4
				c-0.1-0.3-0.3-0.6-0.5-0.7l0.4-1.2c0.7,0.3,1.1,0.9,1.3,1.6c0.4,1.5-0.3,2.7-1.6,3.1c-1.3,0.4-2.6-0.3-3-1.7
				c-0.4-1.3,0.3-2.5,1.6-2.9c0.2-0.1,0.4-0.1,0.6-0.1l0.9,3C10.5,80.2,10.5,79.8,10.4,79.4L10.4,79.4z"/>
			<polygon id="Fill-68" class="st21" points="4.8,68.1 4.9,69.6 9.7,69.1 9.8,70.7 5.1,71.2 5.3,72.8 3.7,72.9 3.2,68.2 			"/>
			<path id="Fill-70" class="st21" d="M4.8,63.5l1.7,0c-0.1,0.6,0.2,1.4,1.1,1.3l1.9,0l0,1.5L5,66.4l0-1.5l0.8,0
				C5.2,64.7,4.9,64.1,4.8,63.5"/>
			<path id="Fill-72" class="st21" d="M5.3,57l4.5,0.4l-0.1,1.5l-0.4,0c0.3,0.3,0.5,0.7,0.5,1.3c-0.1,0.9-0.8,1.6-2.1,1.5L5,61.3
				l0.1-1.5l2.5,0.2c0.5,0,0.7-0.2,0.8-0.6c0-0.5-0.2-0.8-0.8-0.8l-2.4-0.2L5.3,57z"/>
			<path id="Fill-74" class="st21" d="M9.5,51.5c1.1,0.2,1.3,1.3,1.1,2.2c-0.2,0.9-0.6,1.6-1.4,1.8L8.8,54c0.4,0,0.6-0.2,0.6-0.6
				c0.1-0.3,0-0.4-0.2-0.5c-0.5-0.1-0.6,2.1-2.2,1.8c-1-0.2-1.3-1.2-1.1-2.1c0.2-0.8,0.6-1.4,1.4-1.6l0.3,1.3
				c-0.3,0.1-0.4,0.2-0.5,0.5c0,0.2,0,0.3,0.2,0.4C7.8,53.4,7.8,51.1,9.5,51.5"/>
			<path id="Fill-76" class="st21" d="M8.8,47.5l1.2,0.4c0.4,0.1,0.5-0.2,0.7-0.8l1.3,0.4c-0.3,1.8-1,2.2-2.3,1.8l-1.3-0.4l-0.2,0.7
				l-1.4-0.4L7,48.5l-0.8-0.2l0-1.6l1.2,0.3l0.3-0.9l1.4,0.4L8.8,47.5z"/>
		</g>
	</g>
</g>
</svg>
