<svg width="128" height="128" viewBox="0 0 128 128" fill="none" xmlns="http://www.w3.org/2000/svg">
<circle cx="64" cy="64" r="63" stroke="#E0278D" stroke-width="2"/>
<circle cx="64" cy="64" r="62" fill="#0E0D14"/>
<path fill-rule="evenodd" clip-rule="evenodd" d="M63 40L44.8135 71.5H81.1865L63 40ZM63 48L51.7417 67.5H74.2583L63 48Z" fill="#E0278D"/>
<path fill-rule="evenodd" clip-rule="evenodd" d="M113 44H89V68H113V44ZM85 40V72H117V40H85Z" fill="#E0278D"/>
<path fill-rule="evenodd" clip-rule="evenodd" d="M28 70C35.1797 70 41 64.1797 41 57C41 49.8203 35.1797 44 28 44C20.8203 44 15 49.8203 15 57C15 64.1797 20.8203 70 28 70ZM28 74C37.3888 74 45 66.3888 45 57C45 47.6112 37.3888 40 28 40C18.6112 40 11 47.6112 11 57C11 66.3888 18.6112 74 28 74Z" fill="#E0278D"/>
<path d="M29.5939 88.3723C28.9304 88.3723 28.3406 88.2894 27.8246 88.1234C27.3085 87.9574 26.8247 87.6762 26.3732 87.2798C26.1244 87.0585 26 86.8142 26 86.5468C26 86.3348 26.0783 86.1504 26.235 85.9936C26.3916 85.8277 26.5805 85.7447 26.8017 85.7447C26.9768 85.7447 27.1335 85.8 27.2717 85.9106C27.6403 86.2149 27.9997 86.4362 28.3498 86.5745C28.7 86.7128 29.1147 86.7819 29.5939 86.7819C30.1099 86.7819 30.5522 86.6667 30.9208 86.4362C31.2987 86.2057 31.4876 85.9199 31.4876 85.5787C31.4876 85.1638 31.3033 84.8411 30.9347 84.6106C30.5661 84.3709 29.9809 84.1911 29.1792 84.0713C27.1611 83.7762 26.152 82.8358 26.152 81.25C26.152 80.6691 26.3041 80.1667 26.6082 79.7426C26.9123 79.3092 27.327 78.9819 27.8522 78.7606C28.3775 78.5301 28.9626 78.4149 29.6077 78.4149C30.1882 78.4149 30.7319 78.5025 31.2388 78.6777C31.7548 78.8528 32.1833 79.0833 32.5243 79.3691C32.7915 79.5812 32.9251 79.8255 32.9251 80.1021C32.9251 80.3142 32.8468 80.5032 32.6901 80.6691C32.5335 80.8259 32.3492 80.9043 32.1372 80.9043C31.999 80.9043 31.8746 80.8628 31.764 80.7798C31.5244 80.5862 31.1881 80.411 30.755 80.2543C30.3311 80.0883 29.9487 80.0053 29.6077 80.0053C29.0271 80.0053 28.5756 80.116 28.2531 80.3372C27.9398 80.5493 27.7831 80.8305 27.7831 81.1809C27.7831 81.5773 27.9444 81.877 28.2669 82.0798C28.5986 82.2826 29.1147 82.4486 29.815 82.5777C30.6075 82.716 31.2388 82.8957 31.7087 83.117C32.1879 83.3291 32.5473 83.6241 32.7869 84.0021C33.0265 84.3709 33.1463 84.8642 33.1463 85.4819C33.1463 86.0628 32.9804 86.5745 32.6487 87.017C32.3261 87.4504 31.893 87.7869 31.3493 88.0266C30.8057 88.2571 30.2205 88.3723 29.5939 88.3723Z" fill="white"/>
<path d="M40.5784 80.8351C40.818 80.8351 41.0161 80.9135 41.1728 81.0702C41.3294 81.227 41.4078 81.4298 41.4078 81.6787V90.1564C41.4078 90.3961 41.3294 90.5943 41.1728 90.7511C41.0161 90.917 40.818 91 40.5784 91C40.3388 91 40.1407 90.917 39.984 90.7511C39.8274 90.5943 39.7491 90.3961 39.7491 90.1564V87.4181C39.5187 87.6762 39.2054 87.9021 38.8091 88.0957C38.4221 88.2801 38.012 88.3723 37.5789 88.3723C36.9431 88.3723 36.3671 88.211 35.8511 87.8883C35.335 87.5564 34.925 87.1 34.6209 86.5191C34.326 85.9383 34.1785 85.2791 34.1785 84.5415C34.1785 83.8039 34.326 83.1447 34.6209 82.5638C34.9158 81.9738 35.3166 81.5174 35.8234 81.1947C36.3395 80.8628 36.9062 80.6968 37.5236 80.6968C37.9752 80.6968 38.3944 80.7798 38.7815 80.9457C39.1685 81.1117 39.491 81.3191 39.7491 81.5681C39.7767 81.356 39.8642 81.1809 40.0117 81.0426C40.1683 80.9043 40.3573 80.8351 40.5784 80.8351ZM37.7862 86.8511C38.3852 86.8511 38.8736 86.6344 39.2514 86.2011C39.6293 85.7585 39.8182 85.2053 39.8182 84.5415C39.8182 83.8777 39.6293 83.3245 39.2514 82.8819C38.8736 82.4394 38.3852 82.2181 37.7862 82.2181C37.1965 82.2181 36.7127 82.4394 36.3349 82.8819C35.9571 83.3245 35.7681 83.8777 35.7681 84.5415C35.7681 85.2053 35.9524 85.7585 36.3211 86.2011C36.6989 86.6344 37.1873 86.8511 37.7862 86.8511Z" fill="white"/>
<path d="M48.6929 80.8351C48.9325 80.8351 49.1306 80.9181 49.2873 81.084C49.444 81.2408 49.5223 81.439 49.5223 81.6787V85.1915C49.5223 86.1872 49.2458 86.9663 48.6929 87.5287C48.1492 88.0911 47.3706 88.3723 46.3569 88.3723C45.3432 88.3723 44.5646 88.0911 44.0209 87.5287C43.4772 86.9663 43.2054 86.1872 43.2054 85.1915V81.6787C43.2054 81.439 43.2837 81.2408 43.4403 81.084C43.597 80.9181 43.7951 80.8351 44.0347 80.8351C44.2743 80.8351 44.4724 80.9181 44.6291 81.084C44.7857 81.2408 44.8641 81.439 44.8641 81.6787V85.1915C44.8641 85.7539 44.9885 86.1734 45.2373 86.45C45.4861 86.7174 45.8593 86.8511 46.3569 86.8511C46.8637 86.8511 47.2416 86.7174 47.4904 86.45C47.7392 86.1734 47.8636 85.7539 47.8636 85.1915V81.6787C47.8636 81.439 47.9419 81.2408 48.0986 81.084C48.2552 80.9181 48.4533 80.8351 48.6929 80.8351Z" fill="white"/>
<path d="M52.88 87.3904C52.88 87.6301 52.8017 87.833 52.645 87.9989C52.4883 88.1557 52.2902 88.234 52.0506 88.234C51.811 88.234 51.6129 88.1557 51.4563 87.9989C51.2996 87.833 51.2213 87.6301 51.2213 87.3904V81.6787C51.2213 81.439 51.2996 81.2408 51.4563 81.084C51.6129 80.9181 51.811 80.8351 52.0506 80.8351C52.2902 80.8351 52.4883 80.9181 52.645 81.084C52.8017 81.2408 52.88 81.439 52.88 81.6787V87.3904ZM52.0368 79.9362C51.7235 79.9362 51.5023 79.8855 51.3733 79.784C51.2443 79.6826 51.1798 79.5028 51.1798 79.2447V78.9819C51.1798 78.7238 51.2489 78.544 51.3871 78.4426C51.5254 78.3411 51.7465 78.2904 52.0506 78.2904C52.3732 78.2904 52.5989 78.3411 52.7279 78.4426C52.8569 78.544 52.9215 78.7238 52.9215 78.9819V79.2447C52.9215 79.5121 52.8523 79.6965 52.7141 79.7979C52.5851 79.8901 52.3593 79.9362 52.0368 79.9362Z" fill="white"/>
<path d="M60.5699 78C60.8095 78 61.0076 78.0784 61.1643 78.2351C61.3209 78.3918 61.3992 78.5947 61.3992 78.8436V87.3904C61.3992 87.6301 61.3209 87.833 61.1643 87.9989C61.0076 88.1557 60.8095 88.234 60.5699 88.234C60.3303 88.234 60.1322 88.1557 59.9755 87.9989C59.8281 87.8422 59.7497 87.644 59.7405 87.4043C59.5101 87.6716 59.1968 87.9021 58.8006 88.0957C58.4136 88.2801 58.0035 88.3723 57.5704 88.3723C56.9345 88.3723 56.3586 88.211 55.8426 87.8883C55.3265 87.5564 54.9164 87.1 54.6123 86.5191C54.3175 85.9383 54.17 85.2791 54.17 84.5415C54.17 83.8039 54.3175 83.1447 54.6123 82.5638C54.9072 81.9738 55.3081 81.5174 55.8149 81.1947C56.331 80.8628 56.8977 80.6968 57.5151 80.6968C57.9574 80.6968 58.3721 80.7798 58.7591 80.9457C59.1462 81.1025 59.4733 81.3053 59.7405 81.5543V78.8436C59.7405 78.6039 59.8189 78.4057 59.9755 78.2489C60.1322 78.083 60.3303 78 60.5699 78ZM57.7777 86.8511C58.3767 86.8511 58.8651 86.6344 59.2429 86.2011C59.6207 85.7585 59.8096 85.2053 59.8096 84.5415C59.8096 83.8777 59.6207 83.3245 59.2429 82.8819C58.8651 82.4394 58.3767 82.2181 57.7777 82.2181C57.188 82.2181 56.7042 82.4394 56.3263 82.8819C55.9485 83.3245 55.7596 83.8777 55.7596 84.5415C55.7596 85.2053 55.9439 85.7585 56.3125 86.2011C56.6903 86.6344 57.1787 86.8511 57.7777 86.8511Z" fill="white"/>
<path d="M70.4675 83.0064C70.7071 83.0064 70.9052 83.0894 71.0619 83.2553C71.2185 83.4121 71.2969 83.6103 71.2969 83.85V86.7819C71.2969 87.1046 71.154 87.3535 70.8684 87.5287C69.9653 88.0911 68.9747 88.3723 67.8965 88.3723C66.9842 88.3723 66.141 88.1511 65.367 87.7085C64.5929 87.2567 63.9801 86.6528 63.5286 85.8968C63.077 85.1316 62.8513 84.2972 62.8513 83.3936C62.8513 82.4901 63.077 81.6603 63.5286 80.9043C63.9801 80.139 64.5929 79.5351 65.367 79.0926C66.141 78.6408 66.9842 78.4149 67.8965 78.4149C68.8088 78.4149 69.6013 78.5993 70.274 78.9681C70.4122 79.0418 70.5136 79.1387 70.5781 79.2585C70.6518 79.3784 70.6887 79.5074 70.6887 79.6457C70.6887 79.8762 70.6103 80.0791 70.4537 80.2543C70.3062 80.4202 70.1219 80.5032 69.9008 80.5032C69.7626 80.5032 69.6105 80.4663 69.4446 80.3926C68.947 80.1805 68.431 80.0745 67.8965 80.0745C67.3067 80.0745 66.7631 80.2266 66.2654 80.5309C65.7678 80.8259 65.3716 81.227 65.0767 81.734C64.791 82.2411 64.6482 82.7943 64.6482 83.3936C64.6482 83.9929 64.791 84.5461 65.0767 85.0532C65.3716 85.5603 65.7678 85.966 66.2654 86.2702C66.7631 86.5652 67.3067 86.7128 67.8965 86.7128C68.1545 86.7128 68.431 86.6897 68.7259 86.6436C69.0207 86.5975 69.2788 86.5376 69.4999 86.4638V84.666H68.2006C67.961 84.666 67.7583 84.5876 67.5924 84.4309C67.4358 84.2741 67.3574 84.0759 67.3574 83.8362C67.3574 83.5965 67.4358 83.3982 67.5924 83.2415C67.7583 83.0848 67.961 83.0064 68.2006 83.0064H70.4675Z" fill="white"/>
<path d="M78.9955 80.6968C79.2351 80.6968 79.4332 80.7752 79.5899 80.9319C79.7465 81.0887 79.8249 81.2915 79.8249 81.5404V87.3904C79.8249 87.6301 79.7465 87.833 79.5899 87.9989C79.4332 88.1557 79.2351 88.234 78.9955 88.234C78.7559 88.234 78.5578 88.1557 78.4011 87.9989C78.2537 87.8422 78.1754 87.644 78.1662 87.4043C77.9358 87.6716 77.6225 87.9021 77.2262 88.0957C76.8392 88.2801 76.4291 88.3723 75.996 88.3723C75.3602 88.3723 74.7842 88.211 74.2682 87.8883C73.7521 87.5564 73.3421 87.1 73.038 86.5191C72.7431 85.9383 72.5956 85.2791 72.5956 84.5415C72.5956 83.8039 72.7431 83.1447 73.038 82.5638C73.3329 81.9738 73.7337 81.5174 74.2405 81.1947C74.7566 80.8628 75.3233 80.6968 75.9407 80.6968C76.383 80.6968 76.7977 80.7798 77.1847 80.9457C77.5718 81.1025 77.8989 81.3053 78.1662 81.5543V81.5404C78.1662 81.3007 78.2445 81.1025 78.4011 80.9457C78.5578 80.7798 78.7559 80.6968 78.9955 80.6968ZM76.2033 86.8511C76.8023 86.8511 77.2907 86.6344 77.6685 86.2011C78.0464 85.7585 78.2353 85.2053 78.2353 84.5415C78.2353 83.8777 78.0464 83.3245 77.6685 82.8819C77.2907 82.4394 76.8023 82.2181 76.2033 82.2181C75.6136 82.2181 75.1298 82.4394 74.752 82.8819C74.3742 83.3245 74.1852 83.8777 74.1852 84.5415C74.1852 85.2053 74.3695 85.7585 74.7381 86.2011C75.116 86.6344 75.6044 86.8511 76.2033 86.8511Z" fill="white"/>
<path d="M90.151 80.6968C91.0633 80.6968 91.6945 80.978 92.0447 81.5404C92.3949 82.0936 92.5699 82.8635 92.5699 83.85V87.3904C92.5699 87.6301 92.4916 87.833 92.335 87.9989C92.1783 88.1557 91.9802 88.234 91.7406 88.234C91.501 88.234 91.3029 88.1557 91.1462 87.9989C90.9896 87.833 90.9112 87.6301 90.9112 87.3904V83.85C90.9112 83.3429 90.8099 82.9465 90.6071 82.6606C90.4136 82.3656 90.0681 82.2181 89.5704 82.2181C89.0544 82.2181 88.6489 82.3748 88.3541 82.6883C88.0684 82.9926 87.9256 83.3798 87.9256 83.85V87.3904C87.9256 87.6301 87.8472 87.833 87.6906 87.9989C87.5339 88.1557 87.3358 88.234 87.0962 88.234C86.8566 88.234 86.6585 88.1557 86.5018 87.9989C86.3452 87.833 86.2668 87.6301 86.2668 87.3904V83.85C86.2668 83.3429 86.1655 82.9465 85.9627 82.6606C85.7692 82.3656 85.4237 82.2181 84.9261 82.2181C84.41 82.2181 84.0045 82.3748 83.7097 82.6883C83.424 82.9926 83.2812 83.3798 83.2812 83.85V87.3904C83.2812 87.6301 83.2028 87.833 83.0462 87.9989C82.8895 88.1557 82.6914 88.234 82.4518 88.234C82.2122 88.234 82.0141 88.1557 81.8574 87.9989C81.7008 87.833 81.6224 87.6301 81.6224 87.3904V81.6787C81.6224 81.439 81.7008 81.2408 81.8574 81.084C82.0141 80.9181 82.2122 80.8351 82.4518 80.8351C82.6914 80.8351 82.8895 80.9181 83.0462 81.084C83.2028 81.2408 83.2812 81.439 83.2812 81.6787V81.9C83.53 81.5681 83.8433 81.2869 84.2211 81.0564C84.6081 80.8167 85.0366 80.6968 85.5066 80.6968C86.6677 80.6968 87.4095 81.2039 87.732 82.2181C87.944 81.8309 88.2619 81.4805 88.6858 81.167C89.1189 80.8535 89.6073 80.6968 90.151 80.6968Z" fill="white"/>
<path d="M101 84.3617C100.991 84.583 100.903 84.7628 100.737 84.9011C100.571 85.0394 100.378 85.1085 100.157 85.1085H95.5954C95.7059 85.6525 95.9594 86.0812 96.3556 86.3947C96.7519 86.6989 97.1988 86.8511 97.6964 86.8511C98.0742 86.8511 98.3691 86.8188 98.581 86.7543C98.793 86.6805 98.9589 86.6067 99.0787 86.533C99.2077 86.45 99.2952 86.3947 99.3413 86.367C99.5072 86.284 99.6638 86.2426 99.8113 86.2426C100.005 86.2426 100.171 86.3117 100.309 86.45C100.447 86.5883 100.516 86.7496 100.516 86.934C100.516 87.183 100.387 87.4089 100.129 87.6117C99.8711 87.8238 99.5256 88.0035 99.0925 88.1511C98.6594 88.2986 98.2217 88.3723 97.7793 88.3723C97.0053 88.3723 96.328 88.211 95.7474 87.8883C95.1761 87.5656 94.7338 87.1231 94.4204 86.5606C94.1071 85.989 93.9505 85.3482 93.9505 84.6383C93.9505 83.8454 94.1164 83.1493 94.4481 82.55C94.7798 81.9507 95.2176 81.4943 95.7612 81.1809C96.3049 80.8582 96.8855 80.6968 97.5029 80.6968C98.1111 80.6968 98.6824 80.8628 99.2169 81.1947C99.7606 81.5266 100.194 81.9738 100.516 82.5362C100.839 83.0986 101 83.7071 101 84.3617ZM97.5029 82.2181C96.4339 82.2181 95.8027 82.7206 95.6092 83.7255H99.2307V83.6287C99.1938 83.2415 99.0049 82.9096 98.664 82.633C98.323 82.3564 97.936 82.2181 97.5029 82.2181Z" fill="white"/>
</svg>
