<svg width="25" height="24" viewBox="0 0 25 24" fill="none" xmlns="http://www.w3.org/2000/svg">
<path d="M5.79595 2.70361L23.5503 14.8187L19.0713 21.2945L1.4248 9.07145L5.79595 2.70361Z" fill="url(#paint0_linear)"/>
<path d="M23.5507 14.8194C22.0127 17.005 16.859 16.1686 12.0022 12.7148C7.03746 9.36901 4.3662 4.88994 5.79627 2.70437C7.33426 0.518798 12.4879 1.35525 17.3447 4.80899C22.3095 8.04688 24.9807 12.6069 23.5507 14.8194Z" fill="url(#paint1_linear)"/>
<path d="M19.072 21.2951C17.534 23.4806 12.3804 22.6442 7.52355 19.1904C2.66672 15.7637 -0.11246 11.3655 1.42553 9.07204C2.96353 6.88647 8.11716 7.72293 12.974 11.1767C17.8308 14.6304 20.5021 19.1095 19.072 21.2951Z" fill="url(#paint2_linear)"/>
<path d="M23.5508 14.8191L19.0717 21.2948C17.5068 23.5074 12.3261 22.617 7.52328 19.1902C6.5789 18.5156 5.6615 17.7871 4.95996 17.1126C5.63452 17.0046 6.47097 16.6269 7.33441 15.6825C8.8724 14.0636 9.62791 13.6858 10.3025 13.7668C10.977 13.7668 11.7325 14.4413 12.9737 16.0603C14.2149 17.6792 15.5101 18.4077 17.2909 17.1126C18.1543 16.438 18.4242 16.1682 20.0701 13.0922C20.4478 12.3367 21.743 11.0685 23.5508 11.6351C24.0635 12.9303 24.0635 14.0366 23.5508 14.8191Z" fill="#0E0F23"/>
<path d="M16.9673 5.37545C12.4883 2.21851 7.79333 1.27413 6.4712 3.18988C5.12208 5.10562 7.82031 9.09901 12.3803 12.2559C16.8594 15.4129 21.5543 16.3573 22.8765 14.4415C24.1177 12.5258 21.4464 8.5054 16.9673 5.37545ZM18.6942 11.5814C18.0196 12.5258 15.7261 12.0671 13.4326 10.5291C11.2471 8.99108 9.89796 6.99439 10.5725 6.05001C11.2471 5.10562 13.5406 5.56432 15.8341 7.10232C18.0196 8.61333 19.3418 10.61 18.6942 11.5814Z" fill="white"/>
<path d="M5.41865 4.88979C5.41865 4.7819 5.31076 4.70098 5.22983 4.7819C5.12194 4.88979 5.04102 4.88979 5.04102 4.97072C5.14891 5.26743 5.22983 5.45625 5.22983 5.64507C5.22983 5.75296 5.33773 5.83388 5.41865 5.75296C5.52655 5.75296 5.60747 5.64507 5.52655 5.56414C5.49957 5.37533 5.49957 5.18651 5.41865 4.88979Z" fill="white"/>
<path d="M5.90472 6.40107C5.90472 6.29314 5.79679 6.21219 5.71584 6.29314C5.60791 6.40107 5.60791 6.40107 5.60791 6.48201C6.66022 8.85646 8.84579 11.4468 11.7059 13.3625C11.8139 13.4704 11.8948 13.3625 12.0027 13.3625C12.1107 13.2546 12.0027 13.1736 12.0027 13.0657C9.03467 11.1769 6.93005 8.69457 5.90472 6.40107Z" fill="white"/>
<path d="M17.453 15.7637C17.3451 15.7637 17.2642 15.7637 17.2642 15.8716C17.2642 15.9795 17.2642 16.0604 17.3721 16.0604C17.6688 16.1683 18.0464 16.2492 18.3161 16.3571C18.424 16.3571 18.505 16.3571 18.505 16.2492C18.505 16.1413 18.505 16.0604 18.3971 16.0604C18.1004 15.9525 17.7227 15.8716 17.453 15.7637Z" fill="white"/>
<path d="M19.1527 16.1416C19.0448 16.1416 18.9639 16.2495 18.9639 16.3304C18.9639 16.4383 19.0718 16.5192 19.1527 16.5192C19.908 16.6271 20.7711 16.7081 21.4455 16.6271C21.5534 16.6271 21.6343 16.5192 21.6343 16.4383C21.6343 16.3574 21.5264 16.2495 21.4455 16.2495C20.6902 16.3304 19.9349 16.2495 19.1527 16.1416Z" fill="white"/>
<path fill-rule="evenodd" clip-rule="evenodd" d="M24.9168 12.9883L24.9247 13.0863L24.9252 13.0935C24.9411 13.3342 24.9392 13.5752 24.9158 13.8137C24.8922 14.0561 24.8465 14.2939 24.7768 14.5251C24.688 14.8188 24.5606 15.1001 24.3909 15.3625L24.3825 15.3755L19.8887 21.8726L19.8414 21.9381L19.7957 21.9978L19.711 22.1031L19.6197 22.2061L19.6132 22.2131C19.5769 22.2525 19.5412 22.2888 19.5078 22.3217C18.4648 23.35 16.8571 23.6156 15.214 23.4579C13.5321 23.2965 11.6006 22.6776 9.65128 21.6654C8.75194 21.1983 7.84296 20.6444 6.94556 20.0067C6.1271 19.4291 5.36355 18.8241 4.66473 18.2032C2.87516 16.6137 1.47806 14.8955 0.697515 13.2661C-0.0662658 11.6716 -0.343575 9.91377 0.594698 8.51472L0.600747 8.5057L4.97874 2.12861C6.10374 0.529382 8.32822 0.274135 10.4999 0.656576C12.7581 1.05426 15.3904 2.19459 17.9083 3.98198C19.923 5.29844 21.5911 6.83349 22.794 8.3741C23.985 9.89957 24.7832 11.5129 24.916 12.9785L24.9168 12.9883ZM17.345 4.80884C12.4885 1.35514 7.33453 0.518453 5.79695 2.70419L1.42548 9.07188C0.137479 10.9924 1.87679 14.389 5.32903 17.4553C5.99916 18.0507 6.73376 18.6329 7.52355 19.1902C8.38466 19.8023 9.25456 20.3322 10.1122 20.7777C13.8448 22.7158 17.341 23.0547 18.8063 21.6085C18.8308 21.5845 18.8547 21.5601 18.8777 21.5352L18.9465 21.4576L19.0086 21.3804L19.0388 21.3408L19.0721 21.2949L23.551 14.8193C23.6672 14.6395 23.7561 14.4446 23.8191 14.2361C23.8689 14.071 23.9026 13.8976 23.9202 13.7164C23.9378 13.5376 23.9398 13.3515 23.9271 13.1596L23.9197 13.0687C23.7029 10.6749 21.2236 7.33843 17.345 4.80884Z" fill="white"/>
<defs>
<linearGradient id="paint0_linear" x1="9.2896" y1="0.963656" x2="12.8062" y2="13.0392" gradientUnits="userSpaceOnUse">
<stop stop-color="#03B8FF"/>
<stop offset="1" stop-color="#FA52A0"/>
</linearGradient>
<linearGradient id="paint1_linear" x1="12.1636" y1="0.126717" x2="15.6847" y2="12.2173" gradientUnits="userSpaceOnUse">
<stop stop-color="#03B8FF"/>
<stop offset="1" stop-color="#FA52A0"/>
</linearGradient>
<linearGradient id="paint2_linear" x1="6.34526" y1="1.88856" x2="9.86632" y2="13.9792" gradientUnits="userSpaceOnUse">
<stop stop-color="#03B8FF"/>
<stop offset="1" stop-color="#FA52A0"/>
</linearGradient>
</defs>
</svg>
