<svg width="128" height="128" viewBox="0 0 128 128" fill="none" xmlns="http://www.w3.org/2000/svg">
<path d="M64 128C99.3462 128 128 99.3462 128 64C128 28.6538 99.3462 0 64 0C28.6538 0 0 28.6538 0 64C0 99.3462 28.6538 128 64 128Z" fill="#FF278F"/>
<path d="M51.6843 32.244C50.7926 32.1066 50.7549 32.0905 51.1745 32.0264C51.9787 31.9035 53.8771 32.071 55.1851 32.3801C58.2394 33.1017 61.0184 34.95 63.9848 38.2329L64.7731 39.1047L65.9002 38.9248C70.6497 38.166 75.4817 38.7691 79.5229 40.6247C80.6347 41.1349 82.3876 42.1511 82.6067 42.4124C82.6763 42.4956 82.8043 43.0311 82.8911 43.6028C83.1912 45.5804 83.0411 47.0965 82.4328 48.2286C82.1014 48.8448 82.0829 49.04 82.3059 49.5673C82.4836 49.9883 82.9789 50.2994 83.4696 50.299C84.4737 50.2976 85.5546 48.6841 86.0555 46.4388L86.2547 45.547L86.6486 45.9908C88.8104 48.4249 90.5085 51.7451 90.8001 54.1081L90.8762 54.7243L90.5128 54.1639C89.8877 53.2003 89.2591 52.544 88.4545 52.0149C87.0038 51.061 85.4703 50.7364 81.4088 50.5237C77.7402 50.3317 75.6641 50.0203 73.6054 49.3529C70.1028 48.218 68.3371 46.7061 64.1764 41.2807C62.3286 38.8711 61.1862 37.5378 60.0502 36.464C57.4685 34.0242 54.9316 32.7446 51.6843 32.244Z" fill="white"/>
<path d="M83.4339 37.6251C83.5263 36.0105 83.7461 34.9453 84.1894 33.9726C84.3647 33.5876 84.529 33.2725 84.5546 33.2725C84.5795 33.2725 84.5034 33.5566 84.3846 33.9039C84.0629 34.8479 84.0099 36.1392 84.2318 37.6415C84.5134 39.5472 84.6734 39.8224 86.7007 41.8815C87.6511 42.8471 88.7573 44.0653 89.1576 44.5879L89.8869 45.5391L89.1576 44.8592C88.2666 44.0283 86.2165 42.4077 85.7638 42.1762C85.4598 42.0208 85.415 42.0233 85.2277 42.2086C85.0552 42.3796 85.0186 42.6359 84.9948 43.8487C84.9574 45.7389 84.6982 46.952 84.0728 48.1652C83.7343 48.8212 83.6806 48.6811 83.9871 47.9408C84.2154 47.3876 84.2389 47.1447 84.2374 45.3151C84.2335 41.6383 83.7944 40.7547 81.2195 39.2404C80.567 38.8567 79.4918 38.3039 78.8305 38.0112C78.1692 37.7186 77.6437 37.4637 77.6629 37.4445C77.7358 37.3727 80.247 38.1012 81.2582 38.4877C82.7619 39.0623 83.0101 39.1369 83.1925 39.0676C83.3151 39.021 83.3745 38.6669 83.4339 37.6251Z" fill="white"/>
<path d="M53.4161 43.914C51.6063 41.4376 50.4867 37.6406 50.7288 34.8022L50.8038 33.9238L51.2159 33.9985C51.9896 34.1388 53.3233 34.6322 53.948 35.0093C55.6622 36.0438 56.4042 37.406 57.159 40.9039C57.3802 41.9286 57.6703 43.0881 57.804 43.4806C58.0188 44.1124 58.8309 45.588 59.4911 46.5466C59.9669 47.2371 59.6508 47.5642 58.5994 47.4696C56.9941 47.3256 54.8191 45.8337 53.4161 43.914Z" fill="white"/>
<path d="M81.2388 62.3455C72.7808 58.9609 69.802 56.023 69.802 51.0658C69.802 50.3362 69.8272 49.7393 69.8582 49.7393C69.8891 49.7393 70.2162 49.98 70.5853 50.2744C72.3005 51.6415 74.2208 52.2257 79.5378 52.9965C82.6667 53.4502 84.4274 53.8168 86.0516 54.3519C91.2136 56.0536 94.4075 59.5067 95.1695 64.2104C95.3906 65.5771 95.2608 68.14 94.9021 69.4907C94.6191 70.5577 93.7544 72.4806 93.5247 72.5545C93.4614 72.5752 93.3992 72.3327 93.3824 72.0034C93.2957 70.237 92.3979 68.5176 90.89 67.2297C89.1752 65.7652 86.8715 64.5993 81.2388 62.3455Z" fill="white"/>
<path d="M75.3011 63.7513C75.1951 63.1244 75.0113 62.3241 74.8925 61.9724L74.6767 61.3335L75.0778 61.7804C75.6324 62.3995 76.0708 63.1913 76.4424 64.2459C76.7258 65.0508 76.7578 65.2905 76.7556 66.5986C76.7535 67.8825 76.7179 68.152 76.4563 68.8763C76.0435 70.019 75.5307 70.829 74.671 71.6987C73.1261 73.2617 71.1396 74.1267 68.2731 74.4859C67.775 74.5477 66.3229 74.653 65.0461 74.7191C61.8287 74.8855 59.711 75.229 57.8081 75.8931C57.5346 75.9884 57.2904 76.0467 57.2655 76.0222C57.1883 75.9458 58.484 75.1785 59.5542 74.6658C61.0628 73.9433 62.5651 73.5493 65.9304 72.9925C67.5926 72.717 69.3092 72.3831 69.7455 72.2505C73.8621 70.9957 75.9784 67.7584 75.3011 63.7513Z" fill="white"/>
<path d="M79.1788 70.5948C78.0549 68.1937 77.7971 65.8755 78.4126 63.7137C78.4787 63.4826 78.5843 63.2935 78.6483 63.2935C78.7119 63.2935 78.9772 63.436 79.2375 63.6099C79.7551 63.9566 80.7941 64.54 83.5607 66.0394C87.0135 67.9103 88.9822 69.3592 90.3208 71.0143C91.4935 72.4639 92.2188 74.1152 92.5679 76.1287C92.7656 77.2686 92.6497 80.0127 92.3553 81.1608C91.427 84.7818 89.2695 87.6259 86.1921 89.2856C85.7413 89.5288 85.3367 89.7283 85.2929 89.7294C85.2488 89.7301 85.4135 89.3148 85.6581 88.8067C86.6927 86.6559 86.8108 84.5639 86.0282 82.235C85.5489 80.8092 84.5719 79.0691 82.5992 76.1287C80.3052 72.71 79.7431 71.8001 79.1788 70.5948Z" fill="white"/>
<path d="M47.4096 83.5499C50.5481 80.916 54.4535 79.045 58.0109 78.4704C59.5437 78.223 62.0976 78.3211 63.5173 78.6824C65.7929 79.2612 67.8285 80.5576 68.8873 82.1021C69.922 83.6118 70.3657 84.9273 70.8279 87.8543C71.0103 89.0091 71.2084 90.1682 71.2685 90.4306C71.6155 91.9478 72.291 93.1599 73.128 93.7693C74.4571 94.7364 76.7461 94.7961 78.9979 93.9232C79.3797 93.775 79.7115 93.6726 79.7349 93.6957C79.8167 93.7764 78.6829 94.5305 77.8829 94.9277C76.8066 95.4621 75.9508 95.6687 74.8137 95.6687C72.7515 95.6687 71.0391 94.6262 69.6105 92.4999C69.3293 92.0815 68.6974 90.8285 68.2064 89.7149C66.6978 86.2955 65.9529 85.2537 64.2014 84.1138C62.6775 83.1218 60.7117 82.944 59.2329 83.6648C57.2905 84.6116 56.7486 87.0784 58.1399 88.6422C58.6928 89.2637 59.7239 89.7992 60.5669 89.9037C62.1445 90.0989 63.4999 88.906 63.4999 87.3231C63.4999 86.2955 63.1024 85.7088 62.1019 85.2601C60.7355 84.6472 59.2667 85.364 59.2734 86.6397C59.2766 87.1837 59.5149 87.525 60.0638 87.7721C60.4158 87.9304 60.424 87.9428 60.1367 87.8834C58.883 87.6253 58.5893 86.1227 59.5973 85.1254C60.8077 83.9282 63.3108 84.4566 64.1701 86.0911C64.5314 86.7776 64.573 88.1448 64.2583 88.97C63.5536 90.8182 61.4996 91.7896 59.4153 91.2608C57.9966 90.9007 57.4189 90.511 55.7083 88.7595C52.7355 85.716 51.5817 85.1264 47.2962 84.4616L46.4749 84.3343L47.4096 83.5499Z" fill="white"/>
<path fill-rule="evenodd" clip-rule="evenodd" d="M33.462 29.0806C43.3888 41.0556 50.2261 45.9964 50.986 47.04C51.6132 47.9019 51.3771 48.677 50.3026 49.2843C49.7049 49.6217 48.4761 49.9637 47.861 49.9637C47.1652 49.9637 46.9262 49.6971 46.9262 49.6971C46.5227 49.3166 46.2955 49.3835 44.2237 45.728C41.3472 41.2921 38.9401 37.6121 38.8743 37.5502C38.7225 37.408 38.725 37.4126 43.9303 46.6695C44.7712 48.5987 44.0974 49.307 44.0974 49.5819C44.0974 50.1408 43.9442 50.4345 43.2501 51.2039C42.0939 52.486 41.5765 53.9271 41.2036 56.9091C40.7851 60.2524 39.6085 62.6137 36.3481 66.6553C34.4394 69.0211 34.1271 69.4546 33.6455 70.4082C33.0389 71.6089 32.8721 72.2816 32.8045 73.7977C32.7331 75.4009 32.8722 76.437 33.365 77.9694C33.7965 79.3116 34.2468 80.1977 35.3981 81.9698C36.3915 83.499 36.9636 84.6361 36.9636 85.0805C36.9636 85.4343 37.0315 85.4347 38.571 85.0891C42.2557 84.2624 45.2473 82.8078 46.9298 81.0254C47.9712 79.9221 48.2155 79.3131 48.2237 77.8016C48.2286 76.8128 48.1938 76.6055 47.925 76.0366C47.4869 75.1107 46.6901 74.341 44.9337 73.1477C42.6322 71.584 41.6491 70.325 41.3774 68.5938C41.1549 67.1733 41.4133 66.171 42.6862 63.5186C44.0043 60.7733 44.3307 59.6035 44.5518 56.8363C44.6944 55.0485 44.8921 54.3435 45.4087 53.7774C45.9477 53.1872 46.4331 52.9874 47.7671 52.8064C49.9417 52.5109 51.3266 51.952 52.4647 50.9095C53.4521 50.005 53.8653 49.1335 53.9285 47.8219L53.9769 46.8274L53.4251 46.1881C51.4269 43.8723 32.1237 27.2603 32.0008 27.2603C31.9745 27.2603 32.6321 28.0795 33.462 29.0806ZM38.0853 75.6121C38.5373 74.8163 38.2973 73.7945 37.5413 73.2946C36.8274 72.8231 35.7181 73.0453 35.7181 73.6601C35.7181 73.8478 35.8226 73.9843 36.0576 74.1049C36.4541 74.3072 36.4829 74.5355 36.171 75.0009C35.8553 75.4727 35.8809 75.8873 36.2429 76.1689C36.8267 76.6233 37.6526 76.3733 38.0853 75.6121Z" fill="white"/>
<path fill-rule="evenodd" clip-rule="evenodd" d="M55.3491 53.3272C54.3283 53.639 53.336 54.7142 53.0288 55.8421C52.8414 56.53 52.9477 57.7364 53.2283 58.1094C53.6819 58.711 54.1203 58.8696 55.3079 58.8614C57.6329 58.8454 59.6539 57.8541 59.8889 56.6154C60.0816 55.5999 59.1938 54.1923 57.9714 53.5743C57.3403 53.2557 55.9984 53.1292 55.3491 53.3272ZM58.067 55.4396C58.4258 54.9332 58.2686 54.3861 57.6592 54.0159C56.4979 53.3112 54.7419 53.8943 54.7419 54.9848C54.7419 55.5274 55.6574 56.1194 56.4969 56.1194C57.0555 56.1194 57.8203 55.7884 58.067 55.4396Z" fill="white"/>
</svg>
