<svg width="128" height="128" viewBox="0 0 128 128" fill="none" xmlns="http://www.w3.org/2000/svg">
<path d="M64 128C99.3462 128 128 99.3462 128 64C128 28.6538 99.3462 0 64 0C28.6538 0 0 28.6538 0 64C0 99.3462 28.6538 128 64 128Z" fill="#6CDE07"/>
<path d="M87.9853 73.224C87.9853 61.256 77.8653 57.736 68.7133 55.36V43.04C72.6733 44.008 76.5453 45.856 79.6253 48.76L86.5773 39.608C81.8253 35.296 75.8413 32.48 68.7133 31.776V23.416H60.3533V31.6C48.5613 32.744 41.4333 40.312 41.4333 49.288C41.4333 61.168 51.2893 64.688 60.3533 66.888V80.704C54.4573 79.648 49.7053 76.656 46.3613 73.224L39.5853 82.728C44.4253 87.568 51.1133 91.088 60.3533 91.88V99.8H68.7133V91.792C81.6493 90.472 87.9853 82.904 87.9853 73.224ZM54.2813 48.232C54.2813 45.064 56.6573 42.776 61.1453 42.336V53.512C57.0973 52.456 54.2813 50.96 54.2813 48.232ZM67.9213 80.968V68.648C72.1453 69.88 75.2253 71.376 75.2253 74.632C75.2253 77.536 72.9373 80.264 67.9213 80.968Z" fill="white"/>
</svg>
