<?xml version="1.0" encoding="utf-8"?>
<!-- Generator: Adobe Illustrator 21.0.0, SVG Export Plug-In . SVG Version: 6.00 Build 0)  -->
<svg version="1.1" id="图层_1" xmlns="http://www.w3.org/2000/svg" xmlns:xlink="http://www.w3.org/1999/xlink" x="0px" y="0px"
	 viewBox="0 0 128 128" style="enable-background:new 0 0 128 128;" xml:space="preserve">
<style type="text/css">
	.st0{fill:#FFFFFF;}
	.st1{fill:#00FEB5;}
	.st2{opacity:0.5;fill:#05B595;enable-background:new    ;}
</style>
<circle class="st0" cx="64" cy="64" r="64"/>
<path class="st1" d="M64,0L0,64l64,64l64-64L64,0z"/>
<path class="st2" d="M128,64l-64,64L0,64c0,0,18-9.8,29.8-9.8c28,0,40.8,18,67.2,18C116.2,72.2,128,64,128,64z"/>
<path class="st0" d="M66,105h-5v-8c-12.2-0.8-19.8-8.4-20.5-18h8c0.7,7.5,8.2,11.2,15,11.2c6.6,0,14.5-3,14.5-10.7
	c0-6.2-5-8.5-11.7-10.3l-0.2-0.1l-5.1-1.4L57.5,67c-10-2.8-15-7.5-15-16.5c0-9.5,7.8-15.9,18.5-17V26h5v7.5
	c11.3,0.7,19.2,8.6,19.5,17.5h-7.8c-0.9-7.1-7.7-10.5-14.2-10.5c-6,0-13.5,3.1-13.5,10c0,6.2,6.2,8.7,10.9,10l5.1,1.3l3,0.7
	c6.6,1.7,17,5,17,16.7c0,9.5-6.9,17-20,17.8V105z"/>
</svg>
