<svg width="128" height="128" viewBox="0 0 128 128" fill="none" xmlns="http://www.w3.org/2000/svg">
<path d="M128 64C128 99.3462 99.3462 128 64 128C28.6538 128 0 99.3462 0 64C0 28.6538 28.6538 0 64 0C99.3462 0 128 28.6538 128 64Z" fill="#090715"/>
<path fill-rule="evenodd" clip-rule="evenodd" d="M64 126.933C98.7571 126.933 126.933 98.7571 126.933 64C126.933 29.2429 98.7571 1.06667 64 1.06667C29.2429 1.06667 1.06667 29.2429 1.06667 64C1.06667 98.7571 29.2429 126.933 64 126.933ZM64 128C99.3462 128 128 99.3462 128 64C128 28.6538 99.3462 0 64 0C28.6538 0 0 28.6538 0 64C0 99.3462 28.6538 128 64 128Z" fill="url(#paint0_linear_33015:166340)"/>
<path opacity="0.5" fill-rule="evenodd" clip-rule="evenodd" d="M122.665 64.1327L122.265 64.1301C122.266 64.0713 122.266 64.0125 122.266 63.9537C122.267 63.8803 122.267 63.807 122.267 63.7336C122.267 63.6013 122.266 63.4691 122.265 63.337L122.665 63.3343C122.666 63.4673 122.667 63.6004 122.667 63.7336C122.667 63.8667 122.666 63.9998 122.665 64.1327ZM122.655 62.5378L122.255 62.5458C122.25 62.2824 122.243 62.0196 122.234 61.7571L122.634 61.7438C122.642 62.008 122.649 62.2727 122.655 62.5378ZM122.602 60.9525L122.202 60.9711C122.19 60.7076 122.176 60.4445 122.16 60.182L122.56 60.158C122.575 60.4223 122.59 60.6872 122.602 60.9525ZM122.506 59.3638L122.107 59.3931C122.088 59.1307 122.067 58.8687 122.044 58.6072L122.443 58.5725C122.466 58.8358 122.487 59.0995 122.506 59.3638ZM122.369 57.7842L121.971 57.8243C121.944 57.5615 121.916 57.2992 121.886 57.0374L122.284 56.992C122.314 57.2555 122.342 57.5196 122.369 57.7842ZM122.188 56.2024L121.791 56.2533C121.758 55.9924 121.722 55.7321 121.686 55.4724L122.082 55.4162C122.119 55.6777 122.154 55.9398 122.188 56.2024ZM121.965 54.6318L121.57 54.6934C121.529 54.4325 121.487 54.1723 121.443 53.9126L121.837 53.8457C121.881 54.1071 121.924 54.3692 121.965 54.6318ZM121.699 53.0631L121.305 53.1354C121.258 52.8769 121.209 52.619 121.158 52.3617L121.55 52.2841C121.601 52.5431 121.651 52.8028 121.699 53.0631ZM121.391 51.5057L120.999 51.5887C120.945 51.3308 120.888 51.0734 120.83 50.8167L121.22 50.7284C121.279 50.9869 121.335 51.246 121.391 51.5057ZM121.04 49.955L120.651 50.0486C120.589 49.7932 120.526 49.5385 120.461 49.2844L120.849 49.1856C120.914 49.4414 120.978 49.6979 121.04 49.955ZM120.647 48.4159L120.261 48.5201C120.192 48.2657 120.122 48.012 120.05 47.7591L120.435 47.6496C120.507 47.9043 120.578 48.1598 120.647 48.4159ZM120.212 46.8876L119.829 47.0023C119.754 46.7504 119.677 46.4993 119.598 46.2489L119.979 46.129C120.059 46.3811 120.136 46.634 120.212 46.8876ZM119.736 45.3714L119.356 45.4965C119.274 45.2465 119.19 44.9972 119.104 44.7486L119.482 44.6184C119.568 44.8686 119.653 45.1196 119.736 45.3714ZM119.219 43.8699L118.842 44.0053C118.753 43.7576 118.662 43.5107 118.57 43.2646L118.944 43.124C119.037 43.3719 119.129 43.6205 119.219 43.8699ZM118.66 42.3814L118.287 42.5271C118.192 42.282 118.094 42.0378 117.995 41.7944L118.366 41.6437C118.465 41.8888 118.564 42.1347 118.66 42.3814ZM118.062 40.9109L117.693 41.0666C117.591 40.8239 117.487 40.582 117.381 40.341L117.747 40.1802C117.854 40.4229 117.959 40.6665 118.062 40.9109ZM117.423 39.4546L117.059 39.6204C116.95 39.381 116.839 39.1425 116.727 38.9049L117.089 38.7343C117.202 38.9735 117.313 39.2136 117.423 39.4546ZM116.745 38.0183L116.386 38.1938C116.27 37.9572 116.153 37.7215 116.034 37.4866L116.391 37.3062C116.511 37.5426 116.629 37.78 116.745 38.0183ZM116.028 36.5996L115.674 36.7849C115.552 36.5519 115.429 36.3198 115.304 36.0887L115.656 35.8986C115.782 36.1314 115.906 36.365 116.028 36.5996ZM115.273 35.2017L114.924 35.3965C114.796 35.1667 114.666 34.9377 114.535 34.7098L114.882 34.5102C115.014 34.7397 115.144 34.9703 115.273 35.2017ZM114.481 33.8246L114.137 34.0288C114.003 33.8027 113.867 33.5775 113.73 33.3534L114.071 33.1445C114.209 33.3702 114.346 33.5969 114.481 33.8246ZM113.651 32.4693L113.313 32.6828C113.172 32.4603 113.03 32.2388 112.887 32.0183L113.222 31.8003C113.367 32.0222 113.51 32.2453 113.651 32.4693ZM112.785 31.1374L112.453 31.36C112.306 31.1413 112.159 30.9237 112.009 30.7071L112.339 30.4801C112.489 30.6981 112.638 30.9173 112.785 31.1374ZM111.883 29.8288C111.73 29.6128 111.575 29.3979 111.419 29.184L111.096 29.4198C111.251 29.6322 111.405 29.8457 111.557 30.0602L111.883 29.8288ZM110.947 28.5457C110.788 28.3338 110.627 28.123 110.465 27.9133L110.149 28.1577C110.309 28.366 110.469 28.5754 110.627 28.7858L110.947 28.5457ZM109.976 27.2877L109.662 27.5363C109.499 27.3303 109.334 27.1255 109.168 26.9217L109.477 26.6689C109.645 26.874 109.811 27.0802 109.976 27.2877ZM108.971 26.0567L108.665 26.3137C108.495 26.1121 108.325 25.9117 108.153 25.7124L108.456 25.4513C108.629 25.6519 108.801 25.8537 108.971 26.0567ZM107.934 24.853L107.634 25.1182C107.46 24.9213 107.284 24.7256 107.107 24.5311L107.403 24.2619C107.581 24.4577 107.758 24.6548 107.934 24.853ZM106.864 23.6778L106.572 23.951C106.392 23.7588 106.211 23.5679 106.029 23.3782L106.318 23.1011C106.501 23.2921 106.683 23.4843 106.864 23.6778ZM105.764 22.5318L105.479 22.8127C105.294 22.6255 105.108 22.4395 104.921 22.2547L105.202 21.97C105.39 22.156 105.578 22.3433 105.764 22.5318ZM104.632 21.4158L104.355 21.7043C104.166 21.5221 103.975 21.3412 103.783 21.1615L104.056 20.8693C104.249 21.0502 104.441 21.2324 104.632 21.4158ZM103.472 20.3306L103.202 20.6265C103.008 20.4495 102.812 20.2738 102.615 20.0994L102.881 19.8C103.079 19.9755 103.276 20.1524 103.472 20.3306ZM102.282 19.2772L102.021 19.5802C101.822 19.4085 101.621 19.2381 101.42 19.069L101.677 18.7625C101.88 18.9327 102.082 19.1043 102.282 19.2772ZM101.065 18.2561L100.812 18.566C100.608 18.3998 100.403 18.2349 100.197 18.0713L100.446 17.7581C100.653 17.9227 100.86 18.0887 101.065 18.2561ZM99.8203 17.2683L99.5758 17.5849C99.3676 17.4241 99.1582 17.2647 98.9477 17.1067L99.1879 16.7868C99.3998 16.9459 99.6106 17.1064 99.8203 17.2683ZM98.5496 16.3143L98.3137 16.6374C98.1014 16.4824 97.8879 16.3288 97.6733 16.1766L97.9047 15.8503C98.1208 16.0036 98.3357 16.1582 98.5496 16.3143ZM97.2535 15.3949L97.0265 15.7243C96.8099 15.575 96.5923 15.4272 96.3736 15.2808L96.5961 14.9484C96.8163 15.0958 97.0354 15.2446 97.2535 15.3949ZM95.9333 14.5111L95.7153 14.8464C95.4948 14.7031 95.2733 14.5612 95.0508 14.4208L95.2642 14.0825C95.4883 14.2239 95.7113 14.3668 95.9333 14.5111ZM94.589 13.6629L94.3802 14.004C94.156 13.8668 93.9309 13.731 93.7048 13.5967L93.909 13.2528C94.1367 13.388 94.3634 13.5247 94.589 13.6629ZM93.2233 12.852L93.0238 13.1986C92.7958 13.0674 92.5669 12.9377 92.337 12.8095L92.5318 12.4602C92.7633 12.5892 92.9938 12.7198 93.2233 12.852ZM91.8349 12.0777L91.6449 12.4297C91.4137 12.3049 91.1817 12.1816 90.9487 12.0598L91.1339 11.7053C91.3685 11.8279 91.6022 11.952 91.8349 12.0777ZM90.4274 11.3421L90.2469 11.6991C90.0121 11.5804 89.7764 11.4633 89.5397 11.3477L89.7153 10.9883C89.9535 11.1047 90.1909 11.2226 90.4274 11.3421ZM88.9993 10.6446L88.8286 11.0063C88.591 10.8943 88.3525 10.7837 88.1132 10.6748L88.2789 10.3107C88.5199 10.4204 88.76 10.5317 88.9993 10.6446ZM87.5533 9.98641C87.3106 9.8799 87.0671 9.77498 86.8227 9.67167L86.6669 10.0401C86.9096 10.1427 87.1515 10.2469 87.3926 10.3527L87.5533 9.98641ZM86.0899 9.36781L85.9392 9.73833C85.6958 9.63933 85.4515 9.54193 85.2065 9.44614L85.3521 9.07359C85.5989 9.17005 85.8448 9.26812 86.0899 9.36781ZM84.6095 8.78912L84.469 9.16362C84.2229 9.07125 83.9759 8.9805 83.7282 8.89138L83.8636 8.51499C84.1131 8.60473 84.3617 8.69611 84.6095 8.78912ZM83.1152 8.25146L82.9849 8.62965C82.7364 8.54404 82.4871 8.46006 82.237 8.37774L82.3621 7.9978C82.6139 8.0807 82.8649 8.16526 83.1152 8.25146ZM81.6046 7.75409L81.4847 8.1357C81.2343 8.05703 80.9831 7.98 80.7313 7.90464L80.846 7.52143C81.0995 7.59732 81.3524 7.67487 81.6046 7.75409ZM80.0839 7.29904L79.9745 7.68378C79.7215 7.61182 79.4679 7.54153 79.2135 7.47291L79.3177 7.08672C79.5738 7.1558 79.8292 7.22658 80.0839 7.29904ZM78.548 6.88473L78.4491 7.27231C78.195 7.20749 77.9403 7.14434 77.6849 7.08287L77.7785 6.69398C78.0357 6.75587 78.2922 6.81946 78.548 6.88473ZM77.0051 6.51339L76.9168 6.90352C76.6601 6.84543 76.4028 6.78903 76.1448 6.73434L76.2278 6.34303C76.4875 6.3981 76.7466 6.45489 77.0051 6.51339ZM75.4495 6.18355L75.3719 6.57594C75.1146 6.52504 74.8567 6.47584 74.5982 6.42834L74.6705 6.03493C74.9307 6.08275 75.1904 6.1323 75.4495 6.18355ZM73.8879 5.89662L73.8209 6.29098C73.5613 6.2469 73.301 6.20455 73.0402 6.16392L73.1017 5.76868C73.3644 5.80959 73.6264 5.85224 73.8879 5.89662ZM72.3174 5.65195L72.2612 6.04798C72.0014 6.01112 71.7411 5.97596 71.4803 5.94254L71.5311 5.54578C71.7938 5.57944 72.0559 5.61483 72.3174 5.65195ZM70.7416 5.45003L70.6961 5.84744C70.4343 5.81749 70.172 5.78928 69.9092 5.76281L69.9493 5.36482C70.2139 5.39147 70.478 5.41988 70.7416 5.45003ZM69.161 5.29078L69.1263 5.68927C68.8648 5.66648 68.6029 5.64542 68.3404 5.62609L68.3698 5.22717C68.634 5.24663 68.8978 5.26784 69.161 5.29078ZM67.5756 5.17407L67.5516 5.57335C67.289 5.55756 67.0259 5.54351 66.7624 5.53121L66.7811 5.13165C67.0464 5.14403 67.3112 5.15817 67.5756 5.17407ZM65.9898 5.1L65.9764 5.49978C65.714 5.49103 65.4511 5.48402 65.1878 5.47876L65.1958 5.07884C65.4609 5.08414 65.7255 5.0912 65.9898 5.1ZM64.3992 5.06822L64.3965 5.46822C64.2645 5.46734 64.1323 5.46689 64 5.46689C63.8677 5.46689 63.7356 5.46734 63.6035 5.46822L63.6008 5.06822C63.7338 5.06734 63.8669 5.06689 64 5.06689C64.1332 5.06689 64.2662 5.06734 64.3992 5.06822ZM62.8042 5.07884L62.8122 5.47876C62.5489 5.48402 62.286 5.49104 62.0236 5.49978L62.0103 5.1C62.2745 5.0912 62.5391 5.08414 62.8042 5.07884ZM61.2189 5.13165L61.2376 5.53122C60.9741 5.54351 60.711 5.55756 60.4484 5.57335L60.4244 5.17407C60.6888 5.15818 60.9536 5.14403 61.2189 5.13165ZM59.6302 5.22718L59.6596 5.6261C59.3972 5.64542 59.1352 5.66649 58.8737 5.68928L58.839 5.29079C59.1022 5.26784 59.366 5.24663 59.6302 5.22718ZM58.0507 5.36483L58.0908 5.76282C57.828 5.78929 57.5657 5.8175 57.3039 5.84745L57.2584 5.45004C57.522 5.41989 57.7861 5.39148 58.0507 5.36483ZM56.4689 5.54579L56.5197 5.94254C56.2589 5.97597 55.9986 6.01112 55.7388 6.04799L55.6826 5.65196C55.9442 5.61484 56.2063 5.57945 56.4689 5.54579ZM54.8983 5.76869L54.9598 6.16393C54.699 6.20456 54.4387 6.24691 54.1791 6.29099L54.1121 5.89663C54.3736 5.85225 54.6356 5.8096 54.8983 5.76869ZM53.3295 6.03494L53.4018 6.42835C53.1433 6.47585 52.8854 6.52506 52.6282 6.57595L52.5505 6.18356C52.8096 6.13231 53.0693 6.08277 53.3295 6.03494ZM51.7722 6.34305L51.8552 6.73435C51.5972 6.78904 51.3399 6.84544 51.0832 6.90353L50.9949 6.5134C51.2534 6.4549 51.5125 6.39812 51.7722 6.34305ZM50.2215 6.69399L50.3151 7.08288C50.0597 7.14435 49.805 7.20751 49.5509 7.27233L49.452 6.88474C49.7079 6.81947 49.9643 6.75588 50.2215 6.69399ZM48.6824 7.08673L48.7865 7.47293C48.5322 7.54154 48.2785 7.61183 48.0255 7.68379L47.9161 7.29905C48.1708 7.2266 48.4262 7.15582 48.6824 7.08673ZM47.1541 7.52144L47.2687 7.90465C47.0169 7.98002 46.7658 8.05704 46.5154 8.13571L46.3955 7.7541C46.6476 7.67489 46.9005 7.59733 47.1541 7.52144ZM45.6379 7.99781L45.763 8.37775C45.5129 8.46008 45.2637 8.54406 45.0151 8.62967L44.8848 8.25148C45.1351 8.16527 45.3861 8.08071 45.6379 7.99781ZM44.1364 8.51501L44.2718 8.89139C44.0241 8.98051 43.7772 9.07126 43.531 9.16363L43.3905 8.78913C43.6383 8.69613 43.887 8.60475 44.1364 8.51501ZM42.6479 9.07361L42.7935 9.44616C42.5485 9.54195 42.3043 9.63935 42.0609 9.73835L41.9102 9.36782C42.1553 9.26814 42.4012 9.17006 42.6479 9.07361ZM41.1774 9.67169L41.3331 10.0401C41.0904 10.1427 40.8485 10.2469 40.6074 10.3527L40.4467 9.98642C40.6894 9.87991 40.933 9.775 41.1774 9.67169ZM39.7211 10.3108L39.8868 10.6748C39.6475 10.7838 39.409 10.8943 39.1714 11.0064L39.0008 10.6446C39.24 10.5317 39.4801 10.4205 39.7211 10.3108ZM38.2848 10.9883L38.4603 11.3477C38.2237 11.4633 37.9879 11.5805 37.7531 11.6992L37.5727 11.3422C37.8091 11.2227 38.0465 11.1047 38.2848 10.9883ZM36.8661 11.7053L37.0514 12.0598C36.8184 12.1816 36.5863 12.3049 36.3552 12.4297L36.1651 12.0777C36.3978 11.9521 36.6315 11.8279 36.8661 11.7053ZM35.4682 12.4602L35.663 12.8095C35.4331 12.9377 35.2042 13.0674 34.9762 13.1987L34.7767 12.852C35.0062 12.7199 35.2367 12.5893 35.4682 12.4602ZM34.0911 13.2528L34.2953 13.5968C34.0691 13.731 33.844 13.8668 33.6198 14.004L33.411 13.6629C33.6367 13.5247 33.8634 13.388 34.0911 13.2528ZM32.7358 14.0826L32.9493 14.4209C32.7267 14.5613 32.5052 14.7031 32.2848 14.8465L32.0667 14.5111C32.2887 14.3668 32.5117 14.2239 32.7358 14.0826ZM31.4039 14.9484L31.6264 15.2808C31.4078 15.4272 31.1901 15.575 30.9736 15.7243L30.7466 15.3949C30.9646 15.2446 31.1837 15.0958 31.4039 14.9484ZM30.0953 15.8503L30.3267 16.1766C30.1122 16.3288 29.8987 16.4824 29.6863 16.6374L29.4505 16.3143C29.6643 16.1582 29.8793 16.0036 30.0953 15.8503ZM28.8122 16.7868L29.0523 17.1067C28.8418 17.2647 28.6325 17.4241 28.4242 17.5849L28.1798 17.2683C28.3894 17.1064 28.6002 16.9459 28.8122 16.7868ZM27.5541 17.7581L27.8028 18.0714C27.5968 18.2349 27.3919 18.3998 27.1882 18.566L26.9353 18.2561C27.1405 18.0887 27.3467 17.9227 27.5541 17.7581ZM26.3232 18.7625L26.5802 19.069C26.3786 19.2381 26.1782 19.4085 25.9789 19.5803L25.7178 19.2773C25.9184 19.1044 26.1202 18.9328 26.3232 18.7625ZM25.1195 19.8L25.3847 20.0994C25.1878 20.2738 24.9921 20.4495 24.7976 20.6265L24.5284 20.3306C24.7242 20.1524 24.9212 19.9756 25.1195 19.8ZM23.9443 20.8694L24.2175 21.1616C24.0253 21.3412 23.8343 21.5221 23.6446 21.7044L23.3676 21.4159C23.5586 21.2324 23.7508 21.0502 23.9443 20.8694ZM22.7983 21.97L23.0792 22.2548C22.892 22.4395 22.706 22.6255 22.5212 22.8127L22.2365 22.5318C22.4225 22.3433 22.6097 22.156 22.7983 21.97ZM21.6823 23.1011C21.4989 23.2921 21.3167 23.4844 21.1358 23.6778L21.428 23.951C21.6077 23.7588 21.7886 23.5679 21.9708 23.3782L21.6823 23.1011ZM20.5971 24.2619L20.8929 24.5311C20.716 24.7256 20.5403 24.9213 20.3659 25.1182L20.0664 24.853C20.242 24.6548 20.4189 24.4578 20.5971 24.2619ZM19.5437 25.4513L19.8467 25.7125C19.675 25.9117 19.5046 26.1122 19.3355 26.3137L19.029 26.0567C19.1992 25.8537 19.3708 25.6519 19.5437 25.4513ZM18.5226 26.6689L18.8325 26.9218C18.6662 27.1255 18.5013 27.3304 18.3378 27.5364L18.0245 27.2877C18.1892 27.0803 18.3552 26.874 18.5226 26.6689ZM17.5347 27.9133L17.8514 28.1578C17.6906 28.366 17.5312 28.5754 17.3732 28.7859L17.0533 28.5457C17.2124 28.3338 17.3729 28.123 17.5347 27.9133ZM16.5808 29.184L16.9039 29.4199C16.7489 29.6322 16.5952 29.8457 16.4431 30.0603L16.1168 29.8288C16.27 29.6128 16.4247 29.3979 16.5808 29.184ZM15.6614 30.4801L15.9907 30.7071C15.8415 30.9237 15.6936 31.1413 15.5472 31.36L15.2149 31.1375C15.3623 30.9173 15.5111 30.6982 15.6614 30.4801ZM14.7776 31.8003L15.1129 32.0183C14.9696 32.2388 14.8277 32.4603 14.6873 32.6828L14.349 32.4694C14.4904 32.2453 14.6332 32.0223 14.7776 31.8003ZM13.9293 33.1445L14.2705 33.3534C14.1333 33.5776 13.9975 33.8027 13.8632 34.0288L13.5193 33.8246C13.6545 33.5969 13.7912 33.3702 13.9293 33.1445ZM13.1184 34.5103C12.9863 34.7398 12.8557 34.9703 12.7266 35.2018L13.076 35.3966C13.2042 35.1667 13.3339 34.9378 13.4651 34.7098L13.1184 34.5103ZM12.3442 35.8987L12.6961 36.0887C12.5713 36.3199 12.448 36.5519 12.3263 36.7849L11.9718 36.5997C12.0944 36.3651 12.2185 36.1314 12.3442 35.8987ZM11.6086 37.3062L11.9656 37.4867C11.8469 37.7215 11.7298 37.9572 11.6142 38.1939L11.2548 38.0183C11.3712 37.7801 11.4891 37.5427 11.6086 37.3062ZM10.9111 38.7343L11.2728 38.905C11.1607 39.1426 11.0502 39.3811 10.9413 39.6204L10.5772 39.4547C10.6869 39.2137 10.7982 38.9736 10.9111 38.7343ZM10.2529 40.1803L10.6192 40.341C10.5134 40.5821 10.4092 40.8239 10.3066 41.0667L9.93815 40.911C10.0415 40.6665 10.1464 40.423 10.2529 40.1803ZM9.63429 41.6437L10.0048 41.7944C9.90581 42.0378 9.80841 42.2821 9.71262 42.5271L9.34007 42.3815C9.43653 42.1347 9.5346 41.8888 9.63429 41.6437ZM9.0556 43.1241L9.43009 43.2646C9.33773 43.5107 9.24697 43.7577 9.15785 44.0054L8.78147 43.87C8.87121 43.6205 8.96259 43.3719 9.0556 43.1241ZM8.51794 44.6184L8.89613 44.7487C8.81052 44.9972 8.72654 45.2465 8.64421 45.4966L8.26428 45.3715C8.34718 45.1197 8.43174 44.8687 8.51794 44.6184ZM8.02057 46.129L8.40218 46.2489C8.32351 46.4993 8.24648 46.7505 8.17112 47.0023L7.78791 46.8876C7.8638 46.634 7.94135 46.3812 8.02057 46.129ZM7.56552 47.6497L7.95025 47.7591C7.8783 48.0121 7.80801 48.2657 7.73939 48.5201L7.3532 48.4159C7.42228 48.1598 7.49306 47.9044 7.56552 47.6497ZM7.15121 49.1856L7.53879 49.2845C7.47397 49.5386 7.41082 49.7933 7.34935 50.0487L6.96046 49.9551C7.02235 49.6979 7.08594 49.4414 7.15121 49.1856ZM6.77987 50.7285L7.17 50.8168C7.11191 51.0735 7.05551 51.3308 7.00081 51.5888L6.60951 51.5058C6.66458 51.2461 6.72137 50.987 6.77987 50.7285ZM6.45003 52.2841L6.84242 52.3617C6.79152 52.619 6.74232 52.8769 6.69482 53.1354L6.30141 53.0631C6.34923 52.8028 6.39878 52.5432 6.45003 52.2841ZM6.1631 53.8457L6.55746 53.9127C6.51338 54.1723 6.47103 54.4326 6.4304 54.6934L6.03516 54.6319C6.07607 54.3692 6.11872 54.1072 6.1631 53.8457ZM5.91843 55.4162L6.31446 55.4724C6.2776 55.7322 6.24244 55.9925 6.20902 56.2533L5.81226 56.2025C5.84592 55.9399 5.88131 55.6777 5.91843 55.4162ZM5.71651 56.992L6.11392 57.0375C6.08397 57.2993 6.05576 57.5616 6.02929 57.8244L5.6313 57.7843C5.65795 57.5197 5.68636 57.2556 5.71651 56.992ZM5.55726 58.5726L5.95575 58.6073C5.93296 58.8688 5.9119 59.1307 5.89257 59.3932L5.49365 59.3638C5.51311 59.0996 5.53432 58.8358 5.55726 58.5726ZM5.44055 60.158L5.83982 60.182C5.82404 60.4446 5.80999 60.7077 5.79769 60.9712L5.39813 60.9525C5.41051 60.6872 5.42465 60.4224 5.44055 60.158ZM5.36648 61.7439L5.76626 61.7572C5.75751 62.0196 5.7505 62.2825 5.74524 62.5458L5.34532 62.5378C5.35062 62.2727 5.35768 62.0081 5.36648 61.7439ZM5.3347 63.3344C5.33382 63.4674 5.33337 63.6004 5.33337 63.7336C5.33337 63.8667 5.33382 63.9998 5.3347 64.1328L5.7347 64.1301C5.73381 63.998 5.73337 63.8659 5.73337 63.7336C5.73337 63.6013 5.73381 63.4691 5.73469 63.3371L5.3347 63.3344ZM5.34532 64.9294L5.74524 64.9214C5.7505 65.1847 5.75751 65.4476 5.76626 65.71L5.36648 65.7233C5.35768 65.4591 5.35062 65.1945 5.34532 64.9294ZM5.39813 66.5147L5.7977 66.496C5.80999 66.7595 5.82404 67.0226 5.83983 67.2852L5.44055 67.3092C5.42466 67.0448 5.41051 66.78 5.39813 66.5147ZM5.49366 68.1034L5.89258 68.074C5.9119 68.3364 5.93297 68.5984 5.95576 68.8599L5.55727 68.8946C5.53432 68.6314 5.51311 68.3676 5.49366 68.1034ZM5.63131 69.6829L6.0293 69.6428C6.05576 69.9056 6.08398 70.1679 6.11393 70.4297L5.71652 70.4752C5.68637 70.2116 5.65796 69.9475 5.63131 69.6829ZM5.81227 71.2647L6.20902 71.2139C6.24245 71.4747 6.2776 71.735 6.31447 71.9948L5.91844 72.051C5.88132 71.7894 5.84592 71.5273 5.81227 71.2647ZM6.03517 72.8353L6.43041 72.7738C6.47103 73.0346 6.51339 73.2949 6.55747 73.5545L6.16311 73.6215C6.11873 73.36 6.07608 73.098 6.03517 72.8353ZM6.30142 74.4041L6.69483 74.3318C6.74233 74.5903 6.79153 74.8482 6.84243 75.1054L6.45004 75.1831C6.39879 74.924 6.34924 74.6643 6.30142 74.4041ZM6.60952 75.9614L7.00083 75.8784C7.05552 76.1364 7.11192 76.3937 7.17001 76.6504L6.77988 76.7387C6.72138 76.4802 6.66459 76.2211 6.60952 75.9614ZM6.96047 77.5121L7.34936 77.4185C7.41083 77.6739 7.47398 77.9286 7.53881 78.1827L7.15122 78.2816C7.08595 78.0258 7.02236 77.7693 6.96047 77.5121ZM7.35321 79.0512L7.73941 78.9471C7.80802 79.2014 7.87831 79.4551 7.95027 79.7081L7.56553 79.8175C7.49307 79.5628 7.4223 79.3074 7.35321 79.0512ZM7.78792 80.5795L8.17113 80.4649C8.2465 80.7167 8.32352 80.9678 8.40219 81.2182L8.02058 81.3381C7.94137 81.086 7.86381 80.8331 7.78792 80.5795ZM8.26429 82.0957L8.64423 81.9706C8.72656 82.2207 8.81054 82.47 8.89615 82.7185L8.51795 82.8488C8.43175 82.5985 8.34719 82.3475 8.26429 82.0957ZM8.78149 83.5972L9.15787 83.4618C9.24699 83.7095 9.33774 83.9564 9.43011 84.2026L9.05561 84.3431C8.9626 84.0953 8.87123 83.8466 8.78149 83.5972ZM9.34009 85.0857L9.71263 84.9401C9.80842 85.1851 9.90583 85.4293 10.0048 85.6727L9.6343 85.8234C9.53462 85.5784 9.43654 85.3324 9.34009 85.0857ZM9.93817 86.5562L10.3066 86.4005C10.4092 86.6432 10.5134 86.8851 10.6192 87.1262L10.2529 87.2869C10.1464 87.0442 10.0415 86.8006 9.93817 86.5562ZM10.5772 88.0125L10.9413 87.8468C11.0502 88.0861 11.1608 88.3246 11.2728 88.5622L10.9111 88.7328C10.7982 88.4936 10.6869 88.2535 10.5772 88.0125ZM11.2548 89.4488L11.6142 89.2733C11.7298 89.5099 11.8469 89.7457 11.9656 89.9805L11.6086 90.1609C11.4891 89.9245 11.3712 89.6871 11.2548 89.4488ZM11.9718 90.8675L12.3263 90.6822C12.4481 90.9152 12.5714 91.1473 12.6962 91.3784L12.3442 91.5685C12.2185 91.3358 12.0944 91.1021 11.9718 90.8675ZM12.7267 92.2654L13.076 92.0706C13.2042 92.3005 13.3339 92.5294 13.4651 92.7574L13.1185 92.9569C12.9863 92.7274 12.8557 92.4969 12.7267 92.2654ZM13.5193 93.6425C13.6545 93.8702 13.7912 94.0969 13.9294 94.3226L14.2705 94.1138C14.1333 93.8896 13.9975 93.6645 13.8632 93.4383L13.5193 93.6425ZM14.349 94.9978L14.6873 94.7844C14.8277 95.0069 14.9696 95.2284 15.1129 95.4488L14.7776 95.6669C14.6333 95.4449 14.4904 95.2219 14.349 94.9978ZM15.2149 96.3297L15.5473 96.1072C15.6937 96.3258 15.8415 96.5435 15.9908 96.76L15.6614 96.987C15.5111 96.769 15.3623 96.5499 15.2149 96.3297ZM16.1168 97.6383L16.4431 97.4069C16.5953 97.6214 16.7489 97.8349 16.9039 98.0473L16.5808 98.2831C16.4247 98.0693 16.2701 97.8543 16.1168 97.6383ZM17.0533 98.9215L17.3732 98.6813C17.5312 98.8918 17.6906 99.1011 17.8514 99.3094L17.5348 99.5538C17.3729 99.3442 17.2124 99.1334 17.0533 98.9215ZM18.0246 100.179L18.3378 99.9308C18.5014 100.137 18.6663 100.342 18.8325 100.545L18.5226 100.798C18.3552 100.593 18.1892 100.387 18.0246 100.179ZM19.029 101.41L19.3355 101.153C19.5046 101.355 19.675 101.555 19.8467 101.755L19.5437 102.016C19.3708 101.815 19.1993 101.613 19.029 101.41ZM20.0665 102.614L20.3659 102.349C20.5403 102.546 20.716 102.742 20.893 102.936L20.5971 103.205C20.4189 103.009 20.242 102.812 20.0665 102.614ZM21.1358 103.789L21.428 103.516C21.6077 103.708 21.7886 103.899 21.9708 104.089L21.6823 104.366C21.4989 104.175 21.3167 103.983 21.1358 103.789ZM22.2365 104.935L22.5213 104.654C22.706 104.842 22.892 105.028 23.0792 105.212L22.7983 105.497C22.6098 105.311 22.4225 105.124 22.2365 104.935ZM23.3676 106.051C23.5586 106.235 23.7508 106.417 23.9443 106.598L24.2175 106.306C24.0253 106.126 23.8344 105.945 23.6447 105.763L23.3676 106.051ZM24.5284 107.137L24.7976 106.841C24.9921 107.018 25.1878 107.193 25.3847 107.368L25.1195 107.667C24.9213 107.492 24.7242 107.315 24.5284 107.137ZM25.7178 108.19L25.9789 107.887C26.1782 108.059 26.3786 108.229 26.5802 108.398L26.3232 108.705C26.1202 108.534 25.9184 108.363 25.7178 108.19ZM26.9354 109.211C27.1405 109.378 27.3468 109.544 27.5542 109.709L27.8029 109.396C27.5968 109.232 27.392 109.067 27.1883 108.901L26.9354 109.211ZM28.1798 110.199L28.4242 109.882C28.6325 110.043 28.8419 110.202 29.0523 110.36L28.8122 110.68C28.6003 110.521 28.3895 110.361 28.1798 110.199ZM29.4505 111.153L29.6863 110.83C29.8987 110.985 30.1122 111.138 30.3268 111.291L30.0953 111.617C29.8793 111.464 29.6644 111.309 29.4505 111.153ZM30.7466 112.072L30.9736 111.743C31.1902 111.892 31.4078 112.04 31.6265 112.186L31.4039 112.519C31.1838 112.371 30.9647 112.223 30.7466 112.072ZM32.0668 112.956L32.2848 112.621C32.5053 112.764 32.7268 112.906 32.9493 113.046L32.7358 113.385C32.5118 113.243 32.2888 113.1 32.0668 112.956ZM33.411 113.804L33.6199 113.463C33.844 113.6 34.0692 113.736 34.2953 113.87L34.0911 114.214C33.8634 114.079 33.6367 113.942 33.411 113.804ZM34.7767 114.615L34.9763 114.268C35.2042 114.4 35.4332 114.529 35.6631 114.658L35.4682 115.007C35.2368 114.878 35.0063 114.747 34.7767 114.615ZM36.1652 115.389L36.3552 115.037C36.5863 115.162 36.8184 115.286 37.0514 115.407L36.8661 115.762C36.6315 115.639 36.3979 115.515 36.1652 115.389ZM37.5727 116.125L37.7531 115.768C37.988 115.887 38.2237 116.004 38.4604 116.119L38.2848 116.479C38.0465 116.362 37.8092 116.244 37.5727 116.125ZM39.0008 116.823L39.1715 116.461C39.4091 116.573 39.6475 116.683 39.8869 116.792L39.7212 117.156C39.4802 117.047 39.24 116.935 39.0008 116.823ZM40.4467 117.481L40.6075 117.114C40.8485 117.22 41.0904 117.324 41.3332 117.427L41.1774 117.795C40.933 117.692 40.6895 117.587 40.4467 117.481ZM41.9102 118.099L42.0609 117.729C42.3043 117.828 42.5485 117.925 42.7936 118.021L42.6479 118.394C42.4012 118.297 42.1553 118.199 41.9102 118.099ZM43.3905 118.678L43.5311 118.304C43.7772 118.396 44.0241 118.487 44.2718 118.576L44.1364 118.952C43.887 118.862 43.6384 118.771 43.3905 118.678ZM44.8849 119.216L45.0152 118.837C45.2637 118.923 45.513 119.007 45.763 119.089L45.6379 119.469C45.3862 119.386 45.1351 119.302 44.8849 119.216ZM46.3955 119.713L46.5154 119.331C46.7658 119.41 47.0169 119.487 47.2688 119.562L47.1541 119.946C46.9005 119.87 46.6476 119.792 46.3955 119.713ZM47.9161 120.168L48.0256 119.783C48.2785 119.855 48.5322 119.926 48.7866 119.994L48.6824 120.38C48.4263 120.311 48.1709 120.241 47.9161 120.168ZM49.4521 120.582L49.551 120.195C49.805 120.26 50.0598 120.323 50.3152 120.384L50.2215 120.773C49.9644 120.711 49.7079 120.648 49.4521 120.582ZM50.995 120.954L51.0833 120.564C51.34 120.622 51.5973 120.678 51.8552 120.733L51.7723 121.124C51.5125 121.069 51.2534 121.012 50.995 120.954ZM52.5506 121.284L52.6282 120.891C52.8855 120.942 53.1434 120.991 53.4019 121.039L53.3296 121.432C53.0693 121.384 52.8096 121.335 52.5506 121.284ZM54.1122 121.571L54.1791 121.176C54.4388 121.22 54.6991 121.263 54.9599 121.303L54.8983 121.698C54.6357 121.658 54.3737 121.615 54.1122 121.571ZM55.6827 121.815L55.7389 121.419C55.9986 121.456 56.259 121.491 56.5198 121.525L56.469 121.921C56.2063 121.888 55.9442 121.852 55.6827 121.815ZM57.2585 122.017L57.304 121.62C57.5657 121.65 57.828 121.678 58.0908 121.704L58.0508 122.102C57.7862 122.076 57.5221 122.047 57.2585 122.017ZM58.839 122.176L58.8738 121.778C59.1352 121.801 59.3972 121.822 59.6597 121.841L59.6303 122.24C59.3661 122.22 59.1023 122.199 58.839 122.176ZM60.4245 122.293L60.4485 121.894C60.7111 121.91 60.9741 121.924 61.2376 121.936L61.219 122.335C60.9537 122.323 60.6889 122.309 60.4245 122.293ZM62.0103 122.367L62.0236 121.967C62.2861 121.976 62.549 121.983 62.8123 121.988L62.8043 122.388C62.5392 122.383 62.2745 122.376 62.0103 122.367ZM63.6009 122.399L63.6035 121.999C63.7356 122 63.8678 122 64 122C64.1323 122 64.2645 122 64.3966 121.999L64.3993 122.399C64.2663 122.4 64.1332 122.4 64 122.4C63.8669 122.4 63.7338 122.4 63.6009 122.399ZM65.1958 122.388L65.1878 121.988C65.4512 121.983 65.7141 121.976 65.9765 121.967L65.9898 122.367C65.7256 122.376 65.4609 122.383 65.1958 122.388ZM66.7811 122.335L66.7625 121.936C67.026 121.924 67.2891 121.91 67.5516 121.894L67.5756 122.293C67.3113 122.309 67.0464 122.323 66.7811 122.335ZM68.3698 122.24L68.3405 121.841C68.6029 121.822 68.8649 121.801 69.1264 121.778L69.1611 122.176C68.8978 122.199 68.6341 122.22 68.3698 122.24ZM69.9494 122.102L69.9093 121.704C70.1721 121.678 70.4344 121.65 70.6962 121.62L70.7416 122.017C70.4781 122.047 70.214 122.076 69.9494 122.102ZM71.5312 121.921L71.4803 121.525C71.7412 121.491 72.0015 121.456 72.2612 121.419L72.3174 121.815C72.0559 121.852 71.7938 121.888 71.5312 121.921ZM73.1018 121.698L73.0402 121.303C73.3011 121.263 73.5613 121.22 73.821 121.176L73.8879 121.57C73.6265 121.615 73.3644 121.658 73.1018 121.698ZM74.6705 121.432L74.5982 121.039C74.8567 120.991 75.1146 120.942 75.3719 120.891L75.4495 121.284C75.1905 121.335 74.9308 121.384 74.6705 121.432ZM76.2279 121.124L76.1449 120.733C76.4029 120.678 76.6602 120.622 76.9169 120.564L77.0052 120.954C76.7467 121.012 76.4876 121.069 76.2279 121.124ZM77.7786 120.773L77.685 120.384C77.9404 120.323 78.1951 120.26 78.4492 120.195L78.548 120.582C78.2922 120.648 78.0357 120.711 77.7786 120.773ZM79.3177 120.38L79.2135 119.994C79.4679 119.926 79.7216 119.855 79.9745 119.783L80.084 120.168C79.8293 120.241 79.5738 120.311 79.3177 120.38ZM80.846 119.946L80.7313 119.562C80.9832 119.487 81.2343 119.41 81.4847 119.331L81.6046 119.713C81.3525 119.792 81.0996 119.87 80.846 119.946ZM82.3622 119.469L82.2371 119.089C82.4871 119.007 82.7364 118.923 82.985 118.837L83.1152 119.216C82.865 119.302 82.614 119.386 82.3622 119.469ZM83.8637 118.952L83.7283 118.576C83.976 118.487 84.2229 118.396 84.469 118.303L84.6096 118.678C84.3617 118.771 84.1131 118.862 83.8637 118.952ZM85.3522 118.394L85.2065 118.021C85.4516 117.925 85.6958 117.828 85.9392 117.729L86.0899 118.099C85.8448 118.199 85.5989 118.297 85.3522 118.394ZM86.8227 117.795C87.0671 117.692 87.3107 117.587 87.5534 117.481L87.3926 117.114C87.1516 117.22 86.9097 117.324 86.667 117.427L86.8227 117.795ZM88.279 117.156L88.1132 116.792C88.3526 116.683 88.5911 116.573 88.8286 116.461L88.9993 116.823C88.7601 116.935 88.5199 117.047 88.279 117.156ZM89.7153 116.479L89.5397 116.119C89.7764 116.004 90.0121 115.887 90.247 115.768L90.4274 116.125C90.1909 116.244 89.9536 116.362 89.7153 116.479ZM91.134 115.762L90.9487 115.407C91.1817 115.286 91.4138 115.162 91.6449 115.037L91.8349 115.389C91.6022 115.515 91.3686 115.639 91.134 115.762ZM92.5319 115.007L92.3371 114.658C92.5669 114.529 92.7959 114.4 93.0238 114.268L93.2234 114.615C92.9939 114.747 92.7633 114.878 92.5319 115.007ZM93.909 114.214L93.7048 113.87C93.9309 113.736 94.1561 113.6 94.3802 113.463L94.5891 113.804C94.3634 113.942 94.1367 114.079 93.909 114.214ZM95.2643 113.385L95.0508 113.046C95.2733 112.906 95.4948 112.764 95.7153 112.621L95.9333 112.956C95.7113 113.1 95.4883 113.243 95.2643 113.385ZM96.5962 112.519L96.3736 112.186C96.5923 112.04 96.8099 111.892 97.0265 111.743L97.2535 112.072C97.0354 112.222 96.8163 112.371 96.5962 112.519ZM97.9048 111.617C98.1208 111.464 98.3357 111.309 98.5496 111.153L98.3138 110.83C98.1014 110.985 97.8879 111.138 97.6734 111.291L97.9048 111.617ZM99.1879 110.68L98.9478 110.36C99.1582 110.202 99.3676 110.043 99.5759 109.882L99.8203 110.199C99.6106 110.361 99.3998 110.521 99.1879 110.68ZM100.446 109.709L100.197 109.396C100.403 109.232 100.608 109.067 100.812 108.901L101.065 109.211C100.86 109.378 100.653 109.544 100.446 109.709ZM101.677 108.705L101.42 108.398C101.621 108.229 101.822 108.059 102.021 107.887L102.282 108.19C102.082 108.363 101.88 108.534 101.677 108.705ZM102.881 107.667C103.079 107.492 103.276 107.315 103.472 107.136L103.202 106.841C103.008 107.018 102.812 107.193 102.615 107.368L102.881 107.667ZM104.056 106.598L103.783 106.306C103.975 106.126 104.166 105.945 104.355 105.763L104.633 106.051C104.442 106.235 104.249 106.417 104.056 106.598ZM105.202 105.497L104.921 105.212C105.108 105.028 105.294 104.842 105.479 104.654L105.764 104.935C105.578 105.124 105.39 105.311 105.202 105.497ZM106.318 104.366L106.029 104.089C106.211 103.899 106.392 103.708 106.572 103.516L106.864 103.789C106.683 103.983 106.501 104.175 106.318 104.366ZM107.403 103.205L107.107 102.936C107.284 102.741 107.46 102.546 107.634 102.349L107.934 102.614C107.758 102.812 107.581 103.009 107.403 103.205ZM108.456 102.016L108.153 101.755C108.325 101.555 108.496 101.355 108.665 101.153L108.971 101.41C108.801 101.613 108.629 101.815 108.456 102.016ZM109.478 100.798L109.168 100.545C109.334 100.342 109.499 100.137 109.662 99.9308L109.976 100.179C109.811 100.387 109.645 100.593 109.478 100.798ZM110.465 99.5538L110.149 99.3094C110.309 99.1011 110.469 98.8917 110.627 98.6813L110.947 98.9214C110.788 99.1333 110.627 99.3441 110.465 99.5538ZM111.419 98.2831L111.096 98.0473C111.251 97.8349 111.405 97.6214 111.557 97.4068L111.883 97.6383C111.73 97.8543 111.575 98.0692 111.419 98.2831ZM112.339 96.987L112.009 96.76C112.159 96.5434 112.306 96.3258 112.453 96.1071L112.785 96.3297C112.638 96.5498 112.489 96.7689 112.339 96.987ZM113.223 95.6668L112.887 95.4488C113.03 95.2283 113.172 95.0068 113.313 94.7843L113.651 94.9978C113.51 95.2218 113.367 95.4448 113.223 95.6668ZM114.071 94.3226L113.73 94.1137C113.867 93.8896 114.003 93.6644 114.137 93.4383L114.481 93.6425C114.346 93.8702 114.209 94.0969 114.071 94.3226ZM114.882 92.9569L114.535 92.7573C114.666 92.5294 114.796 92.3004 114.924 92.0706L115.273 92.2654C115.144 92.4968 115.014 92.7273 114.882 92.9569ZM115.656 91.5684L115.304 91.3784C115.429 91.1473 115.552 90.9152 115.674 90.6822L116.028 90.8675C115.906 91.1021 115.782 91.3357 115.656 91.5684ZM116.391 90.1609L116.034 89.9805C116.153 89.7456 116.27 89.5099 116.386 89.2732L116.745 89.4488C116.629 89.6871 116.511 89.9244 116.391 90.1609ZM117.089 88.7328L116.727 88.5621C116.839 88.3245 116.95 88.0861 117.059 87.8467L117.423 88.0124C117.313 88.2534 117.202 88.4936 117.089 88.7328ZM117.747 87.2869L117.381 87.1261C117.487 86.8851 117.591 86.6432 117.693 86.4004L118.062 86.5562C117.959 86.8006 117.854 87.0442 117.747 87.2869ZM118.366 85.8234L117.995 85.6727C118.094 85.4293 118.192 85.1851 118.287 84.94L118.66 85.0857C118.564 85.3324 118.465 85.5783 118.366 85.8234ZM118.944 84.3431L118.57 84.2025C118.662 83.9564 118.753 83.7095 118.842 83.4618L119.219 83.5972C119.129 83.8466 119.037 84.0952 118.944 84.3431ZM119.482 82.8487L119.104 82.7184C119.19 82.4699 119.274 82.2206 119.356 81.9706L119.736 82.0957C119.653 82.3474 119.568 82.5985 119.482 82.8487ZM119.98 81.3381L119.598 81.2182C119.677 80.9678 119.754 80.7167 119.829 80.4648L120.212 80.5795C120.136 80.8331 120.059 81.0859 119.98 81.3381ZM120.435 79.8175L120.05 79.708C120.122 79.4551 120.192 79.2014 120.261 78.947L120.647 79.0512C120.578 79.3073 120.507 79.5627 120.435 79.8175ZM120.849 78.2815L120.461 78.1826C120.526 77.9286 120.589 77.6738 120.651 77.4185L121.04 77.5121C120.978 77.7692 120.914 78.0257 120.849 78.2815ZM121.22 76.7386C121.279 76.4802 121.335 76.2211 121.391 75.9613L120.999 75.8784C120.945 76.1363 120.888 76.3937 120.83 76.6503L121.22 76.7386ZM121.55 75.183L121.158 75.1054C121.209 74.8481 121.258 74.5902 121.305 74.3317L121.699 74.404C121.651 74.6643 121.601 74.924 121.55 75.183ZM121.837 73.6214L121.443 73.5545C121.487 73.2948 121.529 73.0345 121.57 72.7737L121.965 72.8353C121.924 73.0979 121.881 73.36 121.837 73.6214ZM122.082 72.0509L121.686 71.9947C121.722 71.735 121.758 71.4746 121.791 71.2138L122.188 71.2646C122.154 71.5273 122.119 71.7894 122.082 72.0509ZM122.284 70.4751L121.886 70.4296C121.916 70.1679 121.944 69.9056 121.971 69.6428L122.369 69.6828C122.342 69.9475 122.314 70.2115 122.284 70.4751ZM122.443 68.8946L122.044 68.8598C122.067 68.5984 122.088 68.3364 122.108 68.0739L122.506 68.1033C122.487 68.3675 122.466 68.6313 122.443 68.8946ZM122.56 67.3091L122.16 67.2851C122.176 67.0225 122.19 66.7595 122.202 66.496L122.602 66.5146C122.59 66.7799 122.575 67.0447 122.56 67.3091ZM122.634 65.7233L122.234 65.71C122.243 65.4475 122.25 65.1846 122.255 64.9213L122.655 64.9293C122.649 65.1944 122.642 65.4591 122.634 65.7233Z" fill="#5C5CAA"/>
<path fill-rule="evenodd" clip-rule="evenodd" d="M53.7541 69.8309L53.8 55.0163C53.8162 49.7592 53.8324 44.4747 53.8447 40.3776C53.4353 40.545 53.0293 40.7286 52.6273 40.9287C41.6342 46.4 39.1192 60.5291 45.4557 73.2604C47.6028 77.5745 50.4854 81.1772 53.788 83.8415C53.7755 82.0979 53.7636 80.4482 53.7541 79.1363L53.7339 76.3466L53.7541 69.8309ZM53.8227 88.7325C44.5923 84.5977 38.1333 75.0802 38.1333 64C38.1333 52.9096 44.6041 43.3849 53.8481 39.2561C53.8593 35.533 53.8666 33.0185 53.8666 32.8001C53.8666 31.9037 53.4826 30.6493 52.1882 29.7079C51.6245 29.2979 50.9022 29.0695 50.2193 28.9446C49.5381 28.8199 48.9069 28.8001 48.5333 28.8001H48.4V28H55.7333H79.7333V28.8001H79.6C79.2263 28.8001 78.5952 28.8199 77.914 28.9445C77.2311 29.0695 76.5088 29.2979 75.9451 29.7079C74.6506 30.6493 74.2666 31.9036 74.2666 32.8001V39.1889C83.5915 43.2808 90.1333 52.849 90.1333 64C90.1333 75.151 83.5915 84.7192 74.2666 88.8111V95.4667C74.2666 96.3631 74.6506 97.6175 75.9451 98.5589C76.5088 98.9689 77.2311 99.1973 77.914 99.3222C78.5952 99.4469 79.2263 99.4667 79.6 99.4667H79.7333V100.267H72.4L48.4 100.267V99.4666H48.5333C48.9069 99.4666 49.5381 99.4468 50.2193 99.3221C50.9022 99.1972 51.6245 98.9688 52.1882 98.5588C53.4826 97.6174 53.8666 96.363 53.8666 95.4666C53.8666 95.1084 53.8469 92.1904 53.8227 88.7325ZM68.4 90.5724V95.0667C68.4 97.4967 66.43 99.4667 64 99.4667C61.5699 99.4667 59.6 97.4967 59.6 95.0667V90.5253C61.0721 90.7935 62.5869 90.9333 64.1333 90.9333C65.5864 90.9333 67.0118 90.8098 68.4 90.5724ZM68.4 88.961C65.417 89.1327 62.4352 88.565 59.6 87.3626V39.0842C62.5342 38.9236 65.5221 39.4766 68.4 40.6828V88.961ZM74.2666 87.6244C74.7046 87.4455 75.1404 87.2484 75.5737 87.0328C85.8709 81.9078 89.7337 68.1463 82.7454 54.7011C80.4752 50.3333 77.5446 46.7903 74.2666 44.1875V76.2669V76.7995V87.6244ZM68.4 37.4276V33.0667C68.4 30.6366 66.43 28.6667 64 28.6667C61.5699 28.6667 59.6 30.6366 59.6 33.0667V37.4746C61.0721 37.2065 62.5869 37.0667 64.1333 37.0667C65.5864 37.0667 67.0118 37.1902 68.4 37.4276Z" fill="white"/>
<defs>
<linearGradient id="paint0_linear_33015:166340" x1="18.6667" y1="18.6667" x2="109.333" y2="109.333" gradientUnits="userSpaceOnUse">
<stop stop-color="#C362A9"/>
<stop offset="1" stop-color="#6C6AEA"/>
</linearGradient>
</defs>
</svg>
