<svg width="128" height="128" viewBox="0 0 128 128" fill="none" xmlns="http://www.w3.org/2000/svg">
<path d="M64 128C99.3462 128 128 99.3462 128 64C128 28.6538 99.3462 0 64 0C28.6538 0 0 28.6538 0 64C0 99.3462 28.6538 128 64 128Z" fill="#FFAA1D"/>
<path d="M64.0002 118.151C93.9085 118.151 118.154 93.9059 118.154 63.9976C118.154 34.0893 93.9085 9.84375 64.0002 9.84375C34.0918 9.84375 9.84631 34.0893 9.84631 63.9976C9.84631 93.9059 34.0918 118.151 64.0002 118.151Z" fill="#242A47"/>
<path d="M64.0004 108.308C88.4709 108.308 108.308 88.471 108.308 64.0006C108.308 39.5301 88.4709 19.6929 64.0004 19.6929C39.53 19.6929 19.6927 39.5301 19.6927 64.0006C19.6927 88.471 39.53 108.308 64.0004 108.308Z" fill="white"/>
<path d="M67.727 94.9975H61.5615V87.9912C57.3017 87.4868 52.5374 85.5811 49.2305 82.5544L53.2661 76.3888C56.6851 79.0792 59.9921 80.6487 63.5793 80.6487C67.9512 80.6487 69.969 78.6869 69.969 75.1557C69.969 66.7482 50.968 67.4769 50.968 54.4172C50.968 47.6351 55.0037 42.927 61.5615 41.6938V34.4634H67.727V41.5817C72.211 42.1983 75.4059 44.4403 78.0963 47.2428L73.5002 52.5115C70.9219 50.1574 68.6799 48.8122 65.485 48.8122C61.7857 48.8122 59.7679 50.5497 59.7679 53.9688C59.7679 61.7037 78.7689 60.5267 78.7689 74.4831C78.7129 81.3213 74.9015 86.4218 67.727 87.767L67.727 94.9975Z" fill="#242A47"/>
</svg>
