<svg width="400" height="215" viewBox="0 0 400 215" fill="none" xmlns="http://www.w3.org/2000/svg">
<g clip-path="url(#clip0)">
<path d="M192.3 0H175.1H131.3C119.6 0 110.9 5.8 105 16.1L16.8 183L0 214.4H17.5H40.8H61.2C72.9 214.4 81.6 208.6 87.5 198.4L182.3 18.9L192.3 0Z" fill="#FF6400"/>
<path d="M390.9 199.8L380.7 182.3L320.9 71.5L312.1 55.5L303.4 70L280.1 112.3C275.7 121.1 275.7 132.7 280.1 142.9L310.7 198.3C316.5 208.5 325.3 214.3 337 214.3H363.3H382.3H399.8L390.9 199.8Z" fill="black"/>
<path d="M313.3 0H296.1H252.3C240.6 0 231.9 5.8 226 16.1L137.9 183L121.1 214.4H138.6H161.9H182.3C194 214.4 202.7 208.6 208.6 198.4L303.4 18.9L313.3 0Z" fill="#00D8E2"/>
</g>
<defs>
<clipPath id="clip0">
<rect width="399.7" height="214.4" fill="white"/>
</clipPath>
</defs>
</svg>
