<svg width="149" height="100" viewBox="0 0 149 100" fill="none" xmlns="http://www.w3.org/2000/svg">
<path d="M5.17015 71.1568L1 79.7805V81.4704H6.40706V83.1777H8.88087V81.4704H9.99409V79.3972H8.88087V76.331H6.40706V79.3972H4.0746L7.87368 71.1568H5.17015Z" fill="#E8DAE6"/>
<path d="M15.1898 76.993C16.1793 76.993 16.6034 77.7422 16.6034 79.2056C16.6034 80.6167 16.0733 81.2787 15.1898 81.2787C14.3946 81.2787 13.9352 80.8432 13.7408 80.0767H11.3024C11.4967 82.2021 13.2107 83.3345 15.2605 83.3345C17.7696 83.3345 19.0772 81.9233 19.0772 79.0836C19.0772 76.2091 17.7696 74.7979 15.8966 74.7979C14.9778 74.7979 14.43 75.1115 14.0942 75.4251V73.3693H18.6178V71.1568H11.6734V77.8815H13.8999C14.1649 77.3415 14.5537 76.993 15.1898 76.993Z" fill="#E8DAE6"/>
<path d="M23.3894 80.4599H20.9863V86L23.3894 83.9791V80.4599Z" fill="#E8DAE6"/>
<path d="M33.3175 74.8153C33.3175 72.0105 31.4092 71 29.2181 71C27.027 71 25.1186 72.0105 25.1186 74.8328V79.5017C25.1186 82.2021 27.027 83.3345 29.2181 83.3345C31.4092 83.3345 33.3175 82.2021 33.3175 79.5017V74.8153ZM30.8437 75.0418V79.2927C30.8437 80.5819 30.3136 81.2787 29.2181 81.2787C28.1049 81.2787 27.5748 80.5819 27.5748 79.2927V75.0418C27.5748 73.7526 28.1049 73.0557 29.2181 73.0557C30.3136 73.0557 30.8437 73.7526 30.8437 75.0418Z" fill="#E8DAE6"/>
<path d="M42.8601 74.8153C42.8601 72.0105 40.9517 71 38.7606 71C36.5695 71 34.6612 72.0105 34.6612 74.8328V79.5017C34.6612 82.2021 36.5695 83.3345 38.7606 83.3345C40.9517 83.3345 42.8601 82.2021 42.8601 79.5017V74.8153ZM40.3863 75.0418V79.2927C40.3863 80.5819 39.8562 81.2787 38.7606 81.2787C37.6474 81.2787 37.1173 80.5819 37.1173 79.2927V75.0418C37.1173 73.7526 37.6474 73.0557 38.7606 73.0557C39.8562 73.0557 40.3863 73.7526 40.3863 75.0418Z" fill="#E8DAE6"/>
<path d="M52.4026 74.8153C52.4026 72.0105 50.4943 71 48.3032 71C46.1121 71 44.2037 72.0105 44.2037 74.8328V79.5017C44.2037 82.2021 46.1121 83.3345 48.3032 83.3345C50.4943 83.3345 52.4026 82.2021 52.4026 79.5017V74.8153ZM49.9288 75.0418V79.2927C49.9288 80.5819 49.3987 81.2787 48.3032 81.2787C47.19 81.2787 46.6599 80.5819 46.6599 79.2927V75.0418C46.6599 73.7526 47.19 73.0557 48.3032 73.0557C49.3987 73.0557 49.9288 73.7526 49.9288 75.0418Z" fill="#E8DAE6"/>
<path d="M61.0087 71.1568H58.6939V83.1777H61.044V75.7735L63.6592 81.0174H65.1612L67.8117 75.7213V83.1777H70.1795V71.1568H67.8293L64.4367 77.7073L61.0087 71.1568Z" fill="#E8DAE6"/>
<path d="M81.3493 74.885C80.9429 72.2544 79.2996 71 76.8788 71C74.1399 71 72.2139 72.6028 72.2139 76.3136V78.0209C72.2139 81.6969 74.1399 83.3345 76.8788 83.3345C79.388 83.3345 80.9253 82.1498 81.3317 79.4495H78.9815C78.7165 80.669 78.1157 81.2787 76.8788 81.2787C75.4475 81.2787 74.6877 80.2509 74.6877 78.0209V76.3136C74.6877 74.0139 75.4475 73.0557 76.8788 73.0557C78.0804 73.0557 78.7518 73.7526 78.9815 74.885H81.3493Z" fill="#E8DAE6"/>
<path d="M83.0766 71.1568V83.1777H87.5471C90.7631 83.1777 92 81.5923 92 79.7282C92 78.23 91.2579 77.324 90.0033 76.8711C90.9751 76.4007 91.6113 75.547 91.6113 74.3101C91.6113 72.1672 90.0386 71.1568 87.1584 71.1568H83.0766ZM85.5504 77.9686H87.1054C88.7664 77.9686 89.5262 78.4042 89.5262 79.5366C89.5262 80.5645 88.8194 81.122 87.3351 81.122H85.5504V77.9686ZM85.5504 73.2125H86.9287C88.7134 73.2125 89.1374 73.7003 89.1374 74.5366C89.1374 75.3902 88.5543 75.9129 87.1937 75.9129H85.5504V73.2125Z" fill="#E8DAE6"/>
<path fill-rule="evenodd" clip-rule="evenodd" d="M35.81 2.53547V3.14438V4.37217V6.89762V8.12541V8.7443V10.6509H42.71V8.40491H38.2V6.76786H42.44V4.65166H38.2V3.01461H42.71V0.628906H35.81V2.53547Z" fill="white"/>
<path fill-rule="evenodd" clip-rule="evenodd" d="M43.33 0.628906L46.13 5.66983L43.33 10.6509H45.86L47.43 7.92577L49 10.6509H51.53L45.86 0.628906H43.33Z" fill="white"/>
<path fill-rule="evenodd" clip-rule="evenodd" d="M2 10.6509C1.9175 10.6399 1.83874 10.6097 1.77011 10.5627C1.70149 10.5156 1.64492 10.4532 1.60499 10.3803C1.56507 10.3073 1.5429 10.2261 1.5403 10.143C1.53769 10.06 1.55472 9.97749 1.59 9.90224L6.08 1.37758C6.19515 1.15109 6.37122 0.961076 6.58846 0.828846C6.80571 0.696615 7.05556 0.627391 7.31 0.628931H9.36C9.44355 0.637789 9.5237 0.666722 9.5936 0.713252C9.66349 0.759783 9.72106 0.822526 9.76135 0.896113C9.80165 0.969699 9.82349 1.05194 9.825 1.13579C9.8265 1.21964 9.80764 1.3026 9.77001 1.37758L5.26 9.90224C5.14457 10.1349 4.96424 10.3294 4.74071 10.4622C4.51717 10.595 4.25996 10.6605 4 10.6509H2Z" fill="#FF6400"/>
<path fill-rule="evenodd" clip-rule="evenodd" d="M3.07997 10.6512H1.15997L2.04997 9.08398L3.07997 10.6512Z" fill="#FF6400"/>
<path fill-rule="evenodd" clip-rule="evenodd" d="M8.27002 0.628906H10.18L9.36002 2.19609L8.27002 0.628906Z" fill="#FF6400"/>
<path fill-rule="evenodd" clip-rule="evenodd" d="M19.48 9.98201L19 9.1535L16.2 3.99279L15.79 3.24414L15.38 3.9329L14.28 5.92931C14.1811 6.15431 14.1301 6.39733 14.1301 6.64302C14.1301 6.88872 14.1811 7.13174 14.28 7.35674L15.72 9.95207C15.8333 10.1801 16.0089 10.3714 16.2266 10.5039C16.4443 10.6363 16.6951 10.7046 16.95 10.7007H19.89L19.48 9.98201Z" fill="url(#paint0_linear_33992_175579)"/>
<path fill-rule="evenodd" clip-rule="evenodd" d="M9.71002 10.6512H7.66002C7.57648 10.6424 7.49633 10.6134 7.42643 10.5669C7.35653 10.5204 7.29897 10.4576 7.25867 10.384C7.21837 10.3104 7.19654 10.2282 7.19503 10.1444C7.19352 10.0605 7.21239 9.97754 7.25002 9.90256L11.76 1.3779C11.874 1.14836 12.0512 0.956011 12.2709 0.823414C12.4905 0.690817 12.7434 0.623463 13 0.62925H15C15.0825 0.640229 15.1613 0.670453 15.2299 0.717472C15.2985 0.764491 15.3551 0.826984 15.395 0.899889C15.435 0.972795 15.4571 1.05406 15.4597 1.13711C15.4623 1.22016 15.4453 1.30265 15.41 1.3779L10.94 9.90256C10.8249 10.1291 10.6488 10.3191 10.4316 10.4513C10.2143 10.5835 9.96447 10.6528 9.71002 10.6512Z" fill="#00D8E2"/>
<path fill-rule="evenodd" clip-rule="evenodd" d="M8.75002 10.6512H6.83002L7.66002 9.08398L8.75002 10.6512Z" fill="#00D8E2"/>
<path fill-rule="evenodd" clip-rule="evenodd" d="M13.94 0.628906H15.86L14.97 2.19609L13.94 0.628906Z" fill="#00D8E2"/>
<path fill-rule="evenodd" clip-rule="evenodd" d="M49.14 4.85131L51.53 0.628906H49.27C49.1588 0.636195 49.0512 0.671047 48.9569 0.730307C48.8626 0.789568 48.7846 0.871365 48.73 0.968295L48 2.12621C47.9273 2.25945 47.8893 2.40873 47.8893 2.56043C47.8893 2.71213 47.9273 2.86141 48 2.99465L49.14 4.85131Z" fill="url(#paint1_linear_33992_175579)"/>
<path d="M24 8.26484C23.6457 8.28681 23.2906 8.23611 22.9566 8.11586C22.6227 7.99562 22.3169 7.80839 22.0582 7.5657C21.7996 7.32301 21.5934 7.03001 21.4525 6.70475C21.3115 6.37949 21.2388 6.02887 21.2388 5.6745C21.2388 5.32013 21.3115 4.96951 21.4525 4.64425C21.5934 4.31899 21.7996 4.02599 22.0582 3.7833C22.3169 3.54061 22.6227 3.35338 22.9566 3.23314C23.2906 3.1129 23.6457 3.0622 24 3.08416H25.9V0.688477H24C22.6739 0.688477 21.4021 1.21431 20.4645 2.15031C19.5268 3.08631 19 4.35579 19 5.67949C19 7.00319 19.5268 8.27268 20.4645 9.20867C21.4021 10.1447 22.6739 10.6705 24 10.6705H25.9V8.26484H24Z" fill="white"/>
<path fill-rule="evenodd" clip-rule="evenodd" d="M30.07 0.628906H26.79V10.6109H30.07C30.7266 10.6109 31.3768 10.4818 31.9834 10.231C32.5901 9.9802 33.1412 9.61256 33.6055 9.1491C34.0698 8.68564 34.4381 8.13544 34.6894 7.5299C34.9407 6.92436 35.07 6.27535 35.07 5.61992C35.07 4.29622 34.5432 3.02674 33.6055 2.09074C32.6679 1.15474 31.3961 0.628906 30.07 0.628906ZM30.07 8.26516H29.18V3.08449H30.07C30.4243 3.06252 30.7794 3.11322 31.1134 3.23346C31.4473 3.3537 31.7531 3.54094 32.0118 3.78363C32.2705 4.02631 32.4766 4.31932 32.6175 4.64457C32.7585 4.96983 32.8312 5.32045 32.8312 5.67482C32.8312 6.0292 32.7585 6.37982 32.6175 6.70507C32.4766 7.03033 32.2705 7.32333 32.0118 7.56602C31.7531 7.80871 31.4473 7.99595 31.1134 8.11619C30.7794 8.23643 30.4243 8.28713 30.07 8.26516Z" fill="white"/>
<path d="M6.26003 28.8385V40.8169H3.70003V28.8385H0.280029V26.333H9.68003V28.8385H6.26003Z" fill="url(#paint2_linear_33992_175579)"/>
<path d="M16.07 33.08C15.9248 32.8807 15.7335 32.7194 15.5124 32.6099C15.2912 32.5003 15.0468 32.4459 14.8 32.4511C14.07 32.4511 13.26 33.06 13.26 34.4475V40.8161H10.86V30.2052H13.2V31.2034C13.4921 30.8472 13.8598 30.5603 14.2766 30.3635C14.6934 30.1667 15.1489 30.0649 15.61 30.0654C16.0398 30.0458 16.4684 30.1257 16.8622 30.2988C17.256 30.472 17.6044 30.7338 17.88 31.0636L16.07 33.08Z" fill="url(#paint3_linear_33992_175579)"/>
<path d="M24 40.767V39.8486C23.7152 40.1912 23.3522 40.4606 22.9416 40.6343C22.531 40.808 22.0846 40.8808 21.64 40.8468C21.1859 40.885 20.729 40.8225 20.302 40.6637C19.8749 40.505 19.4884 40.2539 19.17 39.9285C18.6246 39.2629 18.3403 38.4221 18.37 37.5628C18.3582 37.139 18.4367 36.7176 18.6002 36.3264C18.7638 35.9351 19.0087 35.583 19.3188 35.2934C19.6288 35.0037 19.997 34.783 20.3988 34.6459C20.8007 34.5089 21.2272 34.4585 21.65 34.4983H23.91V33.9393C23.91 32.7913 23.4 32.2823 22.13 32.2823C21.7735 32.2494 21.4147 32.3126 21.091 32.4654C20.7674 32.6181 20.4907 32.8548 20.29 33.1507L18.76 31.5436C19.163 31.0242 19.6926 30.6166 20.2984 30.3597C20.9041 30.1028 21.5657 30.0052 22.22 30.0762C24.91 30.0762 26.31 31.334 26.31 33.8095V40.7969L24 40.767ZM23.94 36.305H22C21.13 36.305 20.65 36.7542 20.65 37.5029C20.65 38.2515 21.1 38.7207 22.04 38.7207C22.3124 38.7572 22.5896 38.7302 22.8498 38.6419C23.1101 38.5536 23.3463 38.4063 23.54 38.2116C23.8248 37.8273 23.9501 37.3482 23.89 36.874L23.94 36.305Z" fill="url(#paint4_linear_33992_175579)"/>
<path d="M34.18 40.767V39.7688C33.9132 40.144 33.5566 40.4466 33.1426 40.6488C32.7286 40.8511 32.2705 40.9466 31.81 40.9267C31.3692 40.9299 30.9324 40.843 30.5266 40.6713C30.1207 40.4996 29.7543 40.2469 29.45 39.9285C28.5 38.9303 28.45 37.0537 28.45 35.4766C28.45 33.8994 28.45 32.0827 29.45 31.0345C29.7502 30.7163 30.113 30.4634 30.5156 30.2916C30.9183 30.1198 31.3521 30.0329 31.79 30.0363C32.2368 30.0101 32.6832 30.0927 33.0909 30.2771C33.4985 30.4614 33.8551 30.7419 34.13 31.0944V26.333H36.52V40.767H34.18ZM32.49 32.452C31.06 32.452 30.87 33.7497 30.87 35.4466C30.87 37.1436 31.06 38.4412 32.49 38.4412C33.92 38.4412 34.13 37.1236 34.13 35.4466C34.13 33.7696 33.93 32.452 32.49 32.452Z" fill="url(#paint5_linear_33992_175579)"/>
<path d="M39.17 28.3991V26.2529H41.62V28.3991H39.17ZM39.17 40.7668V30.2058H41.6V40.7668H39.17Z" fill="url(#paint6_linear_33992_175579)"/>
<path d="M49.85 40.7663V34.3778C49.85 32.9403 49.02 32.4512 48.27 32.4512C47.52 32.4512 46.67 32.9403 46.67 34.3778V40.7663H44.27V30.2053H46.61V31.2035C46.9027 30.8538 47.268 30.5719 47.6807 30.3771C48.0934 30.1823 48.5435 30.0794 49 30.0755C49.4233 30.0631 49.8444 30.1403 50.2356 30.3021C50.6269 30.4638 50.9794 30.7064 51.27 31.0138C51.9843 31.8422 52.3435 32.9179 52.27 34.0084V40.7663H49.85Z" fill="url(#paint7_linear_33992_175579)"/>
<path d="M58.13 44.7592C57.4833 44.8077 56.834 44.709 56.2311 44.4703C55.6282 44.2317 55.0876 43.8594 54.65 43.3816L56.15 41.7147C56.3764 41.981 56.6607 42.1923 56.9813 42.3325C57.3019 42.4726 57.6503 42.5378 58 42.5232C58.2827 42.5361 58.5648 42.4867 58.8262 42.3786C59.0877 42.2706 59.3222 42.1064 59.513 41.8978C59.7038 41.6892 59.8464 41.4413 59.9305 41.1716C60.0147 40.9019 60.0384 40.617 60 40.3371V39.2591C59.7341 39.6089 59.3862 39.8883 58.987 40.0728C58.5878 40.2573 58.1493 40.3412 57.71 40.3172C57.2858 40.3322 56.8632 40.2573 56.4702 40.0973C56.0771 39.9372 55.7226 39.6958 55.43 39.3888C54.53 38.3906 54.43 37.0331 54.43 35.1864C54.43 33.3397 54.5 32.0021 55.43 31.0139C55.7263 30.7057 56.0841 30.4629 56.4803 30.3012C56.8765 30.1396 57.3022 30.0628 57.73 30.0756C58.1709 30.0635 58.6082 30.159 59.0038 30.3538C59.3994 30.5486 59.7413 30.8369 60 31.1936V30.1954H62.32V40.3771C62.3621 40.9464 62.2842 41.5181 62.0913 42.0555C61.8983 42.5929 61.5946 43.0839 61.1998 43.4968C60.805 43.9098 60.3277 44.2355 59.799 44.4529C59.2702 44.6704 58.7017 44.7747 58.13 44.7592ZM58.37 32.4513C56.95 32.4513 56.81 33.7889 56.81 35.1864C56.81 36.5839 57 37.9315 58.37 37.9315C59.74 37.9315 60 36.5839 60 35.1864C60 33.7889 59.79 32.4513 58.37 32.4513Z" fill="url(#paint8_linear_33992_175579)"/>
<path d="M78.8 40.767V32.3522L76.3 37.8223H74.57L72.05 32.3522V40.767H69.49V26.333H72L75.42 34.139L78.83 26.333H81.35V40.767H78.8Z" fill="url(#paint9_linear_33992_175579)"/>
<path d="M84.2 28.3991V26.2529H86.65V28.3991H84.2ZM84.2 40.7668V30.2058H86.6V40.7668H84.2Z" fill="url(#paint10_linear_33992_175579)"/>
<path d="M94.87 40.7663V34.3778C94.87 32.9404 94.04 32.4513 93.29 32.4513C92.54 32.4513 91.69 32.9404 91.69 34.3778V40.7663H89.3V30.2053H91.63V31.2035C91.9266 30.8581 92.2948 30.581 92.7092 30.3914C93.1235 30.2019 93.5742 30.1043 94.03 30.1055C94.4516 30.0945 94.8708 30.1724 95.2602 30.3341C95.6496 30.4958 96.0005 30.7376 96.29 31.0438C97.0043 31.8723 97.3635 32.9479 97.29 34.0384V40.7963L94.87 40.7663Z" fill="url(#paint11_linear_33992_175579)"/>
<path d="M99.81 28.3991V26.2529H102.25V28.3991H99.81ZM99.81 40.7668V30.2058H102.21V40.7668H99.81Z" fill="url(#paint12_linear_33992_175579)"/>
<path d="M110.48 40.7663V34.3778C110.48 32.9404 109.65 32.4513 108.9 32.4513C108.15 32.4513 107.3 32.9404 107.3 34.3778V40.7663H104.91V30.2053H107.24V31.2035C107.537 30.8581 107.905 30.581 108.319 30.3914C108.734 30.2019 109.184 30.1043 109.64 30.1055C110.062 30.0945 110.481 30.1724 110.87 30.3341C111.26 30.4958 111.611 30.7376 111.9 31.0438C112.614 31.8723 112.973 32.9479 112.9 34.0384V40.7963L110.48 40.7663Z" fill="url(#paint13_linear_33992_175579)"/>
<path d="M118.77 44.7599C118.123 44.8107 117.473 44.713 116.87 44.4742C116.267 44.2354 115.726 43.8619 115.29 43.3824L116.78 41.7154C117.011 41.9847 117.3 42.1976 117.626 42.3378C117.952 42.478 118.306 42.5416 118.66 42.5239C120.09 42.5239 120.59 41.4159 120.59 40.3378V39.2598C120.326 39.6088 119.98 39.8878 119.582 40.0723C119.185 40.2568 118.748 40.3411 118.31 40.3179C117.884 40.3344 117.46 40.2601 117.065 40.1001C116.67 39.94 116.314 39.6978 116.02 39.3895C115.12 38.3913 115.02 37.0338 115.02 35.1871C115.02 33.3404 115.09 32.0028 116.02 31.0146C116.317 30.7078 116.675 30.466 117.071 30.3045C117.467 30.143 117.892 30.0653 118.32 30.0763C118.773 30.0515 119.224 30.141 119.633 30.3364C120.042 30.5318 120.395 30.8268 120.66 31.1943V30.1961H123V40.3778C123.043 40.9505 122.964 41.5258 122.768 42.066C122.573 42.6062 122.266 43.0992 121.866 43.5128C121.467 43.9264 120.985 44.2512 120.452 44.4661C119.918 44.681 119.345 44.7811 118.77 44.7599ZM119 32.452C117.58 32.452 117.43 33.7896 117.43 35.1871C117.43 36.5846 117.59 37.9322 119 37.9322C120.41 37.9322 120.58 36.5746 120.58 35.1771C120.58 33.7796 120.42 32.452 119 32.452Z" fill="url(#paint14_linear_33992_175579)"/>
<path d="M134.89 40.767H133L128.67 26.333H131.32L133.95 35.7361L136.58 26.333H139.25L134.89 40.767Z" fill="url(#paint15_linear_33992_175579)"/>
<path d="M140.38 40.7662V38.3904L145.27 32.1317C145.705 31.6533 145.947 31.031 145.95 30.3848C145.95 29.3068 145.38 28.5781 144.37 28.5781C143.58 28.5781 142.77 29.0273 142.77 30.4248H140.38C140.335 29.8784 140.406 29.3286 140.587 28.8113C140.769 28.294 141.058 27.8207 141.436 27.4223C141.813 27.024 142.27 26.7095 142.778 26.4993C143.285 26.2891 143.831 26.1879 144.38 26.2024C144.929 26.1802 145.477 26.2754 145.987 26.4816C146.496 26.6879 146.956 27.0004 147.335 27.3983C147.713 27.7962 148.002 28.2703 148.183 28.7888C148.363 29.3073 148.43 29.8583 148.38 30.4048C148.362 31.6421 147.868 32.8251 147 33.7089L143.33 38.3904H148.39V40.7662H140.38Z" fill="url(#paint16_linear_33992_175579)"/>
<path d="M68.24 5.2506L69.05 3.88307L71.23 7.25699V3.44386C71.227 3.38941 71.2109 3.33648 71.183 3.28957C71.1552 3.24265 71.1164 3.20313 71.07 3.17434L67.15 0.928384C67.1025 0.908615 67.0515 0.898438 67 0.898438C66.9485 0.898438 66.8975 0.908615 66.85 0.928384L63 3.15438H62.94C62.8697 3.20792 62.8231 3.28669 62.81 3.37398C62.81 3.37398 62.81 3.37398 62.81 3.37398V7.0873L64.81 3.95294C64.9689 3.75928 65.1739 3.60847 65.4062 3.51431C65.6386 3.42014 65.8908 3.38562 66.14 3.41391H66.74L63.19 9.13361L63.61 9.38316L67.22 3.39395H68.81L65.21 9.48299L66.71 10.3414L66.89 10.4512C66.9672 10.4813 67.0528 10.4813 67.13 10.4512L71.13 8.15538L70.37 8.59458L68.24 5.2506ZM68.55 9.67264L67 7.29692L68 5.72974L70 8.8641L68.55 9.67264Z" fill="#2B374D"/>
<path d="M67.04 7.29667L68.55 9.67239L69.95 8.86385L67.96 5.72949L67.04 7.29667Z" fill="#009FF6"/>
<path d="M71.23 7.90557V7.25674L69.05 3.88281L68.24 5.25035L70.34 8.63426L71.1 8.19505C71.1681 8.14391 71.2145 8.0691 71.23 7.98543V7.90557Z" fill="#009FF6"/>
<path d="M62.12 8.5246L63.19 9.1335L66.75 3.43376H66.15C65.8991 3.4078 65.6457 3.44541 65.4132 3.54312C65.1808 3.64082 64.9767 3.79547 64.82 3.99276L62.82 7.12712L62.14 8.17523V8.56453L62.12 8.5246Z" fill="white"/>
<path d="M68.81 3.43359H67.22L63.61 9.38288L64.87 10.1016L65.21 9.52263L68.81 3.43359Z" fill="white"/>
<path d="M71.9 3.42445C71.8943 3.25898 71.8474 3.09753 71.7636 2.95464C71.6798 2.81175 71.5617 2.69191 71.42 2.60592L67.42 0.330015C67.2791 0.258166 67.1232 0.220703 66.965 0.220703C66.8068 0.220703 66.6509 0.258166 66.51 0.330015L62.69 2.55601L62.54 2.64585C62.4148 2.7347 62.3117 2.85116 62.2389 2.98619C62.1661 3.12122 62.1254 3.27118 62.12 3.42445V8.13596L62.8 7.08785V3.45439C62.8131 3.3671 62.8597 3.28833 62.93 3.23479L66.85 0.928937C66.8975 0.909169 66.9485 0.898991 67 0.898991C67.0515 0.898991 67.1025 0.909169 67.15 0.928937L71.06 3.17489C71.1064 3.20368 71.1452 3.24321 71.173 3.29012C71.2009 3.33704 71.217 3.38996 71.22 3.44441V7.98623C71.2179 8.03233 71.2062 8.07747 71.1855 8.11874C71.1648 8.16001 71.1357 8.19649 71.1 8.2258L70.34 8.66501L70 8.86465L68.6 9.6732L67.18 10.4917C67.1028 10.5218 67.0172 10.5218 66.94 10.4917L65.26 9.49352L64.92 10.0725L66.43 10.9409L66.56 11.0208L66.67 11.0807C66.7964 11.1344 66.9326 11.1616 67.07 11.1605C67.1963 11.1575 67.3213 11.1339 67.44 11.0906L71.56 8.70494C71.663 8.61477 71.7463 8.50445 71.8047 8.38082C71.8632 8.25719 71.8957 8.12289 71.9 7.98623V3.42445Z" fill="#8BBEDE"/>
<path d="M79.3344 5.64182L78.0545 4.36426L76.7747 5.64182L78.0545 6.91938L79.3344 5.64182Z" fill="#F9B800"/>
<path d="M88.0745 5.64182L86.7946 4.36426L85.5148 5.64182L86.7946 6.91938L88.0745 5.64182Z" fill="#F9B800"/>
<path d="M83.7045 5.64183L82.4246 4.36426L81.1447 5.64182L82.4246 6.91939L83.7045 5.64183Z" fill="#F9B800"/>
<path d="M85.8852 7.82054L84.6054 6.54297L82.2649 8.87929L83.5447 10.1569L85.8852 7.82054Z" fill="#F9B800"/>
<path d="M82.5743 2.40061L81.2944 1.12305L78.9539 3.45936L80.2338 4.73693L82.5743 2.40061Z" fill="#F9B800"/>
<path d="M85.8874 3.46659L82.4257 0.00488281L81.147 1.2836L84.6087 4.74531L85.8874 3.46659Z" fill="#F9B800"/>
<path d="M83.7075 10.0116L80.2356 6.5459L78.9557 7.82346L82.4276 11.2891L83.7075 10.0116Z" fill="#F9B800"/>
<path d="M46.11 48.6826H2.43001C1.71757 48.6826 1.14001 49.2591 1.14001 49.9703V60.6411C1.14001 61.3523 1.71757 61.9288 2.43001 61.9288H46.11C46.8225 61.9288 47.4 61.3523 47.4 60.6411V49.9703C47.4 49.2591 46.8225 48.6826 46.11 48.6826Z" stroke="#E9DBE6" stroke-miterlimit="10"/>
<path d="M4.31 59.0936V51.667H9.37V53.2941H6.14V54.5318H8.9V56.1689H6.14V57.4666H9.37V59.0936H4.31Z" fill="#E8DAE6"/>
<path d="M13.62 56.4485H12.5V59.0937H10.67V51.6671H13.62C13.9475 51.646 14.2759 51.6921 14.5849 51.8027C14.8938 51.9133 15.1768 52.0859 15.4162 52.31C15.6557 52.5341 15.8465 52.8048 15.977 53.1054C16.1075 53.406 16.1748 53.7302 16.1748 54.0578C16.1748 54.3854 16.1075 54.7096 15.977 55.0102C15.8465 55.3108 15.6557 55.5815 15.4162 55.8056C15.1768 56.0297 14.8938 56.2023 14.5849 56.3129C14.2759 56.4235 13.9475 56.4696 13.62 56.4485ZM13.54 53.3042H12.54V54.8114H13.54C13.6464 54.8237 13.7543 54.8133 13.8564 54.781C13.9586 54.7488 14.0527 54.6953 14.1327 54.6241C14.2127 54.553 14.2767 54.4657 14.3205 54.3681C14.3644 54.2705 14.387 54.1648 14.387 54.0578C14.387 53.9508 14.3644 53.8451 14.3205 53.7475C14.2767 53.6499 14.2127 53.5626 14.1327 53.4915C14.0527 53.4203 13.9586 53.3668 13.8564 53.3345C13.7543 53.3023 13.6464 53.2919 13.54 53.3042Z" fill="#E8DAE6"/>
<path d="M21.91 58.3247C21.3506 58.8645 20.603 59.1662 19.825 59.1662C19.047 59.1662 18.2994 58.8645 17.74 58.3247C16.96 57.5461 16.99 56.498 16.99 55.3301C16.99 54.1622 16.99 53.174 17.74 52.3854C18.2994 51.8457 19.047 51.5439 19.825 51.5439C20.603 51.5439 21.3506 51.8457 21.91 52.3854C22.69 53.174 22.66 54.2121 22.66 55.3301C22.66 56.4481 22.69 57.5461 21.91 58.3247ZM20.56 53.5533C20.4664 53.452 20.3527 53.3711 20.2262 53.3158C20.0997 53.2605 19.9631 53.2319 19.825 53.2319C19.6869 53.2319 19.5503 53.2605 19.4238 53.3158C19.2973 53.3711 19.1837 53.452 19.09 53.5533C18.93 53.7729 18.82 54.0225 18.82 55.38C18.82 56.7376 18.93 56.9771 19.09 57.1967C19.1837 57.2981 19.2973 57.3789 19.4238 57.4342C19.5503 57.4895 19.6869 57.5181 19.825 57.5181C19.9631 57.5181 20.0997 57.4895 20.2262 57.4342C20.3527 57.3789 20.4664 57.2981 20.56 57.1967C20.73 56.9771 20.83 56.7376 20.83 55.38C20.83 54.0225 20.73 53.7729 20.56 53.5533Z" fill="#E8DAE6"/>
<path d="M26.51 59.1636C26.1256 59.1743 25.7432 59.1053 25.3869 58.961C25.0306 58.8167 24.7082 58.6001 24.44 58.3251C23.66 57.5465 23.69 56.4984 23.69 55.3305C23.69 54.1626 23.69 53.1743 24.44 52.3858C24.7082 52.1107 25.0306 51.8942 25.3869 51.7498C25.7432 51.6055 26.1256 51.5365 26.51 51.5473C27.2031 51.513 27.883 51.7454 28.4096 52.1967C28.9361 52.648 29.2691 53.2838 29.34 53.9729H27.47C27.4401 53.7462 27.3257 53.5392 27.1496 53.393C26.9735 53.2468 26.7487 53.1723 26.52 53.1843C26.3843 53.1776 26.2488 53.202 26.124 53.2556C25.9992 53.3093 25.8884 53.3907 25.8 53.4938C25.63 53.7134 25.52 53.9729 25.52 55.3305C25.52 56.688 25.63 56.9475 25.8 57.1671C25.8874 57.272 25.9978 57.3553 26.1226 57.4107C26.2475 57.4661 26.3834 57.4921 26.52 57.4866C26.7496 57.496 26.9745 57.4192 27.1503 57.2715C27.3262 57.1237 27.4402 56.9155 27.47 56.688H29.34C29.2812 57.3861 28.9534 58.0343 28.4256 58.496C27.8977 58.9577 27.211 59.197 26.51 59.1636Z" fill="#E8DAE6"/>
<path d="M34.08 59.0936V56.099H32.13V59.0936H30.3V51.667H32.13V54.5219H34.08V51.667H35.91V59.0936H34.08Z" fill="#E8DAE6"/>
<path d="M101.42 79.5269C101.353 79.4498 101.27 79.3878 101.177 79.3448C101.084 79.3018 100.983 79.2788 100.88 79.2774C100.795 79.2768 100.711 79.2943 100.633 79.3287C100.555 79.363 100.486 79.4135 100.429 79.4768C100.372 79.54 100.33 79.6146 100.304 79.6955C100.278 79.7764 100.27 79.8619 100.28 79.9462V82.851H98.79V77.9598H100.24V78.3591C100.558 78.0725 100.971 77.9127 101.4 77.9099C101.611 77.8971 101.823 77.9307 102.02 78.0083C102.217 78.0859 102.394 78.2056 102.54 78.3591L101.42 79.5269Z" fill="#E8DAE6"/>
<path d="M104.08 80.9144C104.084 81.0225 104.109 81.1287 104.156 81.2264C104.202 81.3242 104.268 81.4113 104.35 81.4825C104.431 81.5536 104.527 81.6072 104.63 81.64C104.733 81.6728 104.842 81.6841 104.95 81.673C105.137 81.6839 105.324 81.6527 105.497 81.5819C105.67 81.511 105.825 81.4023 105.95 81.2638L106.84 82.1522C106.602 82.4153 106.307 82.6219 105.978 82.7566C105.65 82.8913 105.295 82.9509 104.94 82.9308C103.85 82.9308 102.61 82.5315 102.61 80.4253C102.567 80.1137 102.592 79.7964 102.682 79.4951C102.773 79.1938 102.927 78.9154 103.135 78.6788C103.342 78.4421 103.598 78.2528 103.886 78.1236C104.173 77.9944 104.485 77.9283 104.8 77.9298C105.102 77.9202 105.402 77.9746 105.682 78.0892C105.961 78.2039 106.213 78.3763 106.421 78.595C106.628 78.8137 106.787 79.0739 106.887 79.3584C106.987 79.6429 107.026 79.9452 107 80.2456V80.9144H104.08ZM105.46 79.5369C105.403 79.4151 105.311 79.3134 105.195 79.2456C105.078 79.1778 104.944 79.1471 104.81 79.1576C104.676 79.1456 104.541 79.1757 104.424 79.2437C104.308 79.3117 104.216 79.4141 104.16 79.5369C104.106 79.656 104.079 79.7855 104.08 79.9162H105.54C105.541 79.7855 105.514 79.656 105.46 79.5369Z" fill="#E8DAE6"/>
<path d="M112.89 82.8512H111.7L110.82 80.176L109.93 82.8512H108.74L107.27 77.96H108.84L109.45 80.4954L110.3 77.96H111.3L112.15 80.4954L112.76 77.96H114.34L112.89 82.8512Z" fill="#E8DAE6"/>
<path d="M117.3 82.8512V82.4519C117.164 82.6042 116.996 82.7238 116.807 82.8016C116.618 82.8794 116.414 82.9134 116.21 82.9011C115.774 82.913 115.351 82.7555 115.03 82.4619C114.743 82.15 114.592 81.737 114.61 81.3139C114.61 80.5853 115.11 79.8965 116.27 79.8965H117.27V79.7767C117.27 79.3275 117.05 79.1678 116.53 79.1678C116.383 79.1597 116.236 79.1841 116.099 79.2393C115.963 79.2945 115.84 79.3792 115.74 79.4872L114.82 78.5589C115.048 78.3228 115.326 78.1417 115.635 78.0292C115.943 77.9168 116.273 77.8761 116.6 77.9101C118 77.9101 118.76 78.489 118.76 79.6769V82.8512H117.3ZM117.3 80.8548H116.54C116.25 80.8548 116.07 81.0145 116.07 81.2441C116.07 81.4737 116.23 81.6533 116.56 81.6533C116.666 81.6691 116.775 81.6601 116.877 81.6273C116.979 81.5944 117.073 81.5384 117.15 81.4637C117.209 81.3979 117.253 81.3201 117.279 81.2356C117.305 81.1511 117.312 81.0621 117.3 80.9746V80.8548Z" fill="#E8DAE6"/>
<path d="M122.43 79.527C122.365 79.4491 122.284 79.3864 122.193 79.3433C122.101 79.3001 122.001 79.2777 121.9 79.2774C121.815 79.277 121.73 79.2945 121.652 79.3288C121.574 79.3631 121.503 79.4134 121.446 79.4764C121.388 79.5395 121.345 79.6139 121.318 79.6948C121.291 79.7757 121.282 79.8614 121.29 79.9462V82.851H119.8V77.9598H121.26V78.3591C121.574 78.0724 121.984 77.9124 122.41 77.9099C122.623 77.897 122.836 77.9305 123.035 78.0081C123.233 78.0857 123.412 78.2054 123.56 78.3591L122.43 79.527Z" fill="#E8DAE6"/>
<path d="M126.45 82.8507V82.4515C126.306 82.6053 126.131 82.7262 125.936 82.8055C125.741 82.8848 125.53 82.9206 125.32 82.9106C124.88 82.9182 124.455 82.7575 124.13 82.4614C123.73 81.8551 123.57 81.1225 123.68 80.4051C123.582 79.7072 123.742 78.9977 124.13 78.4087C124.289 78.259 124.476 78.1422 124.68 78.065C124.884 77.9879 125.102 77.9521 125.32 77.9595C125.52 77.9482 125.721 77.9788 125.908 78.0493C126.096 78.1198 126.267 78.2286 126.41 78.3688V76.4023H127.9V82.8507H126.45ZM125.79 79.2572C125.23 79.2572 125.17 79.6964 125.17 80.4051C125.17 81.1139 125.23 81.5631 125.79 81.5631C126.35 81.5631 126.41 81.1139 126.41 80.4051C126.41 79.6964 126.34 79.2772 125.79 79.2772V79.2572Z" fill="#E8DAE6"/>
<path d="M40.3183 52L38 57.0217V58.0058H41.0059V59H42.3811V58.0058H43V56.7986H42.3811V55.013H41.0059V56.7986H39.7092L41.8212 52H40.3183Z" fill="#E8DAE6"/>
<path d="M6.6354 91.1144V96.6186L3.39302 91.1144H2V99.8856H3.59717V94.4576L6.82755 99.8856H8.23258V91.1144H6.6354Z" fill="#E8DAE6"/>
<path d="M14.6483 96.3136C14.6483 94.4068 13.7236 93.4153 12.0544 93.4153C10.4092 93.4153 9.46048 94.4068 9.46048 96.3136V97.0763C9.46048 98.8559 10.3131 100 12.0544 100C13.8677 100 14.6483 98.8178 14.6483 97.0763V96.3136ZM12.0544 98.6271C11.2018 98.6271 10.9856 97.9407 10.9856 97.0254V96.3644C10.9856 95.3475 11.2978 94.7881 12.0544 94.7881C12.8109 94.7881 13.1232 95.3475 13.1232 96.3644V97.0254C13.1232 97.9407 12.895 98.6271 12.0544 98.6271Z" fill="#E8DAE6"/>
<path d="M19.2519 93.5297L17.9189 97.6483L16.5739 93.5297H14.8927L17.2224 99.8856H18.6635L20.9451 93.5297H19.2519Z" fill="#E8DAE6"/>
<path d="M23.2095 97.9025H21.3362V99.8856H23.2095V97.9025Z" fill="#E8DAE6"/>
<path d="M32.6649 98.3856H29.8068L31.512 96.2627C32.0404 95.6017 32.761 94.6992 32.761 93.5424C32.761 92.0932 31.6321 91 30.143 91C28.714 91 27.5371 92.0297 27.5371 93.5424H29.0262C29.0743 92.8432 29.4946 92.4746 30.059 92.4746C30.5994 92.4746 31.0917 92.8305 31.0917 93.5424C31.0917 94.1144 30.8396 94.6483 30.3232 95.2839L27.5491 98.7415V99.8856H32.6649V98.3856Z" fill="#E8DAE6"/>
<path d="M35.2232 99.8856H37.0246L38.6938 96.3136C39.1621 95.3093 39.4624 94.4958 39.4624 93.8093C39.4624 91.8644 38.2134 91 36.6643 91C35.1272 91 33.8783 91.8771 33.8783 93.822C33.8783 95.3347 34.887 96.4407 36.1599 96.4407C36.4481 96.4407 36.7003 96.4025 36.9645 96.2754L35.2232 99.8856ZM37.7811 93.7458C37.7811 94.4703 37.3968 94.9788 36.6643 94.9788C35.9438 94.9788 35.5595 94.4703 35.5595 93.7458C35.5595 93.0085 35.9438 92.5 36.6643 92.5C37.3968 92.5 37.7811 93.0085 37.7811 93.7458Z" fill="#E8DAE6"/>
<path d="M43.2696 96.9237H46.3799V95.5H43.2696V96.9237Z" fill="#E8DAE6"/>
<path d="M53.5052 99.8856C55.3785 99.8856 56.6875 98.8559 56.6875 96.072V94.928C56.6875 92.1314 55.3785 91.1144 53.5052 91.1144H50.563V99.8856H53.5052ZM53.5052 98.3856H52.2442V92.6271H53.5052C54.622 92.6271 55.0063 93.4153 55.0063 94.928V96.072C55.0063 97.5847 54.622 98.3856 53.5052 98.3856Z" fill="#E8DAE6"/>
<path d="M61.3709 98.0805C61.1428 98.4237 60.9386 98.6271 60.3022 98.6271C59.4495 98.6271 59.1853 97.9915 59.1733 97.1144H62.5958V96.3898C62.5958 94.4576 61.8153 93.4153 60.122 93.4153C58.5609 93.4153 57.6482 94.3432 57.6482 96.2627V97.1271C57.6482 98.7669 58.5128 100 60.3142 100C61.395 100 62.0915 99.6949 62.5118 98.9195L61.3709 98.0805ZM60.134 94.7881C60.7105 94.7881 61.0227 95.1314 61.0587 95.9576H59.1733C59.2334 95.2331 59.5216 94.7881 60.134 94.7881Z" fill="#E8DAE6"/>
<path d="M67.2112 98.0805C66.995 98.4619 66.6708 98.6271 66.2144 98.6271C65.2417 98.6271 65.0135 97.9407 65.0135 97.0254V96.3644C65.0135 95.3475 65.3498 94.7881 66.2144 94.7881C66.6948 94.7881 66.995 95.0169 67.1992 95.322L68.352 94.4703C67.9317 93.7712 67.1751 93.4153 66.2505 93.4153C64.4611 93.4153 63.4884 94.4068 63.4884 96.2627V97.1271C63.4884 98.8559 64.4491 100 66.1664 100C67.2472 100 67.9317 99.6695 68.352 98.9195L67.2112 98.0805Z" fill="#E8DAE6"/>
<path d="M70.9634 97.9025H69.09V99.8856H70.9634V97.9025Z" fill="#E8DAE6"/>
<path d="M79.0617 91.1144H77.5486L76.1916 92.0805V93.7966L77.3805 92.9703V99.8856H79.0617V91.1144Z" fill="#E8DAE6"/>
<path d="M86.9039 98.3856H84.0458L85.7511 96.2627C86.2795 95.6017 87 94.6992 87 93.5424C87 92.0932 85.8712 91 84.3821 91C82.953 91 81.7762 92.0297 81.7762 93.5424H83.2653C83.3133 92.8432 83.7336 92.4746 84.298 92.4746C84.8384 92.4746 85.3308 92.8305 85.3308 93.5424C85.3308 94.1144 85.0786 94.6483 84.5622 95.2839L81.7882 98.7415V99.8856H86.9039V98.3856Z" fill="#E8DAE6"/>
<defs>
<linearGradient id="paint0_linear_33992_175579" x1="20.76" y1="9.09361" x2="14.4642" y2="6.10021" gradientUnits="userSpaceOnUse">
<stop stop-color="white"/>
<stop offset="0.19" stop-color="#FBFBFB"/>
<stop offset="0.33" stop-color="#F1F1F1"/>
<stop offset="0.45" stop-color="#E1E1E1"/>
<stop offset="0.57" stop-color="#CACACA"/>
<stop offset="0.67" stop-color="#ADADAD"/>
<stop offset="0.78" stop-color="#898989"/>
<stop offset="0.88" stop-color="#5F5F5F"/>
<stop offset="0.98" stop-color="#2E2E2E"/>
<stop offset="1" stop-color="#212121"/>
</linearGradient>
<linearGradient id="paint1_linear_33992_175579" x1="51.43" y1="1.39752" x2="48.3728" y2="3.1891" gradientUnits="userSpaceOnUse">
<stop stop-color="white"/>
<stop offset="0.18" stop-color="#FBFBFB"/>
<stop offset="0.32" stop-color="#F1F1F1"/>
<stop offset="0.44" stop-color="#E1E1E1"/>
<stop offset="0.55" stop-color="#CACACA"/>
<stop offset="0.65" stop-color="#ADADAD"/>
<stop offset="0.75" stop-color="#898989"/>
<stop offset="0.85" stop-color="#5F5F5F"/>
<stop offset="0.95" stop-color="#2E2E2E"/>
<stop offset="1" stop-color="#0E0E0E"/>
</linearGradient>
<linearGradient id="paint2_linear_33992_175579" x1="4.98003" y1="27.9401" x2="4.98003" y2="40.0084" gradientUnits="userSpaceOnUse">
<stop stop-color="#94E0DD"/>
<stop offset="1" stop-color="#E7DBE6"/>
</linearGradient>
<linearGradient id="paint3_linear_33992_175579" x1="111.737" y1="331.055" x2="111.737" y2="461.065" gradientUnits="userSpaceOnUse">
<stop stop-color="#94E0DD"/>
<stop offset="1" stop-color="#E7DBE6"/>
</linearGradient>
<linearGradient id="paint4_linear_33992_175579" x1="195.795" y1="332.458" x2="195.795" y2="463.079" gradientUnits="userSpaceOnUse">
<stop stop-color="#94E0DD"/>
<stop offset="1" stop-color="#E7DBE6"/>
</linearGradient>
<linearGradient id="paint5_linear_33992_175579" x1="290.725" y1="434.884" x2="290.725" y2="611.353" gradientUnits="userSpaceOnUse">
<stop stop-color="#94E0DD"/>
<stop offset="1" stop-color="#E7DBE6"/>
</linearGradient>
<linearGradient id="paint6_linear_33992_175579" x1="138.15" y1="432.496" x2="138.15" y2="607.969" gradientUnits="userSpaceOnUse">
<stop stop-color="#94E0DD"/>
<stop offset="1" stop-color="#E7DBE6"/>
</linearGradient>
<linearGradient id="paint7_linear_33992_175579" x1="430.804" y1="329.345" x2="430.804" y2="458.611" gradientUnits="userSpaceOnUse">
<stop stop-color="#94E0DD"/>
<stop offset="1" stop-color="#E7DBE6"/>
</linearGradient>
<linearGradient id="paint8_linear_33992_175579" x1="515.698" y1="441.443" x2="515.698" y2="619.13" gradientUnits="userSpaceOnUse">
<stop stop-color="#94E0DD"/>
<stop offset="1" stop-color="#E7DBE6"/>
</linearGradient>
<linearGradient id="paint9_linear_33992_175579" x1="964.09" y1="430.341" x2="964.09" y2="604.849" gradientUnits="userSpaceOnUse">
<stop stop-color="#94E0DD"/>
<stop offset="1" stop-color="#E7DBE6"/>
</linearGradient>
<linearGradient id="paint10_linear_33992_175579" x1="293.479" y1="432.496" x2="293.479" y2="607.969" gradientUnits="userSpaceOnUse">
<stop stop-color="#94E0DD"/>
<stop offset="1" stop-color="#E7DBE6"/>
</linearGradient>
<linearGradient id="paint11_linear_33992_175579" x1="835.484" y1="329.367" x2="835.484" y2="458.631" gradientUnits="userSpaceOnUse">
<stop stop-color="#94E0DD"/>
<stop offset="1" stop-color="#E7DBE6"/>
</linearGradient>
<linearGradient id="paint12_linear_33992_175579" x1="346.323" y1="432.496" x2="346.323" y2="607.969" gradientUnits="userSpaceOnUse">
<stop stop-color="#94E0DD"/>
<stop offset="1" stop-color="#E7DBE6"/>
</linearGradient>
<linearGradient id="paint13_linear_33992_175579" x1="975.965" y1="329.367" x2="975.965" y2="458.631" gradientUnits="userSpaceOnUse">
<stop stop-color="#94E0DD"/>
<stop offset="1" stop-color="#E7DBE6"/>
</linearGradient>
<linearGradient id="paint14_linear_33992_175579" x1="1066.06" y1="441.545" x2="1066.06" y2="619.276" gradientUnits="userSpaceOnUse">
<stop stop-color="#94E0DD"/>
<stop offset="1" stop-color="#E7DBE6"/>
</linearGradient>
<linearGradient id="paint15_linear_33992_175579" x1="1545.76" y1="430.341" x2="1545.76" y2="604.849" gradientUnits="userSpaceOnUse">
<stop stop-color="#94E0DD"/>
<stop offset="1" stop-color="#E7DBE6"/>
</linearGradient>
<linearGradient id="paint16_linear_33992_175579" x1="1299.49" y1="433.928" x2="1299.49" y2="610.042" gradientUnits="userSpaceOnUse">
<stop stop-color="#94E0DD"/>
<stop offset="1" stop-color="#E7DBE6"/>
</linearGradient>
</defs>
</svg>
