<?xml version="1.0" encoding="utf-8"?>
<!-- Generator: Adobe Illustrator 21.0.0, SVG Export Plug-In . SVG Version: 6.00 Build 0)  -->
<svg version="1.1" id="图层_1" xmlns="http://www.w3.org/2000/svg" xmlns:xlink="http://www.w3.org/1999/xlink" x="0px" y="0px"
	 viewBox="0 0 32 32" style="enable-background:new 0 0 32 32;" xml:space="preserve">
<style type="text/css">
	.st0{fill:url(#SVGID_1_);}
</style>
<linearGradient id="SVGID_1_" gradientUnits="userSpaceOnUse" x1="23.1799" y1="29.0846" x2="6.3512" y2="5.264" gradientTransform="matrix(1 0 0 -1 0 33)">
	<stop  offset="0" style="stop-color:#11C4D1"/>
	<stop  offset="1" style="stop-color:#0062AD"/>
</linearGradient>
<path class="st0" d="M28.9,7.6c0.9,11.6-6.6,17.1-13.3,17.7C9.4,25.9,3.6,22,3,16.2C2.6,11.3,5.6,9.2,8,9c2.4-0.2,4.5,1.5,4.6,3.5
	c0.2,1.9-1,2.8-1.9,2.9c-0.7,0.1-1.5-0.3-1.6-1.2c-0.1-0.7,0.2-0.8,0.1-1.6c-0.1-1.4-1.4-1.6-2-1.5c-0.8,0.1-2.3,1-2.1,3.4
	c0.2,2.4,2.5,4.3,5.5,4c3.3-0.3,5.5-2.8,5.7-6.4c0-0.2,0-0.4,0.1-0.5l0,0c0-0.1,0.1-0.1,0.1-0.2c0.1-0.1,0.2-0.2,0.3-0.3
	c0,0,0,0,0,0c0.1-0.1,0.2-0.2,0.3-0.3c1.4-1.3,6.5-4.5,11.4-3.5c0.1,0,0.2,0.1,0.3,0.2C28.9,7.4,28.9,7.5,28.9,7.6"/>
</svg>

