<?xml version="1.0" encoding="UTF-8"?>
<svg width="14px" height="14px" viewBox="0 0 14 14" version="1.1" xmlns="http://www.w3.org/2000/svg" xmlns:xlink="http://www.w3.org/1999/xlink">
    <!-- Generator: Sketch 64 (93537) - https://sketch.com -->
    <title>date-icon</title>
    <desc>Created with Sketch.</desc>
    <g id="页面-1" stroke="none" stroke-width="1" fill="none" fill-rule="evenodd">
        <g id="preferences-01" transform="translate(-280.000000, -460.000000)" fill="#5B729C" fill-rule="nonzero">
            <g id="time" transform="translate(260.000000, 437.000000)">
                <g id="date-icon" transform="translate(20.000000, 23.000000)">
                    <path d="M12.9230769,3.36 L12.9230769,12.88 L1.07692307,12.88 L1.07692307,3.36 L12.9230769,3.36 M12.8648648,1.68 L1.13513514,1.68 C0.508993536,1.68212895 0.00187002226,2.25946957 0,2.97230769 L0,12.7076923 C0.00187002226,13.4205304 0.508993536,13.9978711 1.13513514,14 L12.8648648,14 C13.4910064,13.9978711 13.99813,13.4205304 14,12.7076923 L14,2.97230769 C13.99813,2.25946957 13.4910064,1.68212895 12.8648648,1.68 L12.8648648,1.68 Z" id="形状"></path>
                    <polyline id="形状" points="13.44 2.24 13.44 6.16 0.56 6.16 0.56 2.24 13.44 2.24"></polyline>
                    <path d="M3.03111111,4.2875 C2.65801208,4.2875 2.35555556,3.97409932 2.35555556,3.5875 L2.35555556,0.7 C2.35555556,0.313400675 2.65801208,0 3.03111111,0 C3.40421014,0 3.70666667,0.313400675 3.70666667,0.7 L3.70666667,3.5875 C3.70666667,3.97409932 3.40421014,4.2875 3.03111111,4.2875 L3.03111111,4.2875 Z M4.04444444,9.1 L2.35555556,9.1 C1.98245654,9.1 1.68000003,8.78659934 1.68000003,8.4 C1.68000003,8.01340066 1.98245654,7.7 2.35555556,7.7 L4.04444444,7.7 C4.41754346,7.7 4.71999997,8.01340066 4.71999997,8.4 C4.71999997,8.78659934 4.41754346,9.1 4.04444444,9.1 L4.04444444,9.1 Z M7.84444446,9.1 L6.15555555,9.1 C5.78245653,9.1 5.48000003,8.78659934 5.48000003,8.4 C5.48000003,8.01340066 5.78245653,7.7 6.15555555,7.7 L7.84444446,7.7 C8.21754344,7.7 8.51999999,8.01340066 8.51999999,8.4 C8.51999999,8.78659934 8.21754344,9.1 7.84444446,9.1 L7.84444446,9.1 Z M11.6444445,9.1 L9.95555556,9.1 C9.58245657,9.1 9.28000002,8.78659934 9.28000002,8.4 C9.28000002,8.01340066 9.58245657,7.7 9.95555556,7.7 L11.6444445,7.7 C12.0175435,7.7 12.32,8.01340066 12.32,8.4 C12.32,8.78659934 12.0175435,9.1 11.6444445,9.1 L11.6444445,9.1 Z M4.04444444,11.2 L2.35555556,11.2 C1.98245652,11.2 1.68,10.8865993 1.68,10.5 C1.68,10.1134007 1.98245652,9.8 2.35555556,9.8 L4.04444444,9.8 C4.41754347,9.8 4.72,10.1134007 4.72,10.5 C4.72,10.8865993 4.41754347,11.2 4.04444444,11.2 L4.04444444,11.2 Z M7.84444446,11.2 L6.15555555,11.2 C5.78245652,11.2 5.48,10.8865993 5.48,10.5 C5.48,10.1134007 5.78245652,9.8 6.15555555,9.8 L7.84444446,9.8 C8.21754344,9.8 8.51999999,10.1134007 8.51999999,10.5 C8.51999999,10.8865993 8.21754344,11.2 7.84444446,11.2 L7.84444446,11.2 Z M10.9266666,4.2875 C10.5535677,4.2875 10.2511111,3.97409932 10.2511111,3.5875 L10.2511111,0.7 C10.2511111,0.313400675 10.5535677,0 10.9266666,0 C11.2997657,0 11.6022223,0.313400675 11.6022223,0.7 L11.6022223,3.5875 C11.6022223,3.97409932 11.2997657,4.2875 10.9266666,4.2875 Z" id="形状"></path>
                </g>
            </g>
        </g>
    </g>
</svg>