<?xml version="1.0" encoding="UTF-8"?>
<svg width="20px" height="20px" viewBox="0 0 20 20" version="1.1" xmlns="http://www.w3.org/2000/svg" xmlns:xlink="http://www.w3.org/1999/xlink">
    <!-- Generator: Sketch 64 (93537) - https://sketch.com -->
    <title>header_language_zh-CN_hover</title>
    <desc>Created with Sketch.</desc>
    <defs>
        <linearGradient x1="14.9879808%" y1="30.4817708%" x2="79.767701%" y2="49.8907869%" id="linearGradient-1">
            <stop stop-color="#93B6F2" offset="0%"></stop>
            <stop stop-color="#6C9EF5" offset="100%"></stop>
        </linearGradient>
    </defs>
    <g id="页面-1" stroke="none" stroke-width="1" fill="none" fill-rule="evenodd">
        <g id="header_language_zh-CN_hover" fill-rule="nonzero">
            <rect id="矩形" fill="url(#linearGradient-1)" opacity="0.5" x="4" y="0" width="16" height="16" rx="1"></rect>
            <rect id="矩形-copy" fill="url(#linearGradient-1)" x="0" y="4" width="16" height="16" rx="1"></rect>
            <path d="M8.57537313,17 L8.57537313,13.4392324 L11.2406183,13.4392324 L11.2406183,14.0255864 L12.3600213,14.0255864 L12.3600213,8.82302772 L8.57537313,8.82302772 L8.57537313,7 L7.42398721,7 L7.42398721,8.82302772 L3.65,8.82302772 L3.65,14.0255864 L4.76940299,14.0255864 L4.76940299,13.4392324 L7.42398721,13.4392324 L7.42398721,17 L8.57537313,17 Z M7.42398721,12.3518124 L4.76940299,12.3518124 L4.76940299,9.91044776 L7.42398721,9.91044776 L7.42398721,12.3518124 Z M11.2406183,12.3518124 L8.57537313,12.3518124 L8.57537313,9.91044776 L11.2406183,9.91044776 L11.2406183,12.3518124 Z" id="中备份" stroke="#FFFFFF" stroke-width="0.2" fill="#FFFFFF"></path>
        </g>
    </g>
</svg>