<?xml version="1.0" encoding="UTF-8"?>
<svg width="20px" height="20px" viewBox="0 0 20 20" version="1.1" xmlns="http://www.w3.org/2000/svg" xmlns:xlink="http://www.w3.org/1999/xlink">
    <!-- Generator: Sketch 64 (93537) - https://sketch.com -->
    <title>header_language_zh-CN</title>
    <desc>Created with Sketch.</desc>
    <defs>
        <linearGradient x1="25.5208333%" y1="0%" x2="72.2395833%" y2="72.7213542%" id="linearGradient-1">
            <stop stop-color="#70768B" offset="0%"></stop>
            <stop stop-color="#4A4F62" offset="100%"></stop>
        </linearGradient>
        <linearGradient x1="0%" y1="0%" x2="70.8984375%" y2="100%" id="linearGradient-2">
            <stop stop-color="#A9AEBF" offset="0%"></stop>
            <stop stop-color="#70768B" offset="100%"></stop>
        </linearGradient>
    </defs>
    <g id="页面-1" stroke="none" stroke-width="1" fill="none" fill-rule="evenodd">
        <g id="header_language_zh-CN" fill-rule="nonzero">
            <rect id="矩形" fill="url(#linearGradient-1)" opacity="0.495854" x="4" y="0" width="16" height="16" rx="1"></rect>
            <rect id="矩形-copy" fill="url(#linearGradient-2)" x="0" y="4" width="16" height="16" rx="1"></rect>
            <path d="M8.57537313,17 L8.57537313,13.4392324 L11.2406183,13.4392324 L11.2406183,14.0255864 L12.3600213,14.0255864 L12.3600213,8.82302772 L8.57537313,8.82302772 L8.57537313,7 L7.42398721,7 L7.42398721,8.82302772 L3.65,8.82302772 L3.65,14.0255864 L4.76940299,14.0255864 L4.76940299,13.4392324 L7.42398721,13.4392324 L7.42398721,17 L8.57537313,17 Z M7.42398721,12.3518124 L4.76940299,12.3518124 L4.76940299,9.91044776 L7.42398721,9.91044776 L7.42398721,12.3518124 Z M11.2406183,12.3518124 L8.57537313,12.3518124 L8.57537313,9.91044776 L11.2406183,9.91044776 L11.2406183,12.3518124 Z" id="中" stroke="#FFFFFF" stroke-width="0.2" fill="#FFFFFF"></path>
        </g>
    </g>
</svg>